%FSLAX44Y44*%
%MOMM*%
G71*
G01*
G75*
G04 Layer_Physical_Order=5*
G04 Layer_Color=8388736*
G04:AMPARAMS|DCode=10|XSize=0.6mm|YSize=0.5mm|CornerRadius=0.05mm|HoleSize=0mm|Usage=FLASHONLY|Rotation=270.000|XOffset=0mm|YOffset=0mm|HoleType=Round|Shape=RoundedRectangle|*
%AMROUNDEDRECTD10*
21,1,0.6000,0.4000,0,0,270.0*
21,1,0.5000,0.5000,0,0,270.0*
1,1,0.1000,-0.2000,-0.2500*
1,1,0.1000,-0.2000,0.2500*
1,1,0.1000,0.2000,0.2500*
1,1,0.1000,0.2000,-0.2500*
%
%ADD10ROUNDEDRECTD10*%
G04:AMPARAMS|DCode=11|XSize=0.4mm|YSize=0.37mm|CornerRadius=0.037mm|HoleSize=0mm|Usage=FLASHONLY|Rotation=90.000|XOffset=0mm|YOffset=0mm|HoleType=Round|Shape=RoundedRectangle|*
%AMROUNDEDRECTD11*
21,1,0.4000,0.2960,0,0,90.0*
21,1,0.3260,0.3700,0,0,90.0*
1,1,0.0740,0.1480,0.1630*
1,1,0.0740,0.1480,-0.1630*
1,1,0.0740,-0.1480,-0.1630*
1,1,0.0740,-0.1480,0.1630*
%
%ADD11ROUNDEDRECTD11*%
%ADD12R,0.5400X0.7400*%
%ADD13R,0.7400X0.5400*%
G04:AMPARAMS|DCode=14|XSize=0.8mm|YSize=0.8mm|CornerRadius=0.12mm|HoleSize=0mm|Usage=FLASHONLY|Rotation=0.000|XOffset=0mm|YOffset=0mm|HoleType=Round|Shape=RoundedRectangle|*
%AMROUNDEDRECTD14*
21,1,0.8000,0.5600,0,0,0.0*
21,1,0.5600,0.8000,0,0,0.0*
1,1,0.2400,0.2800,-0.2800*
1,1,0.2400,-0.2800,-0.2800*
1,1,0.2400,-0.2800,0.2800*
1,1,0.2400,0.2800,0.2800*
%
%ADD14ROUNDEDRECTD14*%
%ADD15C,0.3500*%
%ADD16O,1.4000X0.6000*%
G04:AMPARAMS|DCode=17|XSize=0.8mm|YSize=0.8mm|CornerRadius=0.12mm|HoleSize=0mm|Usage=FLASHONLY|Rotation=270.000|XOffset=0mm|YOffset=0mm|HoleType=Round|Shape=RoundedRectangle|*
%AMROUNDEDRECTD17*
21,1,0.8000,0.5600,0,0,270.0*
21,1,0.5600,0.8000,0,0,270.0*
1,1,0.2400,-0.2800,-0.2800*
1,1,0.2400,-0.2800,0.2800*
1,1,0.2400,0.2800,0.2800*
1,1,0.2400,0.2800,-0.2800*
%
%ADD17ROUNDEDRECTD17*%
G04:AMPARAMS|DCode=18|XSize=0.6mm|YSize=0.5mm|CornerRadius=0.05mm|HoleSize=0mm|Usage=FLASHONLY|Rotation=180.000|XOffset=0mm|YOffset=0mm|HoleType=Round|Shape=RoundedRectangle|*
%AMROUNDEDRECTD18*
21,1,0.6000,0.4000,0,0,180.0*
21,1,0.5000,0.5000,0,0,180.0*
1,1,0.1000,-0.2500,0.2000*
1,1,0.1000,0.2500,0.2000*
1,1,0.1000,0.2500,-0.2000*
1,1,0.1000,-0.2500,-0.2000*
%
%ADD18ROUNDEDRECTD18*%
%ADD19O,0.8000X1.4700*%
G04:AMPARAMS|DCode=20|XSize=0.95mm|YSize=0.85mm|CornerRadius=0.2125mm|HoleSize=0mm|Usage=FLASHONLY|Rotation=180.000|XOffset=0mm|YOffset=0mm|HoleType=Round|Shape=RoundedRectangle|*
%AMROUNDEDRECTD20*
21,1,0.9500,0.4250,0,0,180.0*
21,1,0.5250,0.8500,0,0,180.0*
1,1,0.4250,-0.2625,0.2125*
1,1,0.4250,0.2625,0.2125*
1,1,0.4250,0.2625,-0.2125*
1,1,0.4250,-0.2625,-0.2125*
%
%ADD20ROUNDEDRECTD20*%
G04:AMPARAMS|DCode=21|XSize=1mm|YSize=0.6mm|CornerRadius=0.15mm|HoleSize=0mm|Usage=FLASHONLY|Rotation=180.000|XOffset=0mm|YOffset=0mm|HoleType=Round|Shape=RoundedRectangle|*
%AMROUNDEDRECTD21*
21,1,1.0000,0.3000,0,0,180.0*
21,1,0.7000,0.6000,0,0,180.0*
1,1,0.3000,-0.3500,0.1500*
1,1,0.3000,0.3500,0.1500*
1,1,0.3000,0.3500,-0.1500*
1,1,0.3000,-0.3500,-0.1500*
%
%ADD21ROUNDEDRECTD21*%
G04:AMPARAMS|DCode=22|XSize=1.45mm|YSize=1.4mm|CornerRadius=0.35mm|HoleSize=0mm|Usage=FLASHONLY|Rotation=0.000|XOffset=0mm|YOffset=0mm|HoleType=Round|Shape=RoundedRectangle|*
%AMROUNDEDRECTD22*
21,1,1.4500,0.7000,0,0,0.0*
21,1,0.7500,1.4000,0,0,0.0*
1,1,0.7000,0.3750,-0.3500*
1,1,0.7000,-0.3750,-0.3500*
1,1,0.7000,-0.3750,0.3500*
1,1,0.7000,0.3750,0.3500*
%
%ADD22ROUNDEDRECTD22*%
G04:AMPARAMS|DCode=23|XSize=0.6mm|YSize=1.25mm|CornerRadius=0.15mm|HoleSize=0mm|Usage=FLASHONLY|Rotation=0.000|XOffset=0mm|YOffset=0mm|HoleType=Round|Shape=RoundedRectangle|*
%AMROUNDEDRECTD23*
21,1,0.6000,0.9500,0,0,0.0*
21,1,0.3000,1.2500,0,0,0.0*
1,1,0.3000,0.1500,-0.4750*
1,1,0.3000,-0.1500,-0.4750*
1,1,0.3000,-0.1500,0.4750*
1,1,0.3000,0.1500,0.4750*
%
%ADD23ROUNDEDRECTD23*%
G04:AMPARAMS|DCode=24|XSize=3.79mm|YSize=1.2mm|CornerRadius=0.3mm|HoleSize=0mm|Usage=FLASHONLY|Rotation=270.000|XOffset=0mm|YOffset=0mm|HoleType=Round|Shape=RoundedRectangle|*
%AMROUNDEDRECTD24*
21,1,3.7900,0.6000,0,0,270.0*
21,1,3.1900,1.2000,0,0,270.0*
1,1,0.6000,-0.3000,-1.5950*
1,1,0.6000,-0.3000,1.5950*
1,1,0.6000,0.3000,1.5950*
1,1,0.6000,0.3000,-1.5950*
%
%ADD24ROUNDEDRECTD24*%
G04:AMPARAMS|DCode=25|XSize=0.76mm|YSize=0.27mm|CornerRadius=0.027mm|HoleSize=0mm|Usage=FLASHONLY|Rotation=180.000|XOffset=0mm|YOffset=0mm|HoleType=Round|Shape=RoundedRectangle|*
%AMROUNDEDRECTD25*
21,1,0.7600,0.2160,0,0,180.0*
21,1,0.7060,0.2700,0,0,180.0*
1,1,0.0540,-0.3530,0.1080*
1,1,0.0540,0.3530,0.1080*
1,1,0.0540,0.3530,-0.1080*
1,1,0.0540,-0.3530,-0.1080*
%
%ADD25ROUNDEDRECTD25*%
G04:AMPARAMS|DCode=26|XSize=0.76mm|YSize=0.27mm|CornerRadius=0.027mm|HoleSize=0mm|Usage=FLASHONLY|Rotation=90.000|XOffset=0mm|YOffset=0mm|HoleType=Round|Shape=RoundedRectangle|*
%AMROUNDEDRECTD26*
21,1,0.7600,0.2160,0,0,90.0*
21,1,0.7060,0.2700,0,0,90.0*
1,1,0.0540,0.1080,0.3530*
1,1,0.0540,0.1080,-0.3530*
1,1,0.0540,-0.1080,-0.3530*
1,1,0.0540,-0.1080,0.3530*
%
%ADD26ROUNDEDRECTD26*%
G04:AMPARAMS|DCode=27|XSize=0.4mm|YSize=0.37mm|CornerRadius=0.037mm|HoleSize=0mm|Usage=FLASHONLY|Rotation=0.000|XOffset=0mm|YOffset=0mm|HoleType=Round|Shape=RoundedRectangle|*
%AMROUNDEDRECTD27*
21,1,0.4000,0.2960,0,0,0.0*
21,1,0.3260,0.3700,0,0,0.0*
1,1,0.0740,0.1630,-0.1480*
1,1,0.0740,-0.1630,-0.1480*
1,1,0.0740,-0.1630,0.1480*
1,1,0.0740,0.1630,0.1480*
%
%ADD27ROUNDEDRECTD27*%
%ADD28C,0.0750*%
%ADD29C,0.0751*%
%ADD30C,0.1000*%
%ADD31C,0.3000*%
%ADD32C,0.1500*%
%ADD33C,0.0100*%
%ADD34C,1.5000*%
%ADD35R,1.5000X1.5000*%
%ADD36R,1.5000X1.5000*%
G36*
X161173Y504896D02*
X160833Y504679D01*
X160209Y504201D01*
X159630Y503670D01*
X159099Y503091D01*
X158621Y502467D01*
X158198Y501804D01*
X157835Y501107D01*
X157535Y500381D01*
X157298Y499632D01*
X157128Y498864D01*
X157026Y498085D01*
X156991Y497300D01*
X157026Y496515D01*
X157128Y495736D01*
X157298Y494968D01*
X157535Y494219D01*
X157835Y493493D01*
X158198Y492796D01*
X158621Y492133D01*
X159099Y491509D01*
X159630Y490930D01*
X160209Y490399D01*
X160833Y489921D01*
X161496Y489498D01*
X162193Y489135D01*
X162919Y488835D01*
X163668Y488598D01*
X164436Y488428D01*
X165215Y488326D01*
X166000Y488291D01*
X166785Y488326D01*
X167564Y488428D01*
X168332Y488598D01*
X169081Y488835D01*
X169807Y489135D01*
X170504Y489498D01*
X171167Y489921D01*
X171791Y490399D01*
X172370Y490930D01*
X172901Y491509D01*
X173379Y492133D01*
X173801Y492796D01*
X173895Y492976D01*
X173992Y492952D01*
Y476248D01*
X173895Y476224D01*
X173801Y476404D01*
X173379Y477067D01*
X172901Y477691D01*
X172370Y478270D01*
X171791Y478801D01*
X171167Y479279D01*
X170504Y479701D01*
X169807Y480064D01*
X169081Y480365D01*
X168332Y480602D01*
X167564Y480772D01*
X166785Y480874D01*
X166000Y480908D01*
X165215Y480874D01*
X164436Y480772D01*
X163668Y480602D01*
X162919Y480365D01*
X162193Y480064D01*
X161496Y479701D01*
X160833Y479279D01*
X160209Y478801D01*
X159630Y478270D01*
X159099Y477691D01*
X158621Y477067D01*
X158198Y476404D01*
X157835Y475707D01*
X157535Y474981D01*
X157298Y474231D01*
X157128Y473464D01*
X157026Y472685D01*
X156991Y471900D01*
X157026Y471115D01*
X157128Y470336D01*
X157298Y469568D01*
X157535Y468819D01*
X157835Y468093D01*
X158198Y467396D01*
X158621Y466733D01*
X159099Y466109D01*
X159630Y465530D01*
X160209Y464999D01*
X160833Y464520D01*
X161496Y464098D01*
X162193Y463735D01*
X162919Y463435D01*
X163668Y463198D01*
X164436Y463028D01*
X165215Y462926D01*
X166000Y462891D01*
X166785Y462926D01*
X167564Y463028D01*
X168332Y463198D01*
X169081Y463435D01*
X169807Y463735D01*
X170504Y464098D01*
X171167Y464520D01*
X171791Y464999D01*
X172370Y465530D01*
X172901Y466109D01*
X173379Y466733D01*
X173801Y467396D01*
X173895Y467575D01*
X173992Y467552D01*
Y450848D01*
X173895Y450824D01*
X173801Y451004D01*
X173379Y451667D01*
X172901Y452290D01*
X172370Y452870D01*
X171791Y453401D01*
X171167Y453879D01*
X170504Y454301D01*
X169807Y454664D01*
X169081Y454965D01*
X168332Y455201D01*
X167564Y455372D01*
X166785Y455474D01*
X166000Y455508D01*
X165215Y455474D01*
X164436Y455372D01*
X163668Y455201D01*
X162919Y454965D01*
X162193Y454664D01*
X161496Y454301D01*
X160833Y453879D01*
X160209Y453401D01*
X159630Y452870D01*
X159099Y452290D01*
X158621Y451667D01*
X158198Y451004D01*
X157835Y450307D01*
X157535Y449581D01*
X157298Y448831D01*
X157128Y448064D01*
X157026Y447285D01*
X156991Y446500D01*
X157026Y445715D01*
X157128Y444936D01*
X157298Y444168D01*
X157535Y443419D01*
X157835Y442693D01*
X158198Y441996D01*
X158621Y441333D01*
X159099Y440709D01*
X159630Y440130D01*
X160209Y439599D01*
X160833Y439120D01*
X161496Y438698D01*
X162193Y438335D01*
X162919Y438035D01*
X163668Y437798D01*
X164436Y437628D01*
X165215Y437526D01*
X166000Y437491D01*
X166785Y437526D01*
X167564Y437628D01*
X168332Y437798D01*
X169081Y438035D01*
X169807Y438335D01*
X170504Y438698D01*
X171167Y439120D01*
X171791Y439599D01*
X172370Y440130D01*
X172901Y440709D01*
X173379Y441333D01*
X173801Y441996D01*
X173895Y442175D01*
X173992Y442152D01*
Y425448D01*
X173895Y425424D01*
X173801Y425604D01*
X173379Y426267D01*
X172901Y426890D01*
X172370Y427470D01*
X171791Y428001D01*
X171167Y428479D01*
X170504Y428901D01*
X169807Y429264D01*
X169081Y429565D01*
X168332Y429801D01*
X167564Y429972D01*
X166785Y430074D01*
X166000Y430108D01*
X165215Y430074D01*
X164436Y429972D01*
X163668Y429801D01*
X162919Y429565D01*
X162193Y429264D01*
X161496Y428901D01*
X160833Y428479D01*
X160209Y428001D01*
X159630Y427470D01*
X159099Y426890D01*
X158621Y426267D01*
X158198Y425604D01*
X157835Y424907D01*
X157535Y424181D01*
X157298Y423432D01*
X157128Y422664D01*
X157026Y421885D01*
X156991Y421100D01*
X157026Y420315D01*
X157128Y419536D01*
X157298Y418768D01*
X157535Y418019D01*
X157835Y417293D01*
X158198Y416596D01*
X158621Y415933D01*
X159099Y415309D01*
X159630Y414730D01*
X160209Y414199D01*
X160833Y413721D01*
X161496Y413298D01*
X162193Y412935D01*
X162919Y412635D01*
X163668Y412398D01*
X164436Y412228D01*
X165215Y412126D01*
X166000Y412091D01*
X166785Y412126D01*
X167564Y412228D01*
X168332Y412398D01*
X169081Y412635D01*
X169807Y412935D01*
X170504Y413298D01*
X171167Y413721D01*
X171791Y414199D01*
X172370Y414730D01*
X172901Y415309D01*
X173379Y415933D01*
X173801Y416596D01*
X173895Y416776D01*
X173992Y416752D01*
Y400048D01*
X173895Y400024D01*
X173801Y400204D01*
X173379Y400867D01*
X172901Y401491D01*
X172370Y402070D01*
X171791Y402601D01*
X171167Y403079D01*
X170504Y403502D01*
X169807Y403864D01*
X169081Y404165D01*
X168332Y404402D01*
X167564Y404572D01*
X166785Y404674D01*
X166000Y404708D01*
X165215Y404674D01*
X164436Y404572D01*
X163668Y404402D01*
X162919Y404165D01*
X162193Y403864D01*
X161496Y403502D01*
X160833Y403079D01*
X160209Y402601D01*
X159630Y402070D01*
X159099Y401491D01*
X158621Y400867D01*
X158198Y400204D01*
X157835Y399507D01*
X157535Y398781D01*
X157298Y398032D01*
X157128Y397264D01*
X157026Y396485D01*
X156991Y395700D01*
X157026Y394915D01*
X157128Y394136D01*
X157298Y393368D01*
X157535Y392619D01*
X157835Y391893D01*
X158198Y391196D01*
X158621Y390533D01*
X159099Y389909D01*
X159630Y389330D01*
X160209Y388799D01*
X160833Y388321D01*
X161496Y387898D01*
X162193Y387535D01*
X162919Y387235D01*
X163668Y386998D01*
X164436Y386828D01*
X165215Y386726D01*
X166000Y386691D01*
X166785Y386726D01*
X167564Y386828D01*
X168332Y386998D01*
X169081Y387235D01*
X169807Y387535D01*
X170504Y387898D01*
X171167Y388321D01*
X171791Y388799D01*
X172370Y389330D01*
X172901Y389909D01*
X173379Y390533D01*
X173801Y391196D01*
X173895Y391376D01*
X173992Y391352D01*
Y374648D01*
X173895Y374624D01*
X173801Y374804D01*
X173379Y375467D01*
X172901Y376091D01*
X172370Y376670D01*
X171791Y377201D01*
X171167Y377679D01*
X170504Y378102D01*
X169807Y378464D01*
X169081Y378765D01*
X168332Y379002D01*
X167564Y379172D01*
X166785Y379274D01*
X166000Y379308D01*
X165215Y379274D01*
X164436Y379172D01*
X163668Y379002D01*
X162919Y378765D01*
X162193Y378464D01*
X161496Y378102D01*
X160833Y377679D01*
X160209Y377201D01*
X159630Y376670D01*
X159099Y376091D01*
X158621Y375467D01*
X158198Y374804D01*
X157835Y374107D01*
X157535Y373381D01*
X157298Y372631D01*
X157128Y371864D01*
X157026Y371085D01*
X156991Y370300D01*
X157026Y369515D01*
X157128Y368736D01*
X157298Y367968D01*
X157535Y367219D01*
X157835Y366493D01*
X158198Y365796D01*
X158621Y365133D01*
X159099Y364509D01*
X159630Y363930D01*
X160209Y363399D01*
X160833Y362920D01*
X161496Y362498D01*
X162193Y362135D01*
X162919Y361835D01*
X163668Y361598D01*
X164436Y361428D01*
X165215Y361326D01*
X166000Y361291D01*
X166785Y361326D01*
X167564Y361428D01*
X168332Y361598D01*
X169081Y361835D01*
X169807Y362135D01*
X170504Y362498D01*
X171167Y362920D01*
X171791Y363399D01*
X172370Y363930D01*
X172901Y364509D01*
X173379Y365133D01*
X173801Y365796D01*
X173895Y365975D01*
X173992Y365952D01*
Y349248D01*
X173895Y349224D01*
X173801Y349404D01*
X173379Y350067D01*
X172901Y350690D01*
X172370Y351270D01*
X171791Y351801D01*
X171167Y352279D01*
X170504Y352701D01*
X169807Y353064D01*
X169081Y353365D01*
X168332Y353601D01*
X167564Y353772D01*
X166785Y353874D01*
X166000Y353908D01*
X165215Y353874D01*
X164436Y353772D01*
X163668Y353601D01*
X162919Y353365D01*
X162193Y353064D01*
X161496Y352701D01*
X160833Y352279D01*
X160209Y351801D01*
X159630Y351270D01*
X159099Y350690D01*
X158621Y350067D01*
X158198Y349404D01*
X157835Y348707D01*
X157535Y347981D01*
X157298Y347231D01*
X157128Y346464D01*
X157026Y345685D01*
X156991Y344900D01*
X157026Y344115D01*
X157128Y343336D01*
X157298Y342568D01*
X157535Y341819D01*
X157835Y341093D01*
X158198Y340396D01*
X158621Y339733D01*
X159099Y339109D01*
X159630Y338530D01*
X160209Y337999D01*
X160833Y337520D01*
X161496Y337098D01*
X162193Y336735D01*
X162919Y336435D01*
X163668Y336198D01*
X164436Y336028D01*
X165215Y335926D01*
X166000Y335891D01*
X166785Y335926D01*
X167564Y336028D01*
X168332Y336198D01*
X169081Y336435D01*
X169807Y336735D01*
X170504Y337098D01*
X171167Y337520D01*
X171791Y337999D01*
X172370Y338530D01*
X172901Y339109D01*
X173379Y339733D01*
X173801Y340396D01*
X173895Y340575D01*
X173992Y340552D01*
Y323848D01*
X173895Y323824D01*
X173801Y324004D01*
X173379Y324667D01*
X172901Y325290D01*
X172370Y325870D01*
X171791Y326401D01*
X171167Y326879D01*
X170504Y327301D01*
X169807Y327664D01*
X169081Y327965D01*
X168332Y328201D01*
X167564Y328372D01*
X166785Y328474D01*
X166000Y328508D01*
X165215Y328474D01*
X164436Y328372D01*
X163668Y328201D01*
X162919Y327965D01*
X162193Y327664D01*
X161496Y327301D01*
X160833Y326879D01*
X160209Y326401D01*
X159630Y325870D01*
X159099Y325290D01*
X158621Y324667D01*
X158198Y324004D01*
X157835Y323307D01*
X157535Y322581D01*
X157298Y321832D01*
X157128Y321064D01*
X157026Y320285D01*
X156991Y319500D01*
X157026Y318715D01*
X157128Y317936D01*
X157298Y317168D01*
X157535Y316419D01*
X157835Y315693D01*
X158198Y314996D01*
X158621Y314333D01*
X159099Y313709D01*
X159630Y313130D01*
X160209Y312599D01*
X160833Y312120D01*
X161496Y311698D01*
X162193Y311335D01*
X162919Y311035D01*
X163668Y310798D01*
X164436Y310628D01*
X165215Y310526D01*
X166000Y310491D01*
X166785Y310526D01*
X167564Y310628D01*
X168332Y310798D01*
X169081Y311035D01*
X169807Y311335D01*
X170504Y311698D01*
X171167Y312120D01*
X171791Y312599D01*
X172370Y313130D01*
X172901Y313709D01*
X173379Y314333D01*
X173801Y314996D01*
X173895Y315175D01*
X173992Y315152D01*
Y298448D01*
X173895Y298424D01*
X173801Y298604D01*
X173379Y299267D01*
X172901Y299890D01*
X172370Y300470D01*
X171791Y301001D01*
X171167Y301479D01*
X170504Y301901D01*
X169807Y302264D01*
X169081Y302565D01*
X168332Y302801D01*
X167564Y302972D01*
X166785Y303074D01*
X166000Y303108D01*
X165215Y303074D01*
X164436Y302972D01*
X163668Y302801D01*
X162919Y302565D01*
X162193Y302264D01*
X161496Y301901D01*
X160833Y301479D01*
X160209Y301001D01*
X159630Y300470D01*
X159099Y299890D01*
X158621Y299267D01*
X158198Y298604D01*
X157835Y297907D01*
X157535Y297181D01*
X157298Y296432D01*
X157128Y295664D01*
X157026Y294885D01*
X156991Y294100D01*
X157026Y293315D01*
X157128Y292536D01*
X157298Y291768D01*
X157535Y291019D01*
X157835Y290293D01*
X158198Y289596D01*
X158621Y288933D01*
X159099Y288309D01*
X159630Y287730D01*
X160209Y287199D01*
X160833Y286721D01*
X161496Y286298D01*
X162193Y285935D01*
X162919Y285635D01*
X163668Y285398D01*
X164436Y285228D01*
X165215Y285126D01*
X166000Y285091D01*
X166785Y285126D01*
X167564Y285228D01*
X168332Y285398D01*
X169081Y285635D01*
X169807Y285935D01*
X170504Y286298D01*
X171167Y286721D01*
X171791Y287199D01*
X172370Y287730D01*
X172901Y288309D01*
X173379Y288933D01*
X173801Y289596D01*
X173895Y289776D01*
X173992Y289752D01*
Y273048D01*
X173895Y273024D01*
X173801Y273204D01*
X173379Y273867D01*
X172901Y274491D01*
X172370Y275070D01*
X171791Y275601D01*
X171167Y276079D01*
X170504Y276502D01*
X169807Y276864D01*
X169081Y277165D01*
X168332Y277402D01*
X167564Y277572D01*
X166785Y277674D01*
X166000Y277708D01*
X165215Y277674D01*
X164436Y277572D01*
X163668Y277402D01*
X162919Y277165D01*
X162193Y276864D01*
X161496Y276502D01*
X160833Y276079D01*
X160209Y275601D01*
X159630Y275070D01*
X159099Y274491D01*
X158621Y273867D01*
X158198Y273204D01*
X157835Y272507D01*
X157535Y271781D01*
X157298Y271031D01*
X157128Y270264D01*
X157026Y269485D01*
X156991Y268700D01*
X157026Y267915D01*
X157128Y267136D01*
X157298Y266368D01*
X157535Y265619D01*
X157835Y264893D01*
X158198Y264196D01*
X158621Y263533D01*
X158649Y263496D01*
X158594Y263412D01*
X158547Y263424D01*
X158100Y263459D01*
X157653Y263424D01*
X157217Y263319D01*
X156802Y263147D01*
X156420Y262913D01*
X156079Y262621D01*
X155787Y262280D01*
X155553Y261898D01*
X155381Y261483D01*
X155276Y261047D01*
X155241Y260600D01*
X155276Y260153D01*
X155381Y259717D01*
X155553Y259302D01*
X155787Y258920D01*
X156079Y258578D01*
X156420Y258287D01*
X156802Y258053D01*
X157217Y257881D01*
X157653Y257776D01*
X158100Y257741D01*
X158547Y257776D01*
X158983Y257881D01*
X159398Y258053D01*
X159780Y258287D01*
X160121Y258578D01*
X160413Y258920D01*
X160647Y259302D01*
X160819Y259717D01*
X160924Y260153D01*
X160959Y260600D01*
X160924Y261047D01*
X160894Y261172D01*
X160975Y261230D01*
X161496Y260898D01*
X162193Y260535D01*
X162919Y260235D01*
X163668Y259998D01*
X164436Y259828D01*
X165215Y259726D01*
X166000Y259691D01*
X166785Y259726D01*
X167564Y259828D01*
X168332Y259998D01*
X169081Y260235D01*
X169807Y260535D01*
X170504Y260898D01*
X171167Y261320D01*
X171791Y261799D01*
X172370Y262330D01*
X172901Y262909D01*
X173379Y263533D01*
X173801Y264196D01*
X173895Y264375D01*
X173992Y264352D01*
Y247648D01*
X173895Y247624D01*
X173801Y247804D01*
X173379Y248467D01*
X172901Y249090D01*
X172370Y249670D01*
X171791Y250201D01*
X171167Y250679D01*
X170504Y251101D01*
X169807Y251464D01*
X169081Y251765D01*
X168332Y252001D01*
X167564Y252172D01*
X166785Y252274D01*
X166000Y252308D01*
X165215Y252274D01*
X164436Y252172D01*
X163668Y252001D01*
X162919Y251765D01*
X162193Y251464D01*
X161496Y251101D01*
X160833Y250679D01*
X160209Y250201D01*
X159630Y249670D01*
X159099Y249090D01*
X158621Y248467D01*
X158198Y247804D01*
X157835Y247107D01*
X157535Y246381D01*
X157298Y245632D01*
X157128Y244864D01*
X157026Y244085D01*
X156991Y243300D01*
X157026Y242515D01*
X157128Y241736D01*
X157298Y240968D01*
X157535Y240219D01*
X157835Y239493D01*
X158198Y238796D01*
X158621Y238133D01*
X159099Y237509D01*
X159630Y236930D01*
X160209Y236399D01*
X160833Y235921D01*
X161496Y235498D01*
X162193Y235135D01*
X162919Y234835D01*
X163668Y234598D01*
X164436Y234428D01*
X165215Y234326D01*
X166000Y234291D01*
X166785Y234326D01*
X167564Y234428D01*
X168332Y234598D01*
X169081Y234835D01*
X169807Y235135D01*
X170504Y235498D01*
X171167Y235921D01*
X171791Y236399D01*
X172370Y236930D01*
X172901Y237509D01*
X173379Y238133D01*
X173801Y238796D01*
X173895Y238976D01*
X173992Y238952D01*
Y223214D01*
X173896Y223186D01*
X173789Y223354D01*
X173284Y224012D01*
X172724Y224624D01*
X172112Y225184D01*
X171454Y225689D01*
X170754Y226135D01*
X170019Y226518D01*
X169252Y226835D01*
X168461Y227085D01*
X167651Y227264D01*
X167000Y227350D01*
Y217900D01*
Y208450D01*
X167651Y208535D01*
X168461Y208715D01*
X169252Y208964D01*
X170019Y209282D01*
X170754Y209665D01*
X171454Y210110D01*
X172112Y210616D01*
X172724Y211176D01*
X173284Y211788D01*
X173789Y212446D01*
X173896Y212614D01*
X173992Y212586D01*
Y196848D01*
X173895Y196824D01*
X173801Y197004D01*
X173379Y197667D01*
X172901Y198291D01*
X172370Y198870D01*
X171791Y199401D01*
X171167Y199879D01*
X170504Y200301D01*
X169807Y200664D01*
X169081Y200965D01*
X168332Y201201D01*
X167564Y201372D01*
X166785Y201474D01*
X166000Y201508D01*
X165215Y201474D01*
X164436Y201372D01*
X163668Y201201D01*
X162919Y200965D01*
X162193Y200664D01*
X161496Y200301D01*
X160833Y199879D01*
X160209Y199401D01*
X159630Y198870D01*
X159099Y198291D01*
X158621Y197667D01*
X158198Y197004D01*
X157835Y196307D01*
X157535Y195581D01*
X157298Y194832D01*
X157128Y194064D01*
X157026Y193285D01*
X156991Y192500D01*
X157026Y191715D01*
X157128Y190936D01*
X157298Y190168D01*
X157535Y189419D01*
X157835Y188693D01*
X158198Y187996D01*
X158621Y187333D01*
X159099Y186709D01*
X159630Y186130D01*
X160209Y185599D01*
X160833Y185121D01*
X161496Y184698D01*
X162193Y184335D01*
X162919Y184035D01*
X163668Y183798D01*
X164436Y183628D01*
X165215Y183526D01*
X166000Y183491D01*
X166785Y183526D01*
X167564Y183628D01*
X168332Y183798D01*
X169081Y184035D01*
X169807Y184335D01*
X170504Y184698D01*
X171167Y185121D01*
X171791Y185599D01*
X172370Y186130D01*
X172901Y186709D01*
X173379Y187333D01*
X173801Y187996D01*
X173895Y188176D01*
X173992Y188152D01*
Y171448D01*
X173895Y171424D01*
X173801Y171604D01*
X173379Y172267D01*
X172901Y172890D01*
X172370Y173470D01*
X171791Y174001D01*
X171167Y174479D01*
X170504Y174902D01*
X169807Y175264D01*
X169081Y175565D01*
X168332Y175802D01*
X167564Y175972D01*
X166785Y176074D01*
X166000Y176108D01*
X165215Y176074D01*
X164436Y175972D01*
X163668Y175802D01*
X162919Y175565D01*
X162193Y175264D01*
X161496Y174902D01*
X160833Y174479D01*
X160209Y174001D01*
X159630Y173470D01*
X159099Y172890D01*
X158621Y172267D01*
X158198Y171604D01*
X157835Y170907D01*
X157535Y170181D01*
X157298Y169431D01*
X157128Y168664D01*
X157026Y167885D01*
X156991Y167100D01*
X157026Y166315D01*
X157128Y165536D01*
X157298Y164768D01*
X157535Y164019D01*
X157835Y163293D01*
X158198Y162596D01*
X158621Y161933D01*
X159099Y161309D01*
X159630Y160730D01*
X160209Y160199D01*
X160833Y159720D01*
X161496Y159298D01*
X162193Y158935D01*
X162919Y158635D01*
X163668Y158398D01*
X164436Y158228D01*
X165215Y158126D01*
X166000Y158091D01*
X166785Y158126D01*
X167564Y158228D01*
X168332Y158398D01*
X169081Y158635D01*
X169807Y158935D01*
X170504Y159298D01*
X171167Y159720D01*
X171791Y160199D01*
X172370Y160730D01*
X172901Y161309D01*
X173379Y161933D01*
X173801Y162596D01*
X173895Y162775D01*
X173992Y162752D01*
Y146048D01*
X173895Y146024D01*
X173801Y146204D01*
X173379Y146867D01*
X172901Y147491D01*
X172370Y148070D01*
X171791Y148601D01*
X171167Y149079D01*
X170504Y149501D01*
X169807Y149864D01*
X169081Y150165D01*
X168332Y150401D01*
X167564Y150572D01*
X166785Y150674D01*
X166000Y150708D01*
X165215Y150674D01*
X164436Y150572D01*
X163668Y150401D01*
X162919Y150165D01*
X162193Y149864D01*
X161496Y149501D01*
X160833Y149079D01*
X160209Y148601D01*
X159630Y148070D01*
X159099Y147491D01*
X158621Y146867D01*
X158198Y146204D01*
X157835Y145507D01*
X157535Y144781D01*
X157298Y144031D01*
X157128Y143264D01*
X157026Y142485D01*
X156991Y141700D01*
X157026Y140915D01*
X157128Y140136D01*
X157298Y139368D01*
X157535Y138619D01*
X157835Y137893D01*
X158198Y137196D01*
X158621Y136533D01*
X159099Y135909D01*
X159630Y135330D01*
X160209Y134799D01*
X160833Y134320D01*
X161496Y133898D01*
X162193Y133535D01*
X162919Y133235D01*
X163668Y132998D01*
X164436Y132828D01*
X165215Y132726D01*
X166000Y132691D01*
X166785Y132726D01*
X167564Y132828D01*
X168332Y132998D01*
X169081Y133235D01*
X169807Y133535D01*
X170504Y133898D01*
X171167Y134320D01*
X171791Y134799D01*
X172370Y135330D01*
X172901Y135909D01*
X173379Y136533D01*
X173801Y137196D01*
X173895Y137375D01*
X173992Y137352D01*
Y120648D01*
X173895Y120624D01*
X173801Y120804D01*
X173379Y121467D01*
X172901Y122091D01*
X172370Y122670D01*
X171791Y123201D01*
X171167Y123679D01*
X170504Y124101D01*
X169807Y124464D01*
X169081Y124765D01*
X168332Y125001D01*
X167564Y125172D01*
X166785Y125274D01*
X166000Y125308D01*
X165215Y125274D01*
X164436Y125172D01*
X163668Y125001D01*
X162919Y124765D01*
X162193Y124464D01*
X161496Y124101D01*
X160833Y123679D01*
X160209Y123201D01*
X159630Y122670D01*
X159099Y122091D01*
X158621Y121467D01*
X158198Y120804D01*
X157835Y120107D01*
X157535Y119381D01*
X157298Y118631D01*
X157128Y117864D01*
X157026Y117085D01*
X156991Y116300D01*
X157026Y115515D01*
X157128Y114736D01*
X157298Y113968D01*
X157535Y113219D01*
X157835Y112493D01*
X158198Y111796D01*
X158621Y111133D01*
X159099Y110509D01*
X159630Y109930D01*
X160209Y109399D01*
X160833Y108920D01*
X161496Y108498D01*
X162193Y108135D01*
X162919Y107835D01*
X163668Y107598D01*
X164436Y107428D01*
X165215Y107326D01*
X166000Y107291D01*
X166785Y107326D01*
X167564Y107428D01*
X168332Y107598D01*
X169081Y107835D01*
X169807Y108135D01*
X170504Y108498D01*
X171167Y108920D01*
X171791Y109399D01*
X172370Y109930D01*
X172901Y110509D01*
X173379Y111133D01*
X173801Y111796D01*
X173895Y111975D01*
X173992Y111952D01*
Y95248D01*
X173895Y95224D01*
X173801Y95404D01*
X173379Y96067D01*
X172901Y96691D01*
X172370Y97270D01*
X171791Y97801D01*
X171167Y98279D01*
X170504Y98701D01*
X169807Y99064D01*
X169081Y99365D01*
X168332Y99601D01*
X167564Y99772D01*
X166785Y99874D01*
X166000Y99908D01*
X165215Y99874D01*
X164436Y99772D01*
X163668Y99601D01*
X162919Y99365D01*
X162193Y99064D01*
X161496Y98701D01*
X160833Y98279D01*
X160209Y97801D01*
X159630Y97270D01*
X159099Y96691D01*
X158621Y96067D01*
X158198Y95404D01*
X157835Y94707D01*
X157535Y93981D01*
X157298Y93231D01*
X157128Y92464D01*
X157026Y91685D01*
X156991Y90900D01*
X157026Y90115D01*
X157128Y89336D01*
X157298Y88568D01*
X157535Y87819D01*
X157835Y87093D01*
X158198Y86396D01*
X158621Y85733D01*
X159099Y85109D01*
X159630Y84530D01*
X160209Y83999D01*
X160833Y83520D01*
X161496Y83098D01*
X162193Y82735D01*
X162919Y82435D01*
X163668Y82198D01*
X164436Y82028D01*
X165215Y81926D01*
X166000Y81891D01*
X166785Y81926D01*
X167564Y82028D01*
X168332Y82198D01*
X169081Y82435D01*
X169807Y82735D01*
X170504Y83098D01*
X171167Y83520D01*
X171791Y83999D01*
X172370Y84530D01*
X172901Y85109D01*
X173379Y85733D01*
X173801Y86396D01*
X173895Y86575D01*
X173992Y86552D01*
Y69848D01*
X173895Y69824D01*
X173801Y70004D01*
X173379Y70667D01*
X172901Y71290D01*
X172370Y71870D01*
X171791Y72401D01*
X171167Y72879D01*
X170504Y73302D01*
X169807Y73664D01*
X169081Y73965D01*
X168332Y74201D01*
X167564Y74372D01*
X166785Y74474D01*
X166000Y74508D01*
X165215Y74474D01*
X164436Y74372D01*
X163668Y74201D01*
X162919Y73965D01*
X162193Y73664D01*
X161496Y73302D01*
X160833Y72879D01*
X160209Y72401D01*
X159630Y71870D01*
X159099Y71290D01*
X158621Y70667D01*
X158198Y70004D01*
X157835Y69307D01*
X157535Y68581D01*
X157298Y67832D01*
X157128Y67064D01*
X157026Y66285D01*
X156991Y65500D01*
X157026Y64715D01*
X157128Y63936D01*
X157298Y63168D01*
X157535Y62419D01*
X157835Y61693D01*
X158198Y60996D01*
X158621Y60333D01*
X159099Y59709D01*
X159630Y59130D01*
X160209Y58599D01*
X160833Y58120D01*
X161496Y57698D01*
X162193Y57335D01*
X162919Y57035D01*
X163668Y56798D01*
X164436Y56628D01*
X165215Y56526D01*
X166000Y56491D01*
X166785Y56526D01*
X167564Y56628D01*
X168332Y56798D01*
X169081Y57035D01*
X169807Y57335D01*
X170504Y57698D01*
X171167Y58120D01*
X171791Y58599D01*
X172370Y59130D01*
X172901Y59709D01*
X173379Y60333D01*
X173801Y60996D01*
X173895Y61175D01*
X173992Y61152D01*
Y44448D01*
X173895Y44424D01*
X173801Y44604D01*
X173379Y45267D01*
X172901Y45890D01*
X172370Y46470D01*
X171791Y47001D01*
X171167Y47479D01*
X170504Y47902D01*
X169807Y48264D01*
X169081Y48565D01*
X168332Y48801D01*
X167564Y48972D01*
X166785Y49074D01*
X166000Y49108D01*
X165215Y49074D01*
X164436Y48972D01*
X163668Y48801D01*
X162919Y48565D01*
X162193Y48264D01*
X161496Y47902D01*
X160833Y47479D01*
X160209Y47001D01*
X159630Y46470D01*
X159099Y45890D01*
X158621Y45267D01*
X158198Y44604D01*
X157835Y43907D01*
X157535Y43181D01*
X157298Y42432D01*
X157128Y41664D01*
X157026Y40885D01*
X156991Y40100D01*
X157026Y39315D01*
X157128Y38536D01*
X157298Y37768D01*
X157535Y37019D01*
X157835Y36293D01*
X158198Y35596D01*
X158621Y34933D01*
X159099Y34309D01*
X159630Y33730D01*
X160209Y33199D01*
X160833Y32720D01*
X161496Y32298D01*
X162193Y31935D01*
X162919Y31635D01*
X163668Y31398D01*
X164436Y31228D01*
X165215Y31126D01*
X166000Y31091D01*
X166785Y31126D01*
X167564Y31228D01*
X168332Y31398D01*
X169081Y31635D01*
X169807Y31935D01*
X170504Y32298D01*
X171167Y32720D01*
X171791Y33199D01*
X172370Y33730D01*
X172901Y34309D01*
X173379Y34933D01*
X173801Y35596D01*
X173895Y35775D01*
X173992Y35752D01*
Y23700D01*
X157000D01*
Y5700D01*
X173992D01*
Y5008D01*
X5008D01*
Y11422D01*
X5108Y11442D01*
X5335Y10893D01*
X5698Y10196D01*
X6120Y9533D01*
X6599Y8909D01*
X7130Y8330D01*
X7709Y7799D01*
X8333Y7321D01*
X8996Y6898D01*
X9693Y6535D01*
X10419Y6235D01*
X11168Y5998D01*
X11936Y5828D01*
X12715Y5726D01*
X13500Y5691D01*
X14285Y5726D01*
X15064Y5828D01*
X15832Y5998D01*
X16581Y6235D01*
X17307Y6535D01*
X18004Y6898D01*
X18667Y7321D01*
X19290Y7799D01*
X19870Y8330D01*
X20401Y8909D01*
X20879Y9533D01*
X21302Y10196D01*
X21664Y10893D01*
X21965Y11619D01*
X22201Y12368D01*
X22372Y13136D01*
X22474Y13915D01*
X22508Y14700D01*
X22474Y15485D01*
X22372Y16264D01*
X22201Y17032D01*
X21965Y17781D01*
X21664Y18507D01*
X21302Y19204D01*
X20879Y19867D01*
X20401Y20491D01*
X19870Y21070D01*
X19290Y21601D01*
X18667Y22079D01*
X18004Y22501D01*
X17307Y22864D01*
X16581Y23165D01*
X15832Y23402D01*
X15064Y23572D01*
X14285Y23674D01*
X13500Y23708D01*
X12715Y23674D01*
X11936Y23572D01*
X11168Y23402D01*
X10419Y23165D01*
X9693Y22864D01*
X8996Y22501D01*
X8333Y22079D01*
X7709Y21601D01*
X7130Y21070D01*
X6599Y20491D01*
X6120Y19867D01*
X5698Y19204D01*
X5335Y18507D01*
X5108Y17958D01*
X5008Y17977D01*
Y36822D01*
X5108Y36842D01*
X5335Y36293D01*
X5698Y35596D01*
X6120Y34933D01*
X6599Y34309D01*
X7130Y33730D01*
X7709Y33199D01*
X8333Y32720D01*
X8996Y32298D01*
X9693Y31935D01*
X10419Y31635D01*
X11168Y31398D01*
X11936Y31228D01*
X12715Y31126D01*
X13500Y31091D01*
X14285Y31126D01*
X15064Y31228D01*
X15832Y31398D01*
X16581Y31635D01*
X17307Y31935D01*
X18004Y32298D01*
X18667Y32720D01*
X19290Y33199D01*
X19870Y33730D01*
X20401Y34309D01*
X20879Y34933D01*
X21302Y35596D01*
X21664Y36293D01*
X21965Y37019D01*
X22201Y37768D01*
X22372Y38536D01*
X22474Y39315D01*
X22508Y40100D01*
X22474Y40885D01*
X22372Y41664D01*
X22201Y42432D01*
X21965Y43181D01*
X21664Y43907D01*
X21302Y44604D01*
X20879Y45267D01*
X20401Y45890D01*
X19870Y46470D01*
X19290Y47001D01*
X18667Y47479D01*
X18004Y47902D01*
X17307Y48264D01*
X16581Y48565D01*
X15832Y48801D01*
X15064Y48972D01*
X14285Y49074D01*
X13500Y49108D01*
X12715Y49074D01*
X11936Y48972D01*
X11168Y48801D01*
X10419Y48565D01*
X9693Y48264D01*
X8996Y47902D01*
X8333Y47479D01*
X7709Y47001D01*
X7130Y46470D01*
X6599Y45890D01*
X6120Y45267D01*
X5698Y44604D01*
X5335Y43907D01*
X5108Y43358D01*
X5008Y43377D01*
Y62222D01*
X5108Y62242D01*
X5335Y61693D01*
X5698Y60996D01*
X6120Y60333D01*
X6599Y59709D01*
X7130Y59130D01*
X7709Y58599D01*
X8333Y58120D01*
X8996Y57698D01*
X9693Y57335D01*
X10419Y57035D01*
X11168Y56798D01*
X11936Y56628D01*
X12715Y56526D01*
X13500Y56491D01*
X14285Y56526D01*
X15064Y56628D01*
X15832Y56798D01*
X16581Y57035D01*
X17307Y57335D01*
X18004Y57698D01*
X18667Y58120D01*
X19290Y58599D01*
X19870Y59130D01*
X20401Y59709D01*
X20879Y60333D01*
X21302Y60996D01*
X21664Y61693D01*
X21965Y62419D01*
X22201Y63168D01*
X22372Y63936D01*
X22474Y64715D01*
X22508Y65500D01*
X22474Y66285D01*
X22372Y67064D01*
X22201Y67832D01*
X21965Y68581D01*
X21664Y69307D01*
X21302Y70004D01*
X20879Y70667D01*
X20401Y71290D01*
X19870Y71870D01*
X19290Y72401D01*
X18667Y72879D01*
X18004Y73302D01*
X17307Y73664D01*
X16581Y73965D01*
X15832Y74201D01*
X15064Y74372D01*
X14285Y74474D01*
X13500Y74508D01*
X12715Y74474D01*
X11936Y74372D01*
X11168Y74201D01*
X10419Y73965D01*
X9693Y73664D01*
X8996Y73302D01*
X8333Y72879D01*
X7709Y72401D01*
X7130Y71870D01*
X6599Y71290D01*
X6120Y70667D01*
X5698Y70004D01*
X5335Y69307D01*
X5108Y68758D01*
X5008Y68777D01*
Y87622D01*
X5108Y87642D01*
X5335Y87093D01*
X5698Y86396D01*
X6120Y85733D01*
X6599Y85109D01*
X7130Y84530D01*
X7709Y83999D01*
X8333Y83520D01*
X8996Y83098D01*
X9693Y82735D01*
X10419Y82435D01*
X11168Y82198D01*
X11936Y82028D01*
X12715Y81926D01*
X13500Y81891D01*
X14285Y81926D01*
X15064Y82028D01*
X15832Y82198D01*
X16581Y82435D01*
X17307Y82735D01*
X18004Y83098D01*
X18667Y83520D01*
X19290Y83999D01*
X19870Y84530D01*
X20401Y85109D01*
X20879Y85733D01*
X21302Y86396D01*
X21664Y87093D01*
X21965Y87819D01*
X22201Y88568D01*
X22372Y89336D01*
X22474Y90115D01*
X22508Y90900D01*
X22474Y91685D01*
X22372Y92464D01*
X22201Y93231D01*
X21965Y93981D01*
X21664Y94707D01*
X21302Y95404D01*
X20879Y96067D01*
X20401Y96691D01*
X19870Y97270D01*
X19290Y97801D01*
X18667Y98279D01*
X18004Y98701D01*
X17307Y99064D01*
X16581Y99365D01*
X15832Y99601D01*
X15064Y99772D01*
X14285Y99874D01*
X13500Y99908D01*
X12715Y99874D01*
X11936Y99772D01*
X11168Y99601D01*
X10419Y99365D01*
X9693Y99064D01*
X8996Y98701D01*
X8333Y98279D01*
X7709Y97801D01*
X7130Y97270D01*
X6599Y96691D01*
X6120Y96067D01*
X5698Y95404D01*
X5335Y94707D01*
X5108Y94158D01*
X5008Y94178D01*
Y113022D01*
X5108Y113042D01*
X5335Y112493D01*
X5698Y111796D01*
X6120Y111133D01*
X6599Y110509D01*
X7130Y109930D01*
X7709Y109399D01*
X8333Y108920D01*
X8996Y108498D01*
X9693Y108135D01*
X10419Y107835D01*
X11168Y107598D01*
X11936Y107428D01*
X12715Y107326D01*
X13500Y107291D01*
X14285Y107326D01*
X15064Y107428D01*
X15832Y107598D01*
X16581Y107835D01*
X17307Y108135D01*
X18004Y108498D01*
X18667Y108920D01*
X19290Y109399D01*
X19870Y109930D01*
X20401Y110509D01*
X20879Y111133D01*
X21302Y111796D01*
X21664Y112493D01*
X21965Y113219D01*
X22201Y113968D01*
X22372Y114736D01*
X22474Y115515D01*
X22508Y116300D01*
X22474Y117085D01*
X22372Y117864D01*
X22201Y118631D01*
X21965Y119381D01*
X21664Y120107D01*
X21302Y120804D01*
X20879Y121467D01*
X20401Y122091D01*
X19870Y122670D01*
X19290Y123201D01*
X18667Y123679D01*
X18004Y124101D01*
X17307Y124464D01*
X16581Y124765D01*
X15832Y125001D01*
X15064Y125172D01*
X14285Y125274D01*
X13500Y125308D01*
X12715Y125274D01*
X11936Y125172D01*
X11168Y125001D01*
X10419Y124765D01*
X9693Y124464D01*
X8996Y124101D01*
X8333Y123679D01*
X7709Y123201D01*
X7130Y122670D01*
X6599Y122091D01*
X6120Y121467D01*
X5698Y120804D01*
X5335Y120107D01*
X5108Y119558D01*
X5008Y119578D01*
Y138422D01*
X5108Y138442D01*
X5335Y137893D01*
X5698Y137196D01*
X6120Y136533D01*
X6599Y135909D01*
X7130Y135330D01*
X7709Y134799D01*
X8333Y134320D01*
X8996Y133898D01*
X9693Y133535D01*
X10419Y133235D01*
X11168Y132998D01*
X11936Y132828D01*
X12715Y132726D01*
X13500Y132691D01*
X14285Y132726D01*
X15064Y132828D01*
X15832Y132998D01*
X16581Y133235D01*
X17307Y133535D01*
X18004Y133898D01*
X18667Y134320D01*
X19290Y134799D01*
X19870Y135330D01*
X20401Y135909D01*
X20879Y136533D01*
X21302Y137196D01*
X21664Y137893D01*
X21965Y138619D01*
X22201Y139368D01*
X22372Y140136D01*
X22474Y140915D01*
X22508Y141700D01*
X22474Y142485D01*
X22372Y143264D01*
X22201Y144031D01*
X21965Y144781D01*
X21664Y145507D01*
X21302Y146204D01*
X20879Y146867D01*
X20401Y147491D01*
X19870Y148070D01*
X19290Y148601D01*
X18667Y149079D01*
X18004Y149501D01*
X17307Y149864D01*
X16581Y150165D01*
X15832Y150401D01*
X15064Y150572D01*
X14285Y150674D01*
X13500Y150708D01*
X12715Y150674D01*
X11936Y150572D01*
X11168Y150401D01*
X10419Y150165D01*
X9693Y149864D01*
X8996Y149501D01*
X8333Y149079D01*
X7709Y148601D01*
X7130Y148070D01*
X6599Y147491D01*
X6120Y146867D01*
X5698Y146204D01*
X5335Y145507D01*
X5108Y144958D01*
X5008Y144978D01*
Y163822D01*
X5108Y163842D01*
X5335Y163293D01*
X5698Y162596D01*
X6120Y161933D01*
X6599Y161309D01*
X7130Y160730D01*
X7709Y160199D01*
X8333Y159720D01*
X8996Y159298D01*
X9693Y158935D01*
X10419Y158635D01*
X11168Y158398D01*
X11936Y158228D01*
X12715Y158126D01*
X13500Y158091D01*
X14285Y158126D01*
X15064Y158228D01*
X15832Y158398D01*
X16581Y158635D01*
X17307Y158935D01*
X18004Y159298D01*
X18667Y159720D01*
X19290Y160199D01*
X19870Y160730D01*
X20401Y161309D01*
X20879Y161933D01*
X21302Y162596D01*
X21664Y163293D01*
X21965Y164019D01*
X22201Y164768D01*
X22372Y165536D01*
X22474Y166315D01*
X22508Y167100D01*
X22474Y167885D01*
X22372Y168664D01*
X22201Y169431D01*
X21965Y170181D01*
X21664Y170907D01*
X21302Y171604D01*
X20879Y172267D01*
X20401Y172890D01*
X19870Y173470D01*
X19290Y174001D01*
X18667Y174479D01*
X18004Y174902D01*
X17307Y175264D01*
X16581Y175565D01*
X15832Y175802D01*
X15064Y175972D01*
X14285Y176074D01*
X13500Y176108D01*
X12715Y176074D01*
X11936Y175972D01*
X11168Y175802D01*
X10419Y175565D01*
X9693Y175264D01*
X8996Y174902D01*
X8333Y174479D01*
X7709Y174001D01*
X7130Y173470D01*
X6599Y172890D01*
X6120Y172267D01*
X5698Y171604D01*
X5335Y170907D01*
X5108Y170358D01*
X5008Y170378D01*
Y189222D01*
X5108Y189242D01*
X5335Y188693D01*
X5698Y187996D01*
X6120Y187333D01*
X6599Y186709D01*
X7130Y186130D01*
X7709Y185599D01*
X8333Y185121D01*
X8996Y184698D01*
X9693Y184335D01*
X10419Y184035D01*
X11168Y183798D01*
X11936Y183628D01*
X12715Y183526D01*
X13500Y183491D01*
X14285Y183526D01*
X15064Y183628D01*
X15832Y183798D01*
X16581Y184035D01*
X17307Y184335D01*
X18004Y184698D01*
X18667Y185121D01*
X19290Y185599D01*
X19870Y186130D01*
X20401Y186709D01*
X20879Y187333D01*
X21302Y187996D01*
X21664Y188693D01*
X21965Y189419D01*
X22201Y190168D01*
X22372Y190936D01*
X22474Y191715D01*
X22508Y192500D01*
X22474Y193285D01*
X22372Y194064D01*
X22201Y194832D01*
X21965Y195581D01*
X21664Y196307D01*
X21302Y197004D01*
X20879Y197667D01*
X20401Y198291D01*
X19870Y198870D01*
X19290Y199401D01*
X18667Y199879D01*
X18004Y200301D01*
X17307Y200664D01*
X16581Y200965D01*
X15832Y201201D01*
X15064Y201372D01*
X14285Y201474D01*
X13500Y201508D01*
X12715Y201474D01*
X11936Y201372D01*
X11168Y201201D01*
X10419Y200965D01*
X9693Y200664D01*
X8996Y200301D01*
X8333Y199879D01*
X7709Y199401D01*
X7130Y198870D01*
X6599Y198291D01*
X6120Y197667D01*
X5698Y197004D01*
X5335Y196307D01*
X5108Y195758D01*
X5008Y195777D01*
Y214622D01*
X5108Y214642D01*
X5335Y214093D01*
X5698Y213396D01*
X6120Y212733D01*
X6599Y212109D01*
X7130Y211530D01*
X7709Y210999D01*
X8333Y210520D01*
X8996Y210098D01*
X9693Y209735D01*
X10419Y209435D01*
X11168Y209198D01*
X11936Y209028D01*
X12715Y208926D01*
X13500Y208891D01*
X14285Y208926D01*
X15064Y209028D01*
X15832Y209198D01*
X16581Y209435D01*
X17307Y209735D01*
X18004Y210098D01*
X18667Y210520D01*
X19290Y210999D01*
X19870Y211530D01*
X20401Y212109D01*
X20879Y212733D01*
X21302Y213396D01*
X21664Y214093D01*
X21965Y214819D01*
X22201Y215568D01*
X22372Y216336D01*
X22474Y217115D01*
X22508Y217900D01*
X22474Y218685D01*
X22372Y219464D01*
X22201Y220231D01*
X21965Y220981D01*
X21664Y221707D01*
X21302Y222404D01*
X20879Y223067D01*
X20401Y223690D01*
X19870Y224270D01*
X19290Y224801D01*
X18667Y225279D01*
X18004Y225702D01*
X17307Y226064D01*
X16581Y226365D01*
X15832Y226602D01*
X15064Y226772D01*
X14285Y226874D01*
X13500Y226908D01*
X12715Y226874D01*
X11936Y226772D01*
X11168Y226602D01*
X10419Y226365D01*
X9693Y226064D01*
X8996Y225702D01*
X8333Y225279D01*
X7709Y224801D01*
X7130Y224270D01*
X6599Y223690D01*
X6120Y223067D01*
X5698Y222404D01*
X5335Y221707D01*
X5108Y221158D01*
X5008Y221178D01*
Y240022D01*
X5108Y240042D01*
X5335Y239493D01*
X5698Y238796D01*
X6120Y238133D01*
X6599Y237509D01*
X7130Y236930D01*
X7709Y236399D01*
X8333Y235921D01*
X8996Y235498D01*
X9693Y235135D01*
X10419Y234835D01*
X11168Y234598D01*
X11936Y234428D01*
X12715Y234326D01*
X13500Y234291D01*
X14285Y234326D01*
X15064Y234428D01*
X15832Y234598D01*
X16581Y234835D01*
X17307Y235135D01*
X18004Y235498D01*
X18667Y235921D01*
X19290Y236399D01*
X19870Y236930D01*
X20401Y237509D01*
X20879Y238133D01*
X21302Y238796D01*
X21664Y239493D01*
X21965Y240219D01*
X22201Y240968D01*
X22372Y241736D01*
X22474Y242515D01*
X22508Y243300D01*
X22474Y244085D01*
X22372Y244864D01*
X22201Y245632D01*
X21965Y246381D01*
X21664Y247107D01*
X21302Y247804D01*
X20879Y248467D01*
X20401Y249090D01*
X19870Y249670D01*
X19290Y250201D01*
X18667Y250679D01*
X18004Y251101D01*
X17307Y251464D01*
X16581Y251765D01*
X15832Y252001D01*
X15064Y252172D01*
X14285Y252274D01*
X13500Y252308D01*
X12715Y252274D01*
X11936Y252172D01*
X11168Y252001D01*
X10419Y251765D01*
X9693Y251464D01*
X8996Y251101D01*
X8333Y250679D01*
X7709Y250201D01*
X7130Y249670D01*
X6599Y249090D01*
X6120Y248467D01*
X5698Y247804D01*
X5335Y247107D01*
X5108Y246558D01*
X5008Y246577D01*
Y265422D01*
X5108Y265442D01*
X5335Y264893D01*
X5698Y264196D01*
X6120Y263533D01*
X6599Y262909D01*
X7130Y262330D01*
X7709Y261799D01*
X8333Y261320D01*
X8996Y260898D01*
X9693Y260535D01*
X10419Y260235D01*
X11168Y259998D01*
X11936Y259828D01*
X12715Y259726D01*
X13500Y259691D01*
X14285Y259726D01*
X15064Y259828D01*
X15832Y259998D01*
X16581Y260235D01*
X17307Y260535D01*
X18004Y260898D01*
X18667Y261320D01*
X19290Y261799D01*
X19870Y262330D01*
X20401Y262909D01*
X20879Y263533D01*
X21302Y264196D01*
X21664Y264893D01*
X21965Y265619D01*
X22201Y266368D01*
X22372Y267136D01*
X22474Y267915D01*
X22508Y268700D01*
X22474Y269485D01*
X22372Y270264D01*
X22201Y271031D01*
X21965Y271781D01*
X21664Y272507D01*
X21302Y273204D01*
X20879Y273867D01*
X20401Y274491D01*
X19870Y275070D01*
X19290Y275601D01*
X18667Y276079D01*
X18004Y276502D01*
X17307Y276864D01*
X16581Y277165D01*
X15832Y277402D01*
X15064Y277572D01*
X14285Y277674D01*
X13500Y277708D01*
X12715Y277674D01*
X11936Y277572D01*
X11168Y277402D01*
X10419Y277165D01*
X9693Y276864D01*
X8996Y276502D01*
X8333Y276079D01*
X7709Y275601D01*
X7130Y275070D01*
X6599Y274491D01*
X6120Y273867D01*
X5698Y273204D01*
X5335Y272507D01*
X5108Y271958D01*
X5008Y271978D01*
Y289629D01*
X5105Y289653D01*
X5265Y289345D01*
X5710Y288646D01*
X6216Y287988D01*
X6776Y287376D01*
X7388Y286815D01*
X8046Y286311D01*
X8745Y285865D01*
X9481Y285482D01*
X10248Y285164D01*
X11039Y284915D01*
X11849Y284735D01*
X12500Y284650D01*
Y294100D01*
Y303550D01*
X11849Y303464D01*
X11039Y303285D01*
X10248Y303035D01*
X9481Y302718D01*
X8745Y302335D01*
X8046Y301889D01*
X7388Y301384D01*
X6776Y300824D01*
X6216Y300212D01*
X5710Y299554D01*
X5265Y298854D01*
X5105Y298547D01*
X5008Y298571D01*
Y316222D01*
X5108Y316242D01*
X5335Y315693D01*
X5698Y314996D01*
X6120Y314333D01*
X6599Y313709D01*
X7130Y313130D01*
X7709Y312599D01*
X8333Y312120D01*
X8996Y311698D01*
X9693Y311335D01*
X10419Y311035D01*
X11168Y310798D01*
X11936Y310628D01*
X12715Y310526D01*
X13500Y310491D01*
X14285Y310526D01*
X15064Y310628D01*
X15832Y310798D01*
X16581Y311035D01*
X17307Y311335D01*
X18004Y311698D01*
X18667Y312120D01*
X19290Y312599D01*
X19870Y313130D01*
X20401Y313709D01*
X20879Y314333D01*
X21302Y314996D01*
X21664Y315693D01*
X21965Y316419D01*
X22201Y317168D01*
X22372Y317936D01*
X22474Y318715D01*
X22508Y319500D01*
X22474Y320285D01*
X22372Y321064D01*
X22201Y321832D01*
X21965Y322581D01*
X21664Y323307D01*
X21302Y324004D01*
X20879Y324667D01*
X20401Y325290D01*
X19870Y325870D01*
X19290Y326401D01*
X18667Y326879D01*
X18004Y327301D01*
X17307Y327664D01*
X16581Y327965D01*
X15832Y328201D01*
X15064Y328372D01*
X14285Y328474D01*
X13500Y328508D01*
X12715Y328474D01*
X11936Y328372D01*
X11168Y328201D01*
X10419Y327965D01*
X9693Y327664D01*
X8996Y327301D01*
X8333Y326879D01*
X7709Y326401D01*
X7130Y325870D01*
X6599Y325290D01*
X6120Y324667D01*
X5698Y324004D01*
X5335Y323307D01*
X5108Y322758D01*
X5008Y322777D01*
Y341622D01*
X5108Y341642D01*
X5335Y341093D01*
X5698Y340396D01*
X6120Y339733D01*
X6599Y339109D01*
X7130Y338530D01*
X7709Y337999D01*
X8333Y337520D01*
X8996Y337098D01*
X9693Y336735D01*
X10419Y336435D01*
X11168Y336198D01*
X11936Y336028D01*
X12715Y335926D01*
X13500Y335891D01*
X14285Y335926D01*
X15064Y336028D01*
X15832Y336198D01*
X16581Y336435D01*
X17307Y336735D01*
X18004Y337098D01*
X18667Y337520D01*
X19290Y337999D01*
X19870Y338530D01*
X20401Y339109D01*
X20879Y339733D01*
X21302Y340396D01*
X21664Y341093D01*
X21965Y341819D01*
X22201Y342568D01*
X22372Y343336D01*
X22474Y344115D01*
X22508Y344900D01*
X22474Y345685D01*
X22372Y346464D01*
X22201Y347231D01*
X21965Y347981D01*
X21664Y348707D01*
X21302Y349404D01*
X20879Y350067D01*
X20401Y350690D01*
X19870Y351270D01*
X19290Y351801D01*
X18667Y352279D01*
X18004Y352701D01*
X17307Y353064D01*
X16581Y353365D01*
X15832Y353601D01*
X15064Y353772D01*
X14285Y353874D01*
X13500Y353908D01*
X12715Y353874D01*
X11936Y353772D01*
X11168Y353601D01*
X10419Y353365D01*
X9693Y353064D01*
X8996Y352701D01*
X8333Y352279D01*
X7709Y351801D01*
X7130Y351270D01*
X6599Y350690D01*
X6120Y350067D01*
X5698Y349404D01*
X5335Y348707D01*
X5108Y348158D01*
X5008Y348177D01*
Y367022D01*
X5108Y367042D01*
X5335Y366493D01*
X5698Y365796D01*
X6120Y365133D01*
X6599Y364509D01*
X7130Y363930D01*
X7709Y363399D01*
X8333Y362920D01*
X8996Y362498D01*
X9693Y362135D01*
X10419Y361835D01*
X11168Y361598D01*
X11936Y361428D01*
X12715Y361326D01*
X13500Y361291D01*
X14285Y361326D01*
X15064Y361428D01*
X15832Y361598D01*
X16581Y361835D01*
X17307Y362135D01*
X18004Y362498D01*
X18667Y362920D01*
X19290Y363399D01*
X19870Y363930D01*
X20401Y364509D01*
X20879Y365133D01*
X21302Y365796D01*
X21664Y366493D01*
X21965Y367219D01*
X22201Y367968D01*
X22372Y368736D01*
X22474Y369515D01*
X22508Y370300D01*
X22474Y371085D01*
X22372Y371864D01*
X22201Y372631D01*
X21965Y373381D01*
X21664Y374107D01*
X21302Y374804D01*
X20879Y375467D01*
X20401Y376091D01*
X19870Y376670D01*
X19290Y377201D01*
X18667Y377679D01*
X18004Y378102D01*
X17307Y378464D01*
X16581Y378765D01*
X15832Y379002D01*
X15064Y379172D01*
X14285Y379274D01*
X13500Y379308D01*
X12715Y379274D01*
X11936Y379172D01*
X11168Y379002D01*
X10419Y378765D01*
X9693Y378464D01*
X8996Y378102D01*
X8333Y377679D01*
X7709Y377201D01*
X7130Y376670D01*
X6599Y376091D01*
X6120Y375467D01*
X5698Y374804D01*
X5335Y374107D01*
X5108Y373558D01*
X5008Y373577D01*
Y392422D01*
X5108Y392442D01*
X5335Y391893D01*
X5698Y391196D01*
X6120Y390533D01*
X6599Y389909D01*
X7130Y389330D01*
X7709Y388799D01*
X8333Y388321D01*
X8996Y387898D01*
X9693Y387535D01*
X10419Y387235D01*
X11168Y386998D01*
X11936Y386828D01*
X12715Y386726D01*
X13500Y386691D01*
X14285Y386726D01*
X15064Y386828D01*
X15832Y386998D01*
X16581Y387235D01*
X17307Y387535D01*
X18004Y387898D01*
X18667Y388321D01*
X19290Y388799D01*
X19870Y389330D01*
X20401Y389909D01*
X20879Y390533D01*
X21302Y391196D01*
X21664Y391893D01*
X21965Y392619D01*
X22201Y393368D01*
X22372Y394136D01*
X22474Y394915D01*
X22508Y395700D01*
X22474Y396485D01*
X22372Y397264D01*
X22201Y398032D01*
X21965Y398781D01*
X21664Y399507D01*
X21302Y400204D01*
X20879Y400867D01*
X20401Y401491D01*
X19870Y402070D01*
X19290Y402601D01*
X18667Y403079D01*
X18004Y403502D01*
X17307Y403864D01*
X16581Y404165D01*
X15832Y404402D01*
X15064Y404572D01*
X14285Y404674D01*
X13500Y404708D01*
X12715Y404674D01*
X11936Y404572D01*
X11168Y404402D01*
X10419Y404165D01*
X9693Y403864D01*
X8996Y403502D01*
X8333Y403079D01*
X7709Y402601D01*
X7130Y402070D01*
X6599Y401491D01*
X6120Y400867D01*
X5698Y400204D01*
X5335Y399507D01*
X5108Y398958D01*
X5008Y398978D01*
Y417822D01*
X5108Y417842D01*
X5335Y417293D01*
X5698Y416596D01*
X6120Y415933D01*
X6599Y415309D01*
X7130Y414730D01*
X7709Y414199D01*
X8333Y413721D01*
X8996Y413298D01*
X9693Y412935D01*
X10419Y412635D01*
X11168Y412398D01*
X11936Y412228D01*
X12715Y412126D01*
X13500Y412091D01*
X14285Y412126D01*
X15064Y412228D01*
X15832Y412398D01*
X16581Y412635D01*
X17307Y412935D01*
X18004Y413298D01*
X18667Y413721D01*
X19290Y414199D01*
X19870Y414730D01*
X20401Y415309D01*
X20879Y415933D01*
X21302Y416596D01*
X21664Y417293D01*
X21965Y418019D01*
X22201Y418768D01*
X22372Y419536D01*
X22474Y420315D01*
X22508Y421100D01*
X22474Y421885D01*
X22372Y422664D01*
X22201Y423432D01*
X21965Y424181D01*
X21664Y424907D01*
X21302Y425604D01*
X20879Y426267D01*
X20401Y426890D01*
X19870Y427470D01*
X19290Y428001D01*
X18667Y428479D01*
X18004Y428901D01*
X17307Y429264D01*
X16581Y429565D01*
X15832Y429801D01*
X15064Y429972D01*
X14285Y430074D01*
X13500Y430108D01*
X12715Y430074D01*
X11936Y429972D01*
X11168Y429801D01*
X10419Y429565D01*
X9693Y429264D01*
X8996Y428901D01*
X8333Y428479D01*
X7709Y428001D01*
X7130Y427470D01*
X6599Y426890D01*
X6120Y426267D01*
X5698Y425604D01*
X5335Y424907D01*
X5108Y424358D01*
X5008Y424378D01*
Y443222D01*
X5108Y443242D01*
X5335Y442693D01*
X5698Y441996D01*
X6120Y441333D01*
X6599Y440709D01*
X7130Y440130D01*
X7709Y439599D01*
X8333Y439120D01*
X8996Y438698D01*
X9693Y438335D01*
X10419Y438035D01*
X11168Y437798D01*
X11936Y437628D01*
X12715Y437526D01*
X13500Y437491D01*
X14285Y437526D01*
X15064Y437628D01*
X15832Y437798D01*
X16581Y438035D01*
X17307Y438335D01*
X18004Y438698D01*
X18667Y439120D01*
X19290Y439599D01*
X19870Y440130D01*
X20401Y440709D01*
X20879Y441333D01*
X21302Y441996D01*
X21664Y442693D01*
X21965Y443419D01*
X22201Y444168D01*
X22372Y444936D01*
X22474Y445715D01*
X22508Y446500D01*
X22474Y447285D01*
X22372Y448064D01*
X22201Y448831D01*
X21965Y449581D01*
X21664Y450307D01*
X21302Y451004D01*
X20879Y451667D01*
X20401Y452290D01*
X19870Y452870D01*
X19290Y453401D01*
X18667Y453879D01*
X18004Y454301D01*
X17307Y454664D01*
X16581Y454965D01*
X15832Y455201D01*
X15064Y455372D01*
X14285Y455474D01*
X13500Y455508D01*
X12715Y455474D01*
X11936Y455372D01*
X11168Y455201D01*
X10419Y454965D01*
X9693Y454664D01*
X8996Y454301D01*
X8333Y453879D01*
X7709Y453401D01*
X7130Y452870D01*
X6599Y452290D01*
X6120Y451667D01*
X5698Y451004D01*
X5335Y450307D01*
X5108Y449758D01*
X5008Y449777D01*
Y468622D01*
X5108Y468642D01*
X5335Y468093D01*
X5698Y467396D01*
X6120Y466733D01*
X6599Y466109D01*
X7130Y465530D01*
X7709Y464999D01*
X8333Y464520D01*
X8996Y464098D01*
X9693Y463735D01*
X10419Y463435D01*
X11168Y463198D01*
X11936Y463028D01*
X12715Y462926D01*
X13500Y462891D01*
X14285Y462926D01*
X15064Y463028D01*
X15832Y463198D01*
X16581Y463435D01*
X17307Y463735D01*
X18004Y464098D01*
X18667Y464520D01*
X19290Y464999D01*
X19870Y465530D01*
X20401Y466109D01*
X20879Y466733D01*
X21302Y467396D01*
X21664Y468093D01*
X21965Y468819D01*
X22201Y469568D01*
X22372Y470336D01*
X22474Y471115D01*
X22508Y471900D01*
X22474Y472685D01*
X22372Y473464D01*
X22201Y474231D01*
X21965Y474981D01*
X21664Y475707D01*
X21302Y476404D01*
X20879Y477067D01*
X20401Y477691D01*
X19870Y478270D01*
X19290Y478801D01*
X18667Y479279D01*
X18004Y479701D01*
X17307Y480064D01*
X16581Y480365D01*
X15832Y480602D01*
X15064Y480772D01*
X14285Y480874D01*
X13500Y480908D01*
X12715Y480874D01*
X11936Y480772D01*
X11168Y480602D01*
X10419Y480365D01*
X9693Y480064D01*
X8996Y479701D01*
X8333Y479279D01*
X7709Y478801D01*
X7130Y478270D01*
X6599Y477691D01*
X6120Y477067D01*
X5698Y476404D01*
X5335Y475707D01*
X5108Y475158D01*
X5008Y475177D01*
Y488300D01*
X22500D01*
Y504992D01*
X33264D01*
X33296Y504897D01*
X32888Y504584D01*
X32276Y504024D01*
X31716Y503412D01*
X31210Y502754D01*
X30765Y502054D01*
X30382Y501319D01*
X30064Y500552D01*
X29815Y499761D01*
X29635Y498951D01*
X29550Y498300D01*
X48450D01*
X48364Y498951D01*
X48185Y499761D01*
X47935Y500552D01*
X47618Y501319D01*
X47235Y502054D01*
X46789Y502754D01*
X46284Y503412D01*
X45724Y504024D01*
X45112Y504584D01*
X44704Y504897D01*
X44736Y504992D01*
X59545D01*
X59573Y504896D01*
X59233Y504679D01*
X58609Y504201D01*
X58030Y503670D01*
X57499Y503091D01*
X57021Y502467D01*
X56598Y501804D01*
X56235Y501107D01*
X55935Y500381D01*
X55698Y499632D01*
X55528Y498864D01*
X55426Y498085D01*
X55391Y497300D01*
X55426Y496515D01*
X55528Y495736D01*
X55698Y494968D01*
X55935Y494219D01*
X56235Y493493D01*
X56598Y492796D01*
X57021Y492133D01*
X57499Y491509D01*
X58030Y490930D01*
X58609Y490399D01*
X59233Y489921D01*
X59896Y489498D01*
X60593Y489135D01*
X61319Y488835D01*
X62068Y488598D01*
X62836Y488428D01*
X63615Y488326D01*
X64400Y488291D01*
X65185Y488326D01*
X65964Y488428D01*
X66732Y488598D01*
X67481Y488835D01*
X68207Y489135D01*
X68904Y489498D01*
X69567Y489921D01*
X70191Y490399D01*
X70770Y490930D01*
X71301Y491509D01*
X71779Y492133D01*
X72201Y492796D01*
X72564Y493493D01*
X72865Y494219D01*
X73102Y494968D01*
X73272Y495736D01*
X73374Y496515D01*
X73408Y497300D01*
X73374Y498085D01*
X73272Y498864D01*
X73102Y499632D01*
X72865Y500381D01*
X72564Y501107D01*
X72201Y501804D01*
X71779Y502467D01*
X71301Y503091D01*
X70770Y503670D01*
X70191Y504201D01*
X69567Y504679D01*
X69226Y504896D01*
X69254Y504992D01*
X84945D01*
X84973Y504896D01*
X84633Y504679D01*
X84009Y504201D01*
X83430Y503670D01*
X82899Y503091D01*
X82421Y502467D01*
X81998Y501804D01*
X81635Y501107D01*
X81335Y500381D01*
X81098Y499632D01*
X80928Y498864D01*
X80826Y498085D01*
X80791Y497300D01*
X80826Y496515D01*
X80928Y495736D01*
X81098Y494968D01*
X81335Y494219D01*
X81635Y493493D01*
X81998Y492796D01*
X82421Y492133D01*
X82899Y491509D01*
X83430Y490930D01*
X84009Y490399D01*
X84633Y489921D01*
X85296Y489498D01*
X85993Y489135D01*
X86719Y488835D01*
X87468Y488598D01*
X88236Y488428D01*
X89015Y488326D01*
X89800Y488291D01*
X90585Y488326D01*
X91364Y488428D01*
X92132Y488598D01*
X92881Y488835D01*
X93607Y489135D01*
X94304Y489498D01*
X94967Y489921D01*
X95590Y490399D01*
X96170Y490930D01*
X96701Y491509D01*
X97179Y492133D01*
X97601Y492796D01*
X97964Y493493D01*
X98265Y494219D01*
X98502Y494968D01*
X98672Y495736D01*
X98774Y496515D01*
X98808Y497300D01*
X98774Y498085D01*
X98672Y498864D01*
X98502Y499632D01*
X98265Y500381D01*
X97964Y501107D01*
X97601Y501804D01*
X97179Y502467D01*
X96701Y503091D01*
X96170Y503670D01*
X95590Y504201D01*
X94967Y504679D01*
X94627Y504896D01*
X94655Y504992D01*
X110345D01*
X110373Y504896D01*
X110033Y504679D01*
X109409Y504201D01*
X108830Y503670D01*
X108299Y503091D01*
X107821Y502467D01*
X107398Y501804D01*
X107035Y501107D01*
X106735Y500381D01*
X106498Y499632D01*
X106328Y498864D01*
X106226Y498085D01*
X106191Y497300D01*
X106226Y496515D01*
X106328Y495736D01*
X106498Y494968D01*
X106735Y494219D01*
X107035Y493493D01*
X107398Y492796D01*
X107821Y492133D01*
X108299Y491509D01*
X108830Y490930D01*
X109409Y490399D01*
X110033Y489921D01*
X110696Y489498D01*
X111393Y489135D01*
X112119Y488835D01*
X112868Y488598D01*
X113636Y488428D01*
X114415Y488326D01*
X115200Y488291D01*
X115985Y488326D01*
X116764Y488428D01*
X117531Y488598D01*
X118281Y488835D01*
X119007Y489135D01*
X119704Y489498D01*
X120367Y489921D01*
X120990Y490399D01*
X121570Y490930D01*
X122101Y491509D01*
X122579Y492133D01*
X123001Y492796D01*
X123364Y493493D01*
X123665Y494219D01*
X123902Y494968D01*
X124072Y495736D01*
X124174Y496515D01*
X124208Y497300D01*
X124174Y498085D01*
X124072Y498864D01*
X123902Y499632D01*
X123665Y500381D01*
X123364Y501107D01*
X123001Y501804D01*
X122579Y502467D01*
X122101Y503091D01*
X121570Y503670D01*
X120990Y504201D01*
X120367Y504679D01*
X120027Y504896D01*
X120055Y504992D01*
X134864D01*
X134896Y504897D01*
X134488Y504584D01*
X133876Y504024D01*
X133315Y503412D01*
X132810Y502754D01*
X132365Y502054D01*
X131982Y501319D01*
X131664Y500552D01*
X131415Y499761D01*
X131235Y498951D01*
X131150Y498300D01*
X150050D01*
X149964Y498951D01*
X149785Y499761D01*
X149535Y500552D01*
X149218Y501319D01*
X148835Y502054D01*
X148389Y502754D01*
X147884Y503412D01*
X147324Y504024D01*
X146712Y504584D01*
X146304Y504897D01*
X146336Y504992D01*
X161145D01*
X161173Y504896D01*
D02*
G37*
%LPC*%
G36*
X52350Y107409D02*
X51903Y107374D01*
X51467Y107269D01*
X51052Y107097D01*
X50670Y106863D01*
X50328Y106572D01*
X50037Y106230D01*
X49803Y105848D01*
X49631Y105433D01*
X49526Y104997D01*
X49491Y104550D01*
X49526Y104103D01*
X49631Y103667D01*
X49803Y103252D01*
X50037Y102870D01*
X50328Y102528D01*
X50670Y102237D01*
X51052Y102003D01*
X51467Y101831D01*
X51903Y101726D01*
X52350Y101691D01*
X52797Y101726D01*
X53233Y101831D01*
X53648Y102003D01*
X54030Y102237D01*
X54372Y102528D01*
X54663Y102870D01*
X54897Y103252D01*
X55069Y103667D01*
X55174Y104103D01*
X55209Y104550D01*
X55174Y104997D01*
X55069Y105433D01*
X54897Y105848D01*
X54663Y106230D01*
X54372Y106572D01*
X54030Y106863D01*
X53648Y107097D01*
X53233Y107269D01*
X52797Y107374D01*
X52350Y107409D01*
D02*
G37*
G36*
X84200Y107559D02*
X83753Y107523D01*
X83316Y107419D01*
X82902Y107247D01*
X82520Y107013D01*
X82178Y106721D01*
X81887Y106380D01*
X81653Y105998D01*
X81481Y105583D01*
X81376Y105147D01*
X81341Y104700D01*
X81376Y104253D01*
X81481Y103816D01*
X81653Y103402D01*
X81887Y103020D01*
X82178Y102678D01*
X82520Y102387D01*
X82902Y102153D01*
X83316Y101981D01*
X83753Y101876D01*
X84200Y101841D01*
X84647Y101876D01*
X85083Y101981D01*
X85498Y102153D01*
X85880Y102387D01*
X86221Y102678D01*
X86513Y103020D01*
X86747Y103402D01*
X86919Y103816D01*
X87023Y104253D01*
X87059Y104700D01*
X87023Y105147D01*
X86919Y105583D01*
X86747Y105998D01*
X86513Y106380D01*
X86221Y106721D01*
X85880Y107013D01*
X85498Y107247D01*
X85083Y107419D01*
X84647Y107523D01*
X84200Y107559D01*
D02*
G37*
G36*
X134800Y105159D02*
X134353Y105124D01*
X133916Y105019D01*
X133502Y104847D01*
X133119Y104613D01*
X132778Y104321D01*
X132487Y103980D01*
X132253Y103598D01*
X132081Y103183D01*
X131976Y102747D01*
X131941Y102300D01*
X131976Y101853D01*
X132081Y101417D01*
X132253Y101002D01*
X132487Y100620D01*
X132778Y100279D01*
X133119Y99987D01*
X133502Y99753D01*
X133916Y99581D01*
X134353Y99476D01*
X134800Y99441D01*
X135247Y99476D01*
X135683Y99581D01*
X136098Y99753D01*
X136480Y99987D01*
X136821Y100279D01*
X137113Y100620D01*
X137347Y101002D01*
X137519Y101417D01*
X137623Y101853D01*
X137659Y102300D01*
X137623Y102747D01*
X137519Y103183D01*
X137347Y103598D01*
X137113Y103980D01*
X136821Y104321D01*
X136480Y104613D01*
X136098Y104847D01*
X135683Y105019D01*
X135247Y105124D01*
X134800Y105159D01*
D02*
G37*
G36*
X59200Y106659D02*
X58753Y106624D01*
X58317Y106519D01*
X57902Y106347D01*
X57520Y106113D01*
X57179Y105822D01*
X56887Y105480D01*
X56653Y105098D01*
X56481Y104684D01*
X56376Y104247D01*
X56341Y103800D01*
X56376Y103353D01*
X56481Y102917D01*
X56653Y102502D01*
X56887Y102120D01*
X57179Y101779D01*
X57520Y101487D01*
X57902Y101253D01*
X58317Y101081D01*
X58753Y100976D01*
X59200Y100941D01*
X59647Y100976D01*
X60083Y101081D01*
X60498Y101253D01*
X60880Y101487D01*
X61221Y101779D01*
X61389Y101975D01*
X61488Y101959D01*
X61553Y101802D01*
X61787Y101420D01*
X62078Y101079D01*
X62420Y100787D01*
X62802Y100553D01*
X63217Y100381D01*
X63653Y100276D01*
X64100Y100241D01*
X64547Y100276D01*
X64983Y100381D01*
X65398Y100553D01*
X65780Y100787D01*
X66121Y101079D01*
X66413Y101420D01*
X66647Y101802D01*
X66819Y102217D01*
X66923Y102653D01*
X66959Y103100D01*
X66923Y103547D01*
X66819Y103983D01*
X66647Y104398D01*
X66413Y104780D01*
X66121Y105121D01*
X65780Y105413D01*
X65398Y105647D01*
X64983Y105819D01*
X64547Y105924D01*
X64100Y105959D01*
X63653Y105924D01*
X63217Y105819D01*
X62802Y105647D01*
X62420Y105413D01*
X62078Y105121D01*
X61911Y104925D01*
X61812Y104941D01*
X61747Y105098D01*
X61513Y105480D01*
X61221Y105822D01*
X60880Y106113D01*
X60498Y106347D01*
X60083Y106519D01*
X59647Y106624D01*
X59200Y106659D01*
D02*
G37*
G36*
X140200Y107559D02*
X139753Y107523D01*
X139317Y107419D01*
X138902Y107247D01*
X138520Y107013D01*
X138178Y106721D01*
X137887Y106380D01*
X137653Y105998D01*
X137481Y105583D01*
X137376Y105147D01*
X137341Y104700D01*
X137376Y104253D01*
X137481Y103816D01*
X137653Y103402D01*
X137887Y103020D01*
X138178Y102678D01*
X138520Y102387D01*
X138902Y102153D01*
X139317Y101981D01*
X139753Y101876D01*
X140200Y101841D01*
X140647Y101876D01*
X141083Y101981D01*
X141498Y102153D01*
X141880Y102387D01*
X142221Y102678D01*
X142513Y103020D01*
X142747Y103402D01*
X142919Y103816D01*
X143024Y104253D01*
X143059Y104700D01*
X143024Y105147D01*
X142919Y105583D01*
X142747Y105998D01*
X142513Y106380D01*
X142221Y106721D01*
X141880Y107013D01*
X141498Y107247D01*
X141083Y107419D01*
X140647Y107523D01*
X140200Y107559D01*
D02*
G37*
G36*
X76300Y113059D02*
X75853Y113024D01*
X75416Y112919D01*
X75002Y112747D01*
X74620Y112513D01*
X74278Y112221D01*
X73987Y111880D01*
X73753Y111498D01*
X73581Y111083D01*
X73476Y110647D01*
X73441Y110200D01*
X73476Y109753D01*
X73581Y109317D01*
X73753Y108902D01*
X73987Y108520D01*
X74278Y108179D01*
X74620Y107887D01*
X75002Y107653D01*
X75416Y107481D01*
X75853Y107376D01*
X76300Y107341D01*
X76747Y107376D01*
X77183Y107481D01*
X77598Y107653D01*
X77980Y107887D01*
X78321Y108179D01*
X78613Y108520D01*
X78847Y108902D01*
X79019Y109317D01*
X79124Y109753D01*
X79159Y110200D01*
X79124Y110647D01*
X79019Y111083D01*
X78847Y111498D01*
X78613Y111880D01*
X78321Y112221D01*
X77980Y112513D01*
X77598Y112747D01*
X77183Y112919D01*
X76747Y113024D01*
X76300Y113059D01*
D02*
G37*
G36*
X86800Y113159D02*
X86353Y113124D01*
X85916Y113019D01*
X85502Y112847D01*
X85119Y112613D01*
X84778Y112322D01*
X84487Y111980D01*
X84253Y111598D01*
X84081Y111183D01*
X83976Y110747D01*
X83941Y110300D01*
X83976Y109853D01*
X84081Y109417D01*
X84253Y109002D01*
X84487Y108620D01*
X84778Y108279D01*
X85119Y107987D01*
X85502Y107753D01*
X85916Y107581D01*
X86353Y107476D01*
X86800Y107441D01*
X87247Y107476D01*
X87683Y107581D01*
X88098Y107753D01*
X88480Y107987D01*
X88821Y108279D01*
X89113Y108620D01*
X89347Y109002D01*
X89519Y109417D01*
X89623Y109853D01*
X89659Y110300D01*
X89623Y110747D01*
X89519Y111183D01*
X89347Y111598D01*
X89113Y111980D01*
X88821Y112322D01*
X88480Y112613D01*
X88098Y112847D01*
X87683Y113019D01*
X87247Y113124D01*
X86800Y113159D01*
D02*
G37*
G36*
X148200Y107559D02*
X147753Y107523D01*
X147317Y107419D01*
X146902Y107247D01*
X146520Y107013D01*
X146178Y106721D01*
X145887Y106380D01*
X145653Y105998D01*
X145481Y105583D01*
X145376Y105147D01*
X145341Y104700D01*
X145376Y104253D01*
X145481Y103816D01*
X145653Y103402D01*
X145887Y103020D01*
X146178Y102678D01*
X146520Y102387D01*
X146902Y102153D01*
X147317Y101981D01*
X147753Y101876D01*
X148200Y101841D01*
X148647Y101876D01*
X149083Y101981D01*
X149498Y102153D01*
X149880Y102387D01*
X150221Y102678D01*
X150513Y103020D01*
X150747Y103402D01*
X150919Y103816D01*
X151024Y104253D01*
X151059Y104700D01*
X151024Y105147D01*
X150919Y105583D01*
X150747Y105998D01*
X150513Y106380D01*
X150221Y106721D01*
X149880Y107013D01*
X149498Y107247D01*
X149083Y107419D01*
X148647Y107523D01*
X148200Y107559D01*
D02*
G37*
G36*
X44200Y107559D02*
X43753Y107524D01*
X43317Y107419D01*
X42902Y107247D01*
X42520Y107013D01*
X42179Y106721D01*
X41887Y106380D01*
X41653Y105998D01*
X41481Y105583D01*
X41376Y105147D01*
X41341Y104700D01*
X41376Y104253D01*
X41481Y103817D01*
X41653Y103402D01*
X41887Y103020D01*
X42179Y102678D01*
X42520Y102387D01*
X42902Y102153D01*
X43317Y101981D01*
X43753Y101876D01*
X44200Y101841D01*
X44647Y101876D01*
X45083Y101981D01*
X45498Y102153D01*
X45880Y102387D01*
X46221Y102678D01*
X46513Y103020D01*
X46747Y103402D01*
X46919Y103817D01*
X47024Y104253D01*
X47059Y104700D01*
X47024Y105147D01*
X46919Y105583D01*
X46747Y105998D01*
X46513Y106380D01*
X46221Y106721D01*
X45880Y107013D01*
X45498Y107247D01*
X45083Y107419D01*
X44647Y107524D01*
X44200Y107559D01*
D02*
G37*
G36*
X92300Y97059D02*
X91853Y97024D01*
X91417Y96919D01*
X91002Y96747D01*
X90620Y96513D01*
X90278Y96222D01*
X89987Y95880D01*
X89753Y95498D01*
X89581Y95083D01*
X89476Y94647D01*
X89441Y94200D01*
X89476Y93753D01*
X89581Y93317D01*
X89753Y92902D01*
X89987Y92520D01*
X90278Y92178D01*
X90620Y91887D01*
X91002Y91653D01*
X91417Y91481D01*
X91853Y91376D01*
X92300Y91341D01*
X92747Y91376D01*
X93183Y91481D01*
X93598Y91653D01*
X93980Y91887D01*
X94321Y92178D01*
X94613Y92520D01*
X94847Y92902D01*
X95019Y93317D01*
X95124Y93753D01*
X95159Y94200D01*
X95124Y94647D01*
X95019Y95083D01*
X94847Y95498D01*
X94613Y95880D01*
X94321Y96222D01*
X93980Y96513D01*
X93598Y96747D01*
X93183Y96919D01*
X92747Y97024D01*
X92300Y97059D01*
D02*
G37*
G36*
X116300D02*
X115853Y97024D01*
X115416Y96919D01*
X115002Y96747D01*
X114620Y96513D01*
X114278Y96222D01*
X113987Y95880D01*
X113753Y95498D01*
X113581Y95083D01*
X113476Y94647D01*
X113441Y94200D01*
X113476Y93753D01*
X113581Y93317D01*
X113753Y92902D01*
X113987Y92520D01*
X114278Y92178D01*
X114620Y91887D01*
X115002Y91653D01*
X115416Y91481D01*
X115853Y91376D01*
X116300Y91341D01*
X116747Y91376D01*
X117183Y91481D01*
X117598Y91653D01*
X117980Y91887D01*
X118321Y92178D01*
X118613Y92520D01*
X118847Y92902D01*
X119019Y93317D01*
X119123Y93753D01*
X119159Y94200D01*
X119123Y94647D01*
X119019Y95083D01*
X118847Y95498D01*
X118613Y95880D01*
X118321Y96222D01*
X117980Y96513D01*
X117598Y96747D01*
X117183Y96919D01*
X116747Y97024D01*
X116300Y97059D01*
D02*
G37*
G36*
X76200D02*
X75753Y97024D01*
X75317Y96919D01*
X74902Y96747D01*
X74520Y96513D01*
X74178Y96222D01*
X73887Y95880D01*
X73653Y95498D01*
X73481Y95083D01*
X73376Y94647D01*
X73341Y94200D01*
X73376Y93753D01*
X73481Y93317D01*
X73653Y92902D01*
X73887Y92520D01*
X74178Y92178D01*
X74520Y91887D01*
X74902Y91653D01*
X75317Y91481D01*
X75753Y91376D01*
X76200Y91341D01*
X76647Y91376D01*
X77083Y91481D01*
X77498Y91653D01*
X77880Y91887D01*
X78221Y92178D01*
X78513Y92520D01*
X78747Y92902D01*
X78919Y93317D01*
X79023Y93753D01*
X79059Y94200D01*
X79023Y94647D01*
X78919Y95083D01*
X78747Y95498D01*
X78513Y95880D01*
X78221Y96222D01*
X77880Y96513D01*
X77498Y96747D01*
X77083Y96919D01*
X76647Y97024D01*
X76200Y97059D01*
D02*
G37*
G36*
X84300D02*
X83853Y97024D01*
X83417Y96919D01*
X83002Y96747D01*
X82620Y96513D01*
X82278Y96222D01*
X81987Y95880D01*
X81753Y95498D01*
X81581Y95083D01*
X81476Y94647D01*
X81441Y94200D01*
X81476Y93753D01*
X81581Y93317D01*
X81753Y92902D01*
X81987Y92520D01*
X82278Y92178D01*
X82620Y91887D01*
X83002Y91653D01*
X83417Y91481D01*
X83853Y91376D01*
X84300Y91341D01*
X84747Y91376D01*
X85183Y91481D01*
X85598Y91653D01*
X85980Y91887D01*
X86321Y92178D01*
X86613Y92520D01*
X86847Y92902D01*
X87019Y93317D01*
X87123Y93753D01*
X87159Y94200D01*
X87123Y94647D01*
X87019Y95083D01*
X86847Y95498D01*
X86613Y95880D01*
X86321Y96222D01*
X85980Y96513D01*
X85598Y96747D01*
X85183Y96919D01*
X84747Y97024D01*
X84300Y97059D01*
D02*
G37*
G36*
X148200Y99559D02*
X147753Y99523D01*
X147317Y99419D01*
X146902Y99247D01*
X146520Y99013D01*
X146178Y98721D01*
X145887Y98380D01*
X145653Y97998D01*
X145481Y97583D01*
X145376Y97147D01*
X145341Y96700D01*
X145376Y96253D01*
X145481Y95816D01*
X145653Y95402D01*
X145887Y95020D01*
X146178Y94678D01*
X146520Y94387D01*
X146902Y94153D01*
X147317Y93981D01*
X147753Y93876D01*
X148200Y93841D01*
X148647Y93876D01*
X149083Y93981D01*
X149498Y94153D01*
X149880Y94387D01*
X150221Y94678D01*
X150513Y95020D01*
X150747Y95402D01*
X150919Y95816D01*
X151024Y96253D01*
X151059Y96700D01*
X151024Y97147D01*
X150919Y97583D01*
X150747Y97998D01*
X150513Y98380D01*
X150221Y98721D01*
X149880Y99013D01*
X149498Y99247D01*
X149083Y99419D01*
X148647Y99523D01*
X148200Y99559D01*
D02*
G37*
G36*
X116300Y105059D02*
X115853Y105024D01*
X115416Y104919D01*
X115002Y104747D01*
X114620Y104513D01*
X114278Y104221D01*
X113987Y103880D01*
X113753Y103498D01*
X113581Y103083D01*
X113476Y102647D01*
X113441Y102200D01*
X113476Y101753D01*
X113581Y101317D01*
X113753Y100902D01*
X113987Y100520D01*
X114278Y100178D01*
X114620Y99887D01*
X115002Y99653D01*
X115416Y99481D01*
X115853Y99376D01*
X116300Y99341D01*
X116747Y99376D01*
X117183Y99481D01*
X117598Y99653D01*
X117980Y99887D01*
X118321Y100178D01*
X118613Y100520D01*
X118847Y100902D01*
X119019Y101317D01*
X119123Y101753D01*
X119159Y102200D01*
X119123Y102647D01*
X119019Y103083D01*
X118847Y103498D01*
X118613Y103880D01*
X118321Y104221D01*
X117980Y104513D01*
X117598Y104747D01*
X117183Y104919D01*
X116747Y105024D01*
X116300Y105059D01*
D02*
G37*
G36*
X30800Y105159D02*
X30352Y105124D01*
X29916Y105019D01*
X29502Y104847D01*
X29119Y104613D01*
X28778Y104321D01*
X28487Y103980D01*
X28252Y103598D01*
X28081Y103183D01*
X27976Y102747D01*
X27941Y102300D01*
X27976Y101853D01*
X28081Y101417D01*
X28252Y101002D01*
X28487Y100619D01*
X28778Y100278D01*
X29119Y99987D01*
X29502Y99753D01*
X29916Y99581D01*
X30352Y99476D01*
X30800Y99441D01*
X31247Y99476D01*
X31683Y99581D01*
X32098Y99753D01*
X32480Y99987D01*
X32821Y100278D01*
X33113Y100619D01*
X33347Y101002D01*
X33519Y101417D01*
X33623Y101853D01*
X33659Y102300D01*
X33623Y102747D01*
X33519Y103183D01*
X33347Y103598D01*
X33113Y103980D01*
X32821Y104321D01*
X32480Y104613D01*
X32098Y104847D01*
X31683Y105019D01*
X31247Y105124D01*
X30800Y105159D01*
D02*
G37*
G36*
X126800Y99659D02*
X126353Y99623D01*
X125916Y99519D01*
X125502Y99347D01*
X125119Y99113D01*
X124778Y98821D01*
X124487Y98480D01*
X124253Y98098D01*
X124081Y97683D01*
X123976Y97247D01*
X123941Y96800D01*
X123976Y96353D01*
X124081Y95917D01*
X124253Y95502D01*
X124487Y95119D01*
X124778Y94778D01*
X125119Y94487D01*
X125502Y94253D01*
X125916Y94081D01*
X126353Y93976D01*
X126800Y93941D01*
X127247Y93976D01*
X127683Y94081D01*
X128098Y94253D01*
X128480Y94487D01*
X128821Y94778D01*
X129113Y95119D01*
X129347Y95502D01*
X129519Y95917D01*
X129623Y96353D01*
X129659Y96800D01*
X129623Y97247D01*
X129519Y97683D01*
X129347Y98098D01*
X129113Y98480D01*
X128821Y98821D01*
X128480Y99113D01*
X128098Y99347D01*
X127683Y99519D01*
X127247Y99623D01*
X126800Y99659D01*
D02*
G37*
G36*
X100300Y105059D02*
X99853Y105024D01*
X99417Y104919D01*
X99002Y104747D01*
X98620Y104513D01*
X98278Y104221D01*
X97987Y103880D01*
X97753Y103498D01*
X97581Y103083D01*
X97476Y102647D01*
X97441Y102200D01*
X97476Y101753D01*
X97581Y101317D01*
X97753Y100902D01*
X97987Y100520D01*
X98278Y100178D01*
X98620Y99887D01*
X99002Y99653D01*
X99417Y99481D01*
X99853Y99376D01*
X100300Y99341D01*
X100747Y99376D01*
X101183Y99481D01*
X101598Y99653D01*
X101980Y99887D01*
X102321Y100178D01*
X102613Y100520D01*
X102847Y100902D01*
X103019Y101317D01*
X103124Y101753D01*
X103159Y102200D01*
X103124Y102647D01*
X103019Y103083D01*
X102847Y103498D01*
X102613Y103880D01*
X102321Y104221D01*
X101980Y104513D01*
X101598Y104747D01*
X101183Y104919D01*
X100747Y105024D01*
X100300Y105059D01*
D02*
G37*
G36*
X92300Y121059D02*
X91853Y121024D01*
X91417Y120919D01*
X91002Y120747D01*
X90620Y120513D01*
X90278Y120222D01*
X89987Y119880D01*
X89753Y119498D01*
X89581Y119083D01*
X89476Y118647D01*
X89441Y118200D01*
X89476Y117753D01*
X89581Y117317D01*
X89753Y116902D01*
X89987Y116520D01*
X90278Y116179D01*
X90620Y115887D01*
X91002Y115653D01*
X91417Y115481D01*
X91853Y115376D01*
X92300Y115341D01*
X92747Y115376D01*
X93183Y115481D01*
X93598Y115653D01*
X93980Y115887D01*
X94321Y116179D01*
X94613Y116520D01*
X94847Y116902D01*
X95019Y117317D01*
X95124Y117753D01*
X95159Y118200D01*
X95124Y118647D01*
X95019Y119083D01*
X94847Y119498D01*
X94613Y119880D01*
X94321Y120222D01*
X93980Y120513D01*
X93598Y120747D01*
X93183Y120919D01*
X92747Y121024D01*
X92300Y121059D01*
D02*
G37*
G36*
X103700Y138759D02*
X103253Y138723D01*
X102816Y138619D01*
X102402Y138447D01*
X102020Y138213D01*
X101678Y137921D01*
X101387Y137580D01*
X101153Y137198D01*
X100981Y136783D01*
X100876Y136347D01*
X100841Y135900D01*
X100876Y135453D01*
X100981Y135016D01*
X101153Y134602D01*
X101387Y134220D01*
X101678Y133878D01*
X102020Y133587D01*
X102402Y133353D01*
X102816Y133181D01*
X103253Y133076D01*
X103700Y133041D01*
X104147Y133076D01*
X104583Y133181D01*
X104998Y133353D01*
X105380Y133587D01*
X105721Y133878D01*
X106013Y134220D01*
X106247Y134602D01*
X106419Y135016D01*
X106524Y135453D01*
X106559Y135900D01*
X106524Y136347D01*
X106419Y136783D01*
X106247Y137198D01*
X106013Y137580D01*
X105721Y137921D01*
X105380Y138213D01*
X104998Y138447D01*
X104583Y138619D01*
X104147Y138723D01*
X103700Y138759D01*
D02*
G37*
G36*
X144100Y137959D02*
X143653Y137923D01*
X143216Y137819D01*
X142802Y137647D01*
X142420Y137413D01*
X142078Y137121D01*
X141787Y136780D01*
X141554Y136400D01*
X141515Y136391D01*
X141484D01*
X141446Y136400D01*
X141213Y136780D01*
X140921Y137121D01*
X140580Y137413D01*
X140198Y137647D01*
X139783Y137819D01*
X139347Y137923D01*
X138900Y137959D01*
X138453Y137923D01*
X138017Y137819D01*
X137602Y137647D01*
X137219Y137413D01*
X136878Y137121D01*
X136587Y136780D01*
X136353Y136398D01*
X136181Y135983D01*
X136076Y135547D01*
X136041Y135100D01*
X136076Y134653D01*
X136181Y134216D01*
X136353Y133802D01*
X136587Y133420D01*
X136878Y133078D01*
X137219Y132787D01*
X137602Y132553D01*
X138017Y132381D01*
X138453Y132276D01*
X138900Y132241D01*
X139347Y132276D01*
X139783Y132381D01*
X140198Y132553D01*
X140580Y132787D01*
X140921Y133078D01*
X141213Y133420D01*
X141446Y133799D01*
X141484Y133809D01*
X141515D01*
X141554Y133799D01*
X141787Y133420D01*
X142078Y133078D01*
X142420Y132787D01*
X142802Y132553D01*
X143216Y132381D01*
X143653Y132276D01*
X144100Y132241D01*
X144547Y132276D01*
X144983Y132381D01*
X145398Y132553D01*
X145780Y132787D01*
X146121Y133078D01*
X146413Y133420D01*
X146647Y133802D01*
X146819Y134216D01*
X146924Y134653D01*
X146959Y135100D01*
X146924Y135547D01*
X146819Y135983D01*
X146647Y136398D01*
X146413Y136780D01*
X146121Y137121D01*
X145780Y137413D01*
X145398Y137647D01*
X144983Y137819D01*
X144547Y137923D01*
X144100Y137959D01*
D02*
G37*
G36*
X78800Y137159D02*
X78353Y137124D01*
X77916Y137019D01*
X77502Y136847D01*
X77119Y136613D01*
X76778Y136321D01*
X76487Y135980D01*
X76253Y135598D01*
X76081Y135183D01*
X75976Y134747D01*
X75941Y134300D01*
X75976Y133853D01*
X76081Y133417D01*
X76253Y133002D01*
X76487Y132620D01*
X76778Y132278D01*
X77119Y131987D01*
X77502Y131753D01*
X77916Y131581D01*
X78353Y131476D01*
X78800Y131441D01*
X79247Y131476D01*
X79683Y131581D01*
X80098Y131753D01*
X80480Y131987D01*
X80821Y132278D01*
X81113Y132620D01*
X81347Y133002D01*
X81519Y133417D01*
X81623Y133853D01*
X81659Y134300D01*
X81623Y134747D01*
X81519Y135183D01*
X81347Y135598D01*
X81113Y135980D01*
X80821Y136321D01*
X80480Y136613D01*
X80098Y136847D01*
X79683Y137019D01*
X79247Y137124D01*
X78800Y137159D01*
D02*
G37*
G36*
X128100Y137959D02*
X127653Y137923D01*
X127217Y137819D01*
X126802Y137647D01*
X126419Y137413D01*
X126078Y137121D01*
X125787Y136780D01*
X125553Y136398D01*
X125381Y135983D01*
X125276Y135547D01*
X125241Y135100D01*
X125276Y134653D01*
X125381Y134216D01*
X125553Y133802D01*
X125787Y133420D01*
X126078Y133078D01*
X126419Y132787D01*
X126802Y132553D01*
X127217Y132381D01*
X127653Y132276D01*
X128100Y132241D01*
X128547Y132276D01*
X128983Y132381D01*
X129398Y132553D01*
X129780Y132787D01*
X130121Y133078D01*
X130413Y133420D01*
X130647Y133802D01*
X130819Y134216D01*
X130924Y134653D01*
X130959Y135100D01*
X130924Y135547D01*
X130819Y135983D01*
X130647Y136398D01*
X130413Y136780D01*
X130121Y137121D01*
X129780Y137413D01*
X129398Y137647D01*
X128983Y137819D01*
X128547Y137923D01*
X128100Y137959D01*
D02*
G37*
G36*
X27200Y145959D02*
X26753Y145924D01*
X26316Y145819D01*
X25902Y145647D01*
X25519Y145413D01*
X25178Y145121D01*
X24887Y144780D01*
X24653Y144398D01*
X24481Y143983D01*
X24376Y143547D01*
X24341Y143100D01*
X24376Y142653D01*
X24481Y142217D01*
X24653Y141802D01*
X24887Y141419D01*
X25178Y141078D01*
X25519Y140787D01*
X25902Y140553D01*
X26316Y140381D01*
X26753Y140276D01*
X27200Y140241D01*
X27647Y140276D01*
X28083Y140381D01*
X28498Y140553D01*
X28880Y140787D01*
X29221Y141078D01*
X29513Y141419D01*
X29747Y141802D01*
X29919Y142217D01*
X30024Y142653D01*
X30059Y143100D01*
X30024Y143547D01*
X29919Y143983D01*
X29747Y144398D01*
X29513Y144780D01*
X29221Y145121D01*
X28880Y145413D01*
X28498Y145647D01*
X28083Y145819D01*
X27647Y145924D01*
X27200Y145959D01*
D02*
G37*
G36*
X121700Y147159D02*
X121253Y147123D01*
X120816Y147019D01*
X120402Y146847D01*
X120020Y146613D01*
X119678Y146321D01*
X119387Y145980D01*
X119153Y145598D01*
X118981Y145183D01*
X118876Y144747D01*
X118841Y144300D01*
X118876Y143853D01*
X118981Y143417D01*
X119153Y143002D01*
X119387Y142619D01*
X119678Y142278D01*
X120020Y141987D01*
X120402Y141753D01*
X120816Y141581D01*
X121253Y141476D01*
X121700Y141441D01*
X122147Y141476D01*
X122583Y141581D01*
X122998Y141753D01*
X123380Y141987D01*
X123721Y142278D01*
X124013Y142619D01*
X124247Y143002D01*
X124419Y143417D01*
X124523Y143853D01*
X124559Y144300D01*
X124523Y144747D01*
X124419Y145183D01*
X124247Y145598D01*
X124013Y145980D01*
X123721Y146321D01*
X123380Y146613D01*
X122998Y146847D01*
X122583Y147019D01*
X122147Y147123D01*
X121700Y147159D01*
D02*
G37*
G36*
X144100Y145959D02*
X143653Y145924D01*
X143216Y145819D01*
X142802Y145647D01*
X142420Y145413D01*
X142078Y145121D01*
X141787Y144780D01*
X141554Y144400D01*
X141515Y144391D01*
X141484D01*
X141446Y144400D01*
X141213Y144780D01*
X140921Y145121D01*
X140580Y145413D01*
X140198Y145647D01*
X139783Y145819D01*
X139347Y145924D01*
X138900Y145959D01*
X138453Y145924D01*
X138017Y145819D01*
X137602Y145647D01*
X137219Y145413D01*
X136878Y145121D01*
X136587Y144780D01*
X136353Y144398D01*
X136181Y143983D01*
X136076Y143547D01*
X136041Y143100D01*
X136076Y142653D01*
X136181Y142217D01*
X136353Y141802D01*
X136587Y141420D01*
X136878Y141079D01*
X137219Y140787D01*
X137602Y140553D01*
X138017Y140381D01*
X138453Y140276D01*
X138900Y140241D01*
X139347Y140276D01*
X139783Y140381D01*
X140198Y140553D01*
X140580Y140787D01*
X140921Y141079D01*
X141213Y141420D01*
X141446Y141799D01*
X141484Y141809D01*
X141515D01*
X141554Y141799D01*
X141787Y141420D01*
X142078Y141079D01*
X142420Y140787D01*
X142802Y140553D01*
X143216Y140381D01*
X143653Y140276D01*
X144100Y140241D01*
X144547Y140276D01*
X144983Y140381D01*
X145398Y140553D01*
X145780Y140787D01*
X146121Y141079D01*
X146413Y141420D01*
X146647Y141802D01*
X146819Y142217D01*
X146924Y142653D01*
X146959Y143100D01*
X146924Y143547D01*
X146819Y143983D01*
X146647Y144398D01*
X146413Y144780D01*
X146121Y145121D01*
X145780Y145413D01*
X145398Y145647D01*
X144983Y145819D01*
X144547Y145924D01*
X144100Y145959D01*
D02*
G37*
G36*
X89500Y146059D02*
X89053Y146024D01*
X88617Y145919D01*
X88202Y145747D01*
X87819Y145513D01*
X87478Y145221D01*
X87187Y144880D01*
X86953Y144498D01*
X86781Y144083D01*
X86676Y143647D01*
X86641Y143200D01*
X86676Y142753D01*
X86781Y142317D01*
X86953Y141902D01*
X87187Y141520D01*
X87478Y141179D01*
X87819Y140887D01*
X88202Y140653D01*
X88617Y140481D01*
X89053Y140376D01*
X89500Y140341D01*
X89947Y140376D01*
X90383Y140481D01*
X90798Y140653D01*
X91180Y140887D01*
X91521Y141179D01*
X91813Y141520D01*
X92047Y141902D01*
X92219Y142317D01*
X92324Y142753D01*
X92359Y143200D01*
X92324Y143647D01*
X92219Y144083D01*
X92047Y144498D01*
X91813Y144880D01*
X91521Y145221D01*
X91180Y145513D01*
X90798Y145747D01*
X90383Y145919D01*
X89947Y146024D01*
X89500Y146059D01*
D02*
G37*
G36*
X105000Y152459D02*
X104553Y152423D01*
X104116Y152319D01*
X103702Y152147D01*
X103320Y151913D01*
X102978Y151621D01*
X102687Y151280D01*
X102453Y150898D01*
X102281Y150483D01*
X102176Y150047D01*
X102141Y149600D01*
X102176Y149153D01*
X102281Y148716D01*
X102453Y148302D01*
X102687Y147920D01*
X102978Y147578D01*
X103320Y147287D01*
X103702Y147053D01*
X104116Y146881D01*
X104553Y146776D01*
X104558Y146776D01*
X104582Y146674D01*
X104319Y146513D01*
X103978Y146221D01*
X103687Y145880D01*
X103453Y145498D01*
X103281Y145083D01*
X103176Y144647D01*
X103141Y144200D01*
X103176Y143753D01*
X103281Y143316D01*
X103453Y142902D01*
X103687Y142520D01*
X103978Y142178D01*
X104319Y141887D01*
X104702Y141653D01*
X105117Y141481D01*
X105553Y141376D01*
X106000Y141341D01*
X106447Y141376D01*
X106883Y141481D01*
X107298Y141653D01*
X107680Y141887D01*
X108021Y142178D01*
X108313Y142520D01*
X108547Y142902D01*
X108719Y143316D01*
X108823Y143753D01*
X108859Y144200D01*
X108823Y144647D01*
X108719Y145083D01*
X108547Y145498D01*
X108313Y145880D01*
X108021Y146221D01*
X107680Y146513D01*
X107298Y146747D01*
X106883Y146919D01*
X106447Y147023D01*
X106442Y147024D01*
X106418Y147126D01*
X106680Y147287D01*
X107021Y147578D01*
X107313Y147920D01*
X107547Y148302D01*
X107719Y148716D01*
X107823Y149153D01*
X107859Y149600D01*
X107823Y150047D01*
X107719Y150483D01*
X107547Y150898D01*
X107313Y151280D01*
X107021Y151621D01*
X106680Y151913D01*
X106298Y152147D01*
X105883Y152319D01*
X105447Y152423D01*
X105000Y152459D01*
D02*
G37*
G36*
X123100Y122759D02*
X122653Y122724D01*
X122217Y122619D01*
X121802Y122447D01*
X121419Y122213D01*
X121078Y121921D01*
X120787Y121580D01*
X120553Y121198D01*
X120381Y120783D01*
X120276Y120347D01*
X120241Y119900D01*
X120276Y119453D01*
X120381Y119017D01*
X120553Y118602D01*
X120787Y118220D01*
X121078Y117879D01*
X121419Y117587D01*
X121802Y117353D01*
X122217Y117181D01*
X122653Y117076D01*
X123100Y117041D01*
X123547Y117076D01*
X123983Y117181D01*
X124398Y117353D01*
X124780Y117587D01*
X125121Y117879D01*
X125413Y118220D01*
X125647Y118602D01*
X125819Y119017D01*
X125924Y119453D01*
X125959Y119900D01*
X125924Y120347D01*
X125819Y120783D01*
X125647Y121198D01*
X125413Y121580D01*
X125121Y121921D01*
X124780Y122213D01*
X124398Y122447D01*
X123983Y122619D01*
X123547Y122724D01*
X123100Y122759D01*
D02*
G37*
G36*
X38700Y123659D02*
X38253Y123623D01*
X37817Y123519D01*
X37402Y123347D01*
X37020Y123113D01*
X36679Y122821D01*
X36387Y122480D01*
X36153Y122098D01*
X35981Y121683D01*
X35876Y121247D01*
X35841Y120800D01*
X35876Y120353D01*
X35981Y119916D01*
X36153Y119502D01*
X36387Y119120D01*
X36679Y118778D01*
X37020Y118487D01*
X37402Y118253D01*
X37817Y118081D01*
X38253Y117976D01*
X38700Y117941D01*
X39147Y117976D01*
X39583Y118081D01*
X39998Y118253D01*
X40380Y118487D01*
X40721Y118778D01*
X41013Y119120D01*
X41247Y119502D01*
X41419Y119916D01*
X41523Y120353D01*
X41559Y120800D01*
X41523Y121247D01*
X41419Y121683D01*
X41247Y122098D01*
X41013Y122480D01*
X40721Y122821D01*
X40380Y123113D01*
X39998Y123347D01*
X39583Y123519D01*
X39147Y123623D01*
X38700Y123659D01*
D02*
G37*
G36*
X100300Y121059D02*
X99853Y121024D01*
X99417Y120919D01*
X99002Y120747D01*
X98620Y120513D01*
X98278Y120222D01*
X97987Y119880D01*
X97753Y119498D01*
X97581Y119083D01*
X97476Y118647D01*
X97441Y118200D01*
X97476Y117753D01*
X97581Y117317D01*
X97753Y116902D01*
X97987Y116520D01*
X98278Y116179D01*
X98620Y115887D01*
X99002Y115653D01*
X99417Y115481D01*
X99853Y115376D01*
X100300Y115341D01*
X100747Y115376D01*
X101183Y115481D01*
X101598Y115653D01*
X101980Y115887D01*
X102321Y116179D01*
X102613Y116520D01*
X102847Y116902D01*
X103019Y117317D01*
X103124Y117753D01*
X103159Y118200D01*
X103124Y118647D01*
X103019Y119083D01*
X102847Y119498D01*
X102613Y119880D01*
X102321Y120222D01*
X101980Y120513D01*
X101598Y120747D01*
X101183Y120919D01*
X100747Y121024D01*
X100300Y121059D01*
D02*
G37*
G36*
X46800Y121159D02*
X46353Y121124D01*
X45916Y121019D01*
X45502Y120847D01*
X45119Y120613D01*
X44778Y120321D01*
X44487Y119980D01*
X44253Y119598D01*
X44081Y119183D01*
X43976Y118747D01*
X43941Y118300D01*
X43976Y117853D01*
X44081Y117416D01*
X44253Y117002D01*
X44487Y116620D01*
X44778Y116278D01*
X45119Y115987D01*
X45502Y115753D01*
X45916Y115581D01*
X46353Y115476D01*
X46800Y115441D01*
X47247Y115476D01*
X47683Y115581D01*
X48098Y115753D01*
X48480Y115987D01*
X48821Y116278D01*
X49113Y116620D01*
X49347Y117002D01*
X49519Y117416D01*
X49623Y117853D01*
X49658Y118300D01*
X49623Y118747D01*
X49519Y119183D01*
X49347Y119598D01*
X49113Y119980D01*
X48821Y120321D01*
X48480Y120613D01*
X48098Y120847D01*
X47683Y121019D01*
X47247Y121124D01*
X46800Y121159D01*
D02*
G37*
G36*
X54700Y123659D02*
X54253Y123623D01*
X53816Y123519D01*
X53402Y123347D01*
X53020Y123113D01*
X52678Y122821D01*
X52387Y122480D01*
X52153Y122098D01*
X51981Y121683D01*
X51876Y121247D01*
X51841Y120800D01*
X51876Y120353D01*
X51981Y119916D01*
X52153Y119502D01*
X52387Y119120D01*
X52678Y118778D01*
X53020Y118487D01*
X53402Y118253D01*
X53816Y118081D01*
X54253Y117976D01*
X54700Y117941D01*
X55147Y117976D01*
X55583Y118081D01*
X55998Y118253D01*
X56380Y118487D01*
X56721Y118778D01*
X57013Y119120D01*
X57247Y119502D01*
X57419Y119916D01*
X57523Y120353D01*
X57559Y120800D01*
X57523Y121247D01*
X57419Y121683D01*
X57247Y122098D01*
X57013Y122480D01*
X56721Y122821D01*
X56380Y123113D01*
X55998Y123347D01*
X55583Y123519D01*
X55147Y123623D01*
X54700Y123659D01*
D02*
G37*
G36*
X138900Y129959D02*
X138453Y129923D01*
X138017Y129819D01*
X137602Y129647D01*
X137219Y129413D01*
X136878Y129121D01*
X136587Y128780D01*
X136353Y128398D01*
X136181Y127983D01*
X136076Y127547D01*
X136041Y127100D01*
X136076Y126653D01*
X136181Y126216D01*
X136353Y125802D01*
X136587Y125420D01*
X136878Y125078D01*
X137219Y124787D01*
X137602Y124553D01*
X138017Y124381D01*
X138453Y124276D01*
X138900Y124241D01*
X139347Y124276D01*
X139783Y124381D01*
X140198Y124553D01*
X140580Y124787D01*
X140921Y125078D01*
X141213Y125420D01*
X141447Y125802D01*
X141619Y126216D01*
X141723Y126653D01*
X141759Y127100D01*
X141723Y127547D01*
X141619Y127983D01*
X141447Y128398D01*
X141213Y128780D01*
X140921Y129121D01*
X140580Y129413D01*
X140198Y129647D01*
X139783Y129819D01*
X139347Y129923D01*
X138900Y129959D01*
D02*
G37*
G36*
X62800Y137159D02*
X62353Y137123D01*
X61916Y137019D01*
X61502Y136847D01*
X61119Y136613D01*
X60778Y136321D01*
X60487Y135980D01*
X60253Y135598D01*
X60081Y135183D01*
X59976Y134747D01*
X59941Y134300D01*
X59976Y133853D01*
X60081Y133417D01*
X60253Y133002D01*
X60487Y132619D01*
X60778Y132278D01*
X61119Y131987D01*
X61502Y131753D01*
X61916Y131581D01*
X62353Y131476D01*
X62800Y131441D01*
X63247Y131476D01*
X63683Y131581D01*
X64098Y131753D01*
X64480Y131987D01*
X64821Y132278D01*
X65113Y132619D01*
X65347Y133002D01*
X65519Y133417D01*
X65623Y133853D01*
X65659Y134300D01*
X65623Y134747D01*
X65519Y135183D01*
X65347Y135598D01*
X65113Y135980D01*
X64821Y136321D01*
X64480Y136613D01*
X64098Y136847D01*
X63683Y137019D01*
X63247Y137123D01*
X62800Y137159D01*
D02*
G37*
G36*
X92300Y129059D02*
X91853Y129024D01*
X91417Y128919D01*
X91002Y128747D01*
X90620Y128513D01*
X90278Y128222D01*
X89987Y127880D01*
X89753Y127498D01*
X89581Y127083D01*
X89476Y126647D01*
X89441Y126200D01*
X89476Y125753D01*
X89581Y125317D01*
X89753Y124902D01*
X89987Y124520D01*
X90278Y124178D01*
X90620Y123887D01*
X91002Y123653D01*
X91417Y123481D01*
X91853Y123376D01*
X92300Y123341D01*
X92747Y123376D01*
X93183Y123481D01*
X93598Y123653D01*
X93980Y123887D01*
X94321Y124178D01*
X94613Y124520D01*
X94847Y124902D01*
X95019Y125317D01*
X95124Y125753D01*
X95159Y126200D01*
X95124Y126647D01*
X95019Y127083D01*
X94847Y127498D01*
X94613Y127880D01*
X94321Y128222D01*
X93980Y128513D01*
X93598Y128747D01*
X93183Y128919D01*
X92747Y129024D01*
X92300Y129059D01*
D02*
G37*
G36*
X122900Y130759D02*
X122453Y130723D01*
X122016Y130619D01*
X121602Y130447D01*
X121220Y130213D01*
X120878Y129921D01*
X120587Y129580D01*
X120353Y129198D01*
X120181Y128783D01*
X120076Y128347D01*
X120041Y127900D01*
X120076Y127453D01*
X120181Y127016D01*
X120353Y126602D01*
X120587Y126220D01*
X120878Y125878D01*
X121220Y125587D01*
X121602Y125353D01*
X122016Y125181D01*
X122453Y125076D01*
X122900Y125041D01*
X123347Y125076D01*
X123783Y125181D01*
X124198Y125353D01*
X124580Y125587D01*
X124921Y125878D01*
X125213Y126220D01*
X125265Y126305D01*
X125364Y126289D01*
X125381Y126216D01*
X125553Y125802D01*
X125787Y125420D01*
X126078Y125078D01*
X126419Y124787D01*
X126802Y124553D01*
X127217Y124381D01*
X127653Y124276D01*
X128100Y124241D01*
X128547Y124276D01*
X128983Y124381D01*
X129398Y124553D01*
X129780Y124787D01*
X130121Y125078D01*
X130413Y125420D01*
X130647Y125802D01*
X130819Y126216D01*
X130924Y126653D01*
X130959Y127100D01*
X130924Y127547D01*
X130819Y127983D01*
X130647Y128398D01*
X130413Y128780D01*
X130121Y129121D01*
X129780Y129413D01*
X129398Y129647D01*
X128983Y129819D01*
X128547Y129923D01*
X128100Y129959D01*
X127653Y129923D01*
X127217Y129819D01*
X126802Y129647D01*
X126419Y129413D01*
X126078Y129121D01*
X125787Y128780D01*
X125735Y128695D01*
X125636Y128711D01*
X125619Y128783D01*
X125447Y129198D01*
X125213Y129580D01*
X124921Y129921D01*
X124580Y130213D01*
X124198Y130447D01*
X123783Y130619D01*
X123347Y130723D01*
X122900Y130759D01*
D02*
G37*
G36*
X141300Y58659D02*
X140853Y58623D01*
X140417Y58519D01*
X140002Y58347D01*
X139620Y58113D01*
X139278Y57821D01*
X138987Y57480D01*
X138753Y57098D01*
X138581Y56683D01*
X138476Y56247D01*
X138441Y55800D01*
X138476Y55353D01*
X138581Y54917D01*
X138753Y54502D01*
X138987Y54120D01*
X139278Y53778D01*
X139620Y53487D01*
X140002Y53253D01*
X140417Y53081D01*
X140853Y52976D01*
X141300Y52941D01*
X141747Y52976D01*
X142183Y53081D01*
X142598Y53253D01*
X142980Y53487D01*
X143322Y53778D01*
X143613Y54120D01*
X143847Y54502D01*
X144019Y54917D01*
X144124Y55353D01*
X144159Y55800D01*
X144124Y56247D01*
X144019Y56683D01*
X143847Y57098D01*
X143613Y57480D01*
X143322Y57821D01*
X142980Y58113D01*
X142598Y58347D01*
X142183Y58519D01*
X141747Y58623D01*
X141300Y58659D01*
D02*
G37*
G36*
X76100Y64959D02*
X75653Y64924D01*
X75216Y64819D01*
X74802Y64647D01*
X74420Y64413D01*
X74078Y64121D01*
X73787Y63780D01*
X73553Y63398D01*
X73381Y62983D01*
X73276Y62547D01*
X73241Y62100D01*
X73276Y61653D01*
X73381Y61217D01*
X73553Y60802D01*
X73787Y60420D01*
X74078Y60079D01*
X74420Y59787D01*
X74802Y59553D01*
X75216Y59381D01*
X75653Y59276D01*
X76100Y59241D01*
X76547Y59276D01*
X76983Y59381D01*
X77398Y59553D01*
X77780Y59787D01*
X78121Y60079D01*
X78413Y60420D01*
X78647Y60802D01*
X78819Y61217D01*
X78924Y61653D01*
X78959Y62100D01*
X78924Y62547D01*
X78819Y62983D01*
X78647Y63398D01*
X78413Y63780D01*
X78121Y64121D01*
X77780Y64413D01*
X77398Y64647D01*
X76983Y64819D01*
X76547Y64924D01*
X76100Y64959D01*
D02*
G37*
G36*
X94600Y51459D02*
X94153Y51424D01*
X93716Y51319D01*
X93302Y51147D01*
X92920Y50913D01*
X92578Y50621D01*
X92287Y50280D01*
X92053Y49898D01*
X91881Y49483D01*
X91776Y49047D01*
X91741Y48600D01*
X91776Y48153D01*
X91881Y47716D01*
X92053Y47302D01*
X92287Y46919D01*
X92578Y46578D01*
X92920Y46287D01*
X93302Y46053D01*
X93716Y45881D01*
X94153Y45776D01*
X94600Y45741D01*
X95047Y45776D01*
X95483Y45881D01*
X95898Y46053D01*
X96280Y46287D01*
X96621Y46578D01*
X96913Y46919D01*
X97147Y47302D01*
X97319Y47716D01*
X97423Y48153D01*
X97459Y48600D01*
X97423Y49047D01*
X97319Y49483D01*
X97147Y49898D01*
X96913Y50280D01*
X96621Y50621D01*
X96280Y50913D01*
X95898Y51147D01*
X95483Y51319D01*
X95047Y51424D01*
X94600Y51459D01*
D02*
G37*
G36*
X78700Y51659D02*
X78253Y51624D01*
X77816Y51519D01*
X77402Y51347D01*
X77019Y51113D01*
X76678Y50821D01*
X76387Y50480D01*
X76153Y50098D01*
X75981Y49683D01*
X75876Y49247D01*
X75841Y48800D01*
X75876Y48353D01*
X75981Y47916D01*
X76153Y47502D01*
X76387Y47119D01*
X76678Y46778D01*
X77019Y46487D01*
X77402Y46253D01*
X77816Y46081D01*
X78253Y45976D01*
X78700Y45941D01*
X79147Y45976D01*
X79583Y46081D01*
X79998Y46253D01*
X80380Y46487D01*
X80721Y46778D01*
X81013Y47119D01*
X81247Y47502D01*
X81419Y47916D01*
X81523Y48353D01*
X81559Y48800D01*
X81523Y49247D01*
X81419Y49683D01*
X81247Y50098D01*
X81013Y50480D01*
X80721Y50821D01*
X80380Y51113D01*
X79998Y51347D01*
X79583Y51519D01*
X79147Y51624D01*
X78700Y51659D01*
D02*
G37*
G36*
X60100Y65059D02*
X59653Y65024D01*
X59216Y64919D01*
X58802Y64747D01*
X58420Y64513D01*
X58078Y64222D01*
X57787Y63880D01*
X57553Y63498D01*
X57381Y63083D01*
X57276Y62647D01*
X57241Y62200D01*
X57276Y61753D01*
X57381Y61317D01*
X57553Y60902D01*
X57787Y60520D01*
X58078Y60178D01*
X58420Y59887D01*
X58802Y59653D01*
X59216Y59481D01*
X59653Y59376D01*
X60100Y59341D01*
X60547Y59376D01*
X60983Y59481D01*
X61398Y59653D01*
X61780Y59887D01*
X62121Y60178D01*
X62413Y60520D01*
X62647Y60902D01*
X62819Y61317D01*
X62923Y61753D01*
X62959Y62200D01*
X62923Y62647D01*
X62819Y63083D01*
X62647Y63498D01*
X62413Y63880D01*
X62121Y64222D01*
X61780Y64513D01*
X61398Y64747D01*
X60983Y64919D01*
X60547Y65024D01*
X60100Y65059D01*
D02*
G37*
G36*
X30700Y67659D02*
X30253Y67624D01*
X29816Y67519D01*
X29402Y67347D01*
X29019Y67113D01*
X28678Y66821D01*
X28387Y66480D01*
X28153Y66098D01*
X27981Y65683D01*
X27876Y65247D01*
X27841Y64800D01*
X27876Y64353D01*
X27981Y63917D01*
X28153Y63502D01*
X28387Y63120D01*
X28678Y62778D01*
X29019Y62487D01*
X29402Y62253D01*
X29816Y62081D01*
X30253Y61976D01*
X30700Y61941D01*
X31147Y61976D01*
X31583Y62081D01*
X31998Y62253D01*
X32380Y62487D01*
X32721Y62778D01*
X33013Y63120D01*
X33247Y63502D01*
X33419Y63917D01*
X33523Y64353D01*
X33559Y64800D01*
X33523Y65247D01*
X33419Y65683D01*
X33247Y66098D01*
X33013Y66480D01*
X32721Y66821D01*
X32380Y67113D01*
X31998Y67347D01*
X31583Y67519D01*
X31147Y67624D01*
X30700Y67659D01*
D02*
G37*
G36*
X84100Y72959D02*
X83653Y72924D01*
X83216Y72819D01*
X82802Y72647D01*
X82420Y72413D01*
X82078Y72122D01*
X81787Y71780D01*
X81553Y71398D01*
X81381Y70983D01*
X81276Y70547D01*
X81241Y70100D01*
X81276Y69653D01*
X81381Y69217D01*
X81553Y68802D01*
X81787Y68420D01*
X82078Y68078D01*
X82420Y67787D01*
X82802Y67553D01*
X83216Y67381D01*
X83653Y67276D01*
X84100Y67241D01*
X84547Y67276D01*
X84983Y67381D01*
X85398Y67553D01*
X85780Y67787D01*
X86121Y68078D01*
X86413Y68420D01*
X86647Y68802D01*
X86819Y69217D01*
X86924Y69653D01*
X86959Y70100D01*
X86924Y70547D01*
X86819Y70983D01*
X86647Y71398D01*
X86413Y71780D01*
X86121Y72122D01*
X85780Y72413D01*
X85398Y72647D01*
X84983Y72819D01*
X84547Y72924D01*
X84100Y72959D01*
D02*
G37*
G36*
X102800Y65059D02*
X102353Y65024D01*
X101916Y64919D01*
X101502Y64747D01*
X101119Y64513D01*
X100778Y64222D01*
X100487Y63880D01*
X100253Y63498D01*
X100081Y63083D01*
X99976Y62647D01*
X99941Y62200D01*
X99976Y61753D01*
X100081Y61317D01*
X100253Y60902D01*
X100487Y60520D01*
X100778Y60178D01*
X101119Y59887D01*
X101502Y59653D01*
X101916Y59481D01*
X102353Y59376D01*
X102800Y59341D01*
X103247Y59376D01*
X103683Y59481D01*
X104098Y59653D01*
X104480Y59887D01*
X104821Y60178D01*
X105113Y60520D01*
X105347Y60902D01*
X105519Y61317D01*
X105623Y61753D01*
X105659Y62200D01*
X105623Y62647D01*
X105519Y63083D01*
X105347Y63498D01*
X105113Y63880D01*
X104821Y64222D01*
X104480Y64513D01*
X104098Y64747D01*
X103683Y64919D01*
X103247Y65024D01*
X102800Y65059D01*
D02*
G37*
G36*
X92100Y65159D02*
X91653Y65124D01*
X91216Y65019D01*
X90802Y64847D01*
X90420Y64613D01*
X90078Y64321D01*
X89787Y63980D01*
X89553Y63598D01*
X89381Y63183D01*
X89276Y62747D01*
X89241Y62300D01*
X89276Y61853D01*
X89381Y61417D01*
X89553Y61002D01*
X89787Y60620D01*
X90078Y60279D01*
X90420Y59987D01*
X90802Y59753D01*
X91216Y59581D01*
X91653Y59476D01*
X92100Y59441D01*
X92547Y59476D01*
X92983Y59581D01*
X93398Y59753D01*
X93780Y59987D01*
X94121Y60279D01*
X94413Y60620D01*
X94647Y61002D01*
X94819Y61417D01*
X94923Y61853D01*
X94959Y62300D01*
X94923Y62747D01*
X94819Y63183D01*
X94647Y63598D01*
X94413Y63980D01*
X94121Y64321D01*
X93780Y64613D01*
X93398Y64847D01*
X92983Y65019D01*
X92547Y65124D01*
X92100Y65159D01*
D02*
G37*
G36*
X25500Y12359D02*
X25053Y12323D01*
X24616Y12219D01*
X24202Y12047D01*
X23819Y11813D01*
X23478Y11521D01*
X23187Y11180D01*
X22953Y10798D01*
X22781Y10383D01*
X22676Y9947D01*
X22641Y9500D01*
X22676Y9053D01*
X22781Y8616D01*
X22953Y8202D01*
X23187Y7819D01*
X23478Y7478D01*
X23819Y7187D01*
X24202Y6953D01*
X24616Y6781D01*
X25053Y6676D01*
X25500Y6641D01*
X25947Y6676D01*
X26383Y6781D01*
X26798Y6953D01*
X27180Y7187D01*
X27521Y7478D01*
X27813Y7819D01*
X28047Y8202D01*
X28219Y8616D01*
X28324Y9053D01*
X28359Y9500D01*
X28324Y9947D01*
X28219Y10383D01*
X28047Y10798D01*
X27813Y11180D01*
X27521Y11521D01*
X27180Y11813D01*
X26798Y12047D01*
X26383Y12219D01*
X25947Y12323D01*
X25500Y12359D01*
D02*
G37*
G36*
X86000Y19159D02*
X85553Y19124D01*
X85117Y19019D01*
X84702Y18847D01*
X84319Y18613D01*
X83978Y18321D01*
X83687Y17980D01*
X83453Y17598D01*
X83281Y17183D01*
X83176Y16747D01*
X83141Y16300D01*
X83176Y15853D01*
X83281Y15417D01*
X83453Y15002D01*
X83687Y14619D01*
X83978Y14278D01*
X84319Y13987D01*
X84702Y13753D01*
X85117Y13581D01*
X85553Y13476D01*
X86000Y13441D01*
X86447Y13476D01*
X86883Y13581D01*
X87298Y13753D01*
X87680Y13987D01*
X88021Y14278D01*
X88313Y14619D01*
X88547Y15002D01*
X88719Y15417D01*
X88823Y15853D01*
X88859Y16300D01*
X88823Y16747D01*
X88719Y17183D01*
X88547Y17598D01*
X88313Y17980D01*
X88021Y18321D01*
X87680Y18613D01*
X87298Y18847D01*
X86883Y19019D01*
X86447Y19124D01*
X86000Y19159D01*
D02*
G37*
G36*
X95800Y10859D02*
X95353Y10823D01*
X94916Y10719D01*
X94502Y10547D01*
X94120Y10313D01*
X93778Y10021D01*
X93487Y9680D01*
X93253Y9298D01*
X93081Y8883D01*
X92976Y8447D01*
X92941Y8000D01*
X92976Y7553D01*
X93081Y7116D01*
X93253Y6702D01*
X93487Y6320D01*
X93778Y5978D01*
X94120Y5687D01*
X94502Y5453D01*
X94916Y5281D01*
X95353Y5176D01*
X95800Y5141D01*
X96247Y5176D01*
X96683Y5281D01*
X97098Y5453D01*
X97480Y5687D01*
X97821Y5978D01*
X98113Y6320D01*
X98347Y6702D01*
X98519Y7116D01*
X98624Y7553D01*
X98659Y8000D01*
X98624Y8447D01*
X98519Y8883D01*
X98347Y9298D01*
X98113Y9680D01*
X97821Y10021D01*
X97480Y10313D01*
X97098Y10547D01*
X96683Y10719D01*
X96247Y10823D01*
X95800Y10859D01*
D02*
G37*
G36*
X148400Y11359D02*
X147953Y11323D01*
X147516Y11219D01*
X147102Y11047D01*
X146720Y10813D01*
X146378Y10521D01*
X146087Y10180D01*
X145853Y9798D01*
X145681Y9383D01*
X145576Y8947D01*
X145541Y8500D01*
X145576Y8053D01*
X145681Y7617D01*
X145853Y7202D01*
X146087Y6819D01*
X146378Y6478D01*
X146720Y6187D01*
X147102Y5953D01*
X147516Y5781D01*
X147953Y5676D01*
X148400Y5641D01*
X148847Y5676D01*
X149283Y5781D01*
X149698Y5953D01*
X150080Y6187D01*
X150421Y6478D01*
X150713Y6819D01*
X150947Y7202D01*
X151119Y7617D01*
X151223Y8053D01*
X151259Y8500D01*
X151223Y8947D01*
X151119Y9383D01*
X150947Y9798D01*
X150713Y10180D01*
X150421Y10521D01*
X150080Y10813D01*
X149698Y11047D01*
X149283Y11219D01*
X148847Y11323D01*
X148400Y11359D01*
D02*
G37*
G36*
X100900Y25659D02*
X100453Y25624D01*
X100016Y25519D01*
X99602Y25347D01*
X99220Y25113D01*
X98878Y24821D01*
X98587Y24480D01*
X98353Y24098D01*
X98181Y23683D01*
X98076Y23247D01*
X98041Y22800D01*
X98076Y22353D01*
X98181Y21916D01*
X98353Y21502D01*
X98587Y21119D01*
X98878Y20778D01*
X99220Y20487D01*
X99602Y20253D01*
X100016Y20081D01*
X100453Y19976D01*
X100900Y19941D01*
X101347Y19976D01*
X101783Y20081D01*
X102198Y20253D01*
X102580Y20487D01*
X102921Y20778D01*
X103213Y21119D01*
X103447Y21502D01*
X103619Y21916D01*
X103723Y22353D01*
X103759Y22800D01*
X103723Y23247D01*
X103619Y23683D01*
X103447Y24098D01*
X103213Y24480D01*
X102921Y24821D01*
X102580Y25113D01*
X102198Y25347D01*
X101783Y25519D01*
X101347Y25624D01*
X100900Y25659D01*
D02*
G37*
G36*
X46500Y50359D02*
X46053Y50324D01*
X45616Y50219D01*
X45202Y50047D01*
X44819Y49813D01*
X44478Y49521D01*
X44187Y49180D01*
X43953Y48798D01*
X43781Y48383D01*
X43676Y47947D01*
X43641Y47500D01*
X43676Y47053D01*
X43781Y46617D01*
X43953Y46202D01*
X44187Y45820D01*
X44478Y45478D01*
X44819Y45187D01*
X45202Y44953D01*
X45616Y44781D01*
X46053Y44676D01*
X46500Y44641D01*
X46947Y44676D01*
X47383Y44781D01*
X47798Y44953D01*
X48180Y45187D01*
X48521Y45478D01*
X48813Y45820D01*
X49047Y46202D01*
X49219Y46617D01*
X49324Y47053D01*
X49359Y47500D01*
X49324Y47947D01*
X49219Y48383D01*
X49047Y48798D01*
X48813Y49180D01*
X48521Y49521D01*
X48180Y49813D01*
X47798Y50047D01*
X47383Y50219D01*
X46947Y50324D01*
X46500Y50359D01*
D02*
G37*
G36*
X68000Y51459D02*
X67553Y51423D01*
X67116Y51319D01*
X66702Y51147D01*
X66320Y50913D01*
X65978Y50621D01*
X65687Y50280D01*
X65453Y49898D01*
X65281Y49483D01*
X65176Y49047D01*
X65141Y48600D01*
X65176Y48153D01*
X65281Y47716D01*
X65453Y47302D01*
X65687Y46919D01*
X65978Y46578D01*
X66320Y46287D01*
X66702Y46053D01*
X67116Y45881D01*
X67553Y45776D01*
X68000Y45741D01*
X68447Y45776D01*
X68883Y45881D01*
X69298Y46053D01*
X69680Y46287D01*
X70021Y46578D01*
X70313Y46919D01*
X70547Y47302D01*
X70719Y47716D01*
X70823Y48153D01*
X70859Y48600D01*
X70823Y49047D01*
X70719Y49483D01*
X70547Y49898D01*
X70313Y50280D01*
X70021Y50621D01*
X69680Y50913D01*
X69298Y51147D01*
X68883Y51319D01*
X68447Y51423D01*
X68000Y51459D01*
D02*
G37*
G36*
X37900Y34359D02*
X37453Y34323D01*
X37016Y34219D01*
X36602Y34047D01*
X36219Y33813D01*
X35878Y33521D01*
X35587Y33180D01*
X35353Y32798D01*
X35181Y32383D01*
X35076Y31947D01*
X35041Y31500D01*
X35076Y31053D01*
X35181Y30616D01*
X35353Y30202D01*
X35587Y29820D01*
X35878Y29478D01*
X36219Y29187D01*
X36602Y28953D01*
X37016Y28781D01*
X37453Y28676D01*
X37900Y28641D01*
X38347Y28676D01*
X38783Y28781D01*
X39198Y28953D01*
X39580Y29187D01*
X39921Y29478D01*
X40213Y29820D01*
X40447Y30202D01*
X40619Y30616D01*
X40724Y31053D01*
X40759Y31500D01*
X40724Y31947D01*
X40619Y32383D01*
X40447Y32798D01*
X40213Y33180D01*
X39921Y33521D01*
X39580Y33813D01*
X39198Y34047D01*
X38783Y34219D01*
X38347Y34323D01*
X37900Y34359D01*
D02*
G37*
G36*
X30600Y34559D02*
X30153Y34523D01*
X29716Y34419D01*
X29302Y34247D01*
X28919Y34013D01*
X28578Y33721D01*
X28287Y33380D01*
X28053Y32998D01*
X27881Y32583D01*
X27776Y32147D01*
X27741Y31700D01*
X27776Y31253D01*
X27881Y30816D01*
X28053Y30402D01*
X28287Y30020D01*
X28578Y29678D01*
X28919Y29387D01*
X29302Y29153D01*
X29716Y28981D01*
X30153Y28876D01*
X30600Y28841D01*
X31047Y28876D01*
X31483Y28981D01*
X31898Y29153D01*
X32280Y29387D01*
X32621Y29678D01*
X32913Y30020D01*
X33147Y30402D01*
X33319Y30816D01*
X33424Y31253D01*
X33459Y31700D01*
X33424Y32147D01*
X33319Y32583D01*
X33147Y32998D01*
X32913Y33380D01*
X32621Y33721D01*
X32280Y34013D01*
X31898Y34247D01*
X31483Y34419D01*
X31047Y34523D01*
X30600Y34559D01*
D02*
G37*
G36*
X44200Y73159D02*
X43753Y73124D01*
X43316Y73019D01*
X42902Y72847D01*
X42520Y72613D01*
X42179Y72322D01*
X41887Y71980D01*
X41653Y71598D01*
X41481Y71183D01*
X41376Y70747D01*
X41341Y70300D01*
X41376Y69853D01*
X41481Y69417D01*
X41653Y69002D01*
X41887Y68620D01*
X42179Y68278D01*
X42520Y67987D01*
X42902Y67753D01*
X43316Y67581D01*
X43753Y67476D01*
X44200Y67441D01*
X44647Y67476D01*
X45083Y67581D01*
X45498Y67753D01*
X45880Y67987D01*
X46221Y68278D01*
X46513Y68620D01*
X46747Y69002D01*
X46919Y69417D01*
X47024Y69853D01*
X47059Y70300D01*
X47024Y70747D01*
X46919Y71183D01*
X46747Y71598D01*
X46513Y71980D01*
X46221Y72322D01*
X45880Y72613D01*
X45498Y72847D01*
X45083Y73019D01*
X44647Y73124D01*
X44200Y73159D01*
D02*
G37*
G36*
X116300Y89059D02*
X115853Y89024D01*
X115416Y88919D01*
X115002Y88747D01*
X114620Y88513D01*
X114278Y88222D01*
X113987Y87880D01*
X113753Y87498D01*
X113581Y87083D01*
X113476Y86647D01*
X113441Y86200D01*
X113476Y85753D01*
X113581Y85317D01*
X113753Y84902D01*
X113987Y84520D01*
X114278Y84178D01*
X114620Y83887D01*
X115002Y83653D01*
X115416Y83481D01*
X115853Y83376D01*
X116300Y83341D01*
X116747Y83376D01*
X117183Y83481D01*
X117598Y83653D01*
X117980Y83887D01*
X118321Y84178D01*
X118613Y84520D01*
X118847Y84902D01*
X119019Y85317D01*
X119123Y85753D01*
X119159Y86200D01*
X119123Y86647D01*
X119019Y87083D01*
X118847Y87498D01*
X118613Y87880D01*
X118321Y88222D01*
X117980Y88513D01*
X117598Y88747D01*
X117183Y88919D01*
X116747Y89024D01*
X116300Y89059D01*
D02*
G37*
G36*
X133800Y90959D02*
X133353Y90924D01*
X132916Y90819D01*
X132502Y90647D01*
X132120Y90413D01*
X131778Y90121D01*
X131487Y89780D01*
X131253Y89398D01*
X131081Y88983D01*
X130976Y88547D01*
X130941Y88100D01*
X130976Y87653D01*
X131081Y87217D01*
X131253Y86802D01*
X131487Y86420D01*
X131778Y86079D01*
X132120Y85787D01*
X132502Y85553D01*
X132916Y85381D01*
X133353Y85276D01*
X133800Y85241D01*
X134247Y85276D01*
X134683Y85381D01*
X135098Y85553D01*
X135480Y85787D01*
X135821Y86079D01*
X136113Y86420D01*
X136347Y86802D01*
X136519Y87217D01*
X136623Y87653D01*
X136659Y88100D01*
X136623Y88547D01*
X136519Y88983D01*
X136347Y89398D01*
X136113Y89780D01*
X135821Y90121D01*
X135480Y90413D01*
X135098Y90647D01*
X134683Y90819D01*
X134247Y90924D01*
X133800Y90959D01*
D02*
G37*
G36*
X100300Y89059D02*
X99853Y89024D01*
X99417Y88919D01*
X99002Y88747D01*
X98620Y88513D01*
X98278Y88222D01*
X97987Y87880D01*
X97753Y87498D01*
X97581Y87083D01*
X97476Y86647D01*
X97441Y86200D01*
X97476Y85753D01*
X97581Y85317D01*
X97753Y84902D01*
X97987Y84520D01*
X98278Y84178D01*
X98620Y83887D01*
X99002Y83653D01*
X99417Y83481D01*
X99853Y83376D01*
X100300Y83341D01*
X100747Y83376D01*
X101183Y83481D01*
X101598Y83653D01*
X101980Y83887D01*
X102321Y84178D01*
X102613Y84520D01*
X102847Y84902D01*
X103019Y85317D01*
X103124Y85753D01*
X103159Y86200D01*
X103124Y86647D01*
X103019Y87083D01*
X102847Y87498D01*
X102613Y87880D01*
X102321Y88222D01*
X101980Y88513D01*
X101598Y88747D01*
X101183Y88919D01*
X100747Y89024D01*
X100300Y89059D01*
D02*
G37*
G36*
X108300D02*
X107853Y89024D01*
X107416Y88919D01*
X107002Y88747D01*
X106620Y88513D01*
X106278Y88222D01*
X105987Y87880D01*
X105753Y87498D01*
X105581Y87083D01*
X105476Y86647D01*
X105441Y86200D01*
X105476Y85753D01*
X105581Y85317D01*
X105753Y84902D01*
X105987Y84520D01*
X106278Y84178D01*
X106620Y83887D01*
X107002Y83653D01*
X107416Y83481D01*
X107853Y83376D01*
X108300Y83341D01*
X108747Y83376D01*
X109183Y83481D01*
X109598Y83653D01*
X109980Y83887D01*
X110321Y84178D01*
X110613Y84520D01*
X110847Y84902D01*
X111019Y85317D01*
X111124Y85753D01*
X111159Y86200D01*
X111124Y86647D01*
X111019Y87083D01*
X110847Y87498D01*
X110613Y87880D01*
X110321Y88222D01*
X109980Y88513D01*
X109598Y88747D01*
X109183Y88919D01*
X108747Y89024D01*
X108300Y89059D01*
D02*
G37*
G36*
X36200Y91559D02*
X35753Y91524D01*
X35317Y91419D01*
X34902Y91247D01*
X34520Y91013D01*
X34179Y90722D01*
X33887Y90380D01*
X33653Y89998D01*
X33481Y89583D01*
X33376Y89147D01*
X33341Y88700D01*
X33376Y88253D01*
X33481Y87817D01*
X33653Y87402D01*
X33887Y87020D01*
X34179Y86678D01*
X34520Y86387D01*
X34902Y86153D01*
X35317Y85981D01*
X35753Y85876D01*
X36200Y85841D01*
X36647Y85876D01*
X37083Y85981D01*
X37498Y86153D01*
X37880Y86387D01*
X38221Y86678D01*
X38513Y87020D01*
X38747Y87402D01*
X38919Y87817D01*
X39024Y88253D01*
X39059Y88700D01*
X39024Y89147D01*
X38919Y89583D01*
X38747Y89998D01*
X38513Y90380D01*
X38221Y90722D01*
X37880Y91013D01*
X37498Y91247D01*
X37083Y91419D01*
X36647Y91524D01*
X36200Y91559D01*
D02*
G37*
G36*
X140200Y91659D02*
X139753Y91623D01*
X139317Y91519D01*
X138902Y91347D01*
X138520Y91113D01*
X138178Y90821D01*
X137887Y90480D01*
X137653Y90098D01*
X137481Y89683D01*
X137376Y89247D01*
X137341Y88800D01*
X137376Y88353D01*
X137481Y87916D01*
X137653Y87502D01*
X137887Y87120D01*
X138178Y86778D01*
X138520Y86487D01*
X138902Y86253D01*
X139317Y86081D01*
X139753Y85976D01*
X140200Y85941D01*
X140647Y85976D01*
X141083Y86081D01*
X141498Y86253D01*
X141880Y86487D01*
X142221Y86778D01*
X142513Y87120D01*
X142747Y87502D01*
X142919Y87916D01*
X143024Y88353D01*
X143059Y88800D01*
X143024Y89247D01*
X142919Y89683D01*
X142747Y90098D01*
X142513Y90480D01*
X142221Y90821D01*
X141880Y91113D01*
X141498Y91347D01*
X141083Y91519D01*
X140647Y91623D01*
X140200Y91659D01*
D02*
G37*
G36*
X107900Y96759D02*
X107453Y96724D01*
X107016Y96619D01*
X106602Y96447D01*
X106220Y96213D01*
X105878Y95921D01*
X105587Y95580D01*
X105353Y95198D01*
X105181Y94783D01*
X105076Y94347D01*
X105041Y93900D01*
X105076Y93453D01*
X105181Y93017D01*
X105353Y92602D01*
X105587Y92220D01*
X105878Y91878D01*
X106220Y91587D01*
X106602Y91353D01*
X107016Y91181D01*
X107453Y91076D01*
X107900Y91041D01*
X108347Y91076D01*
X108783Y91181D01*
X109198Y91353D01*
X109580Y91587D01*
X109921Y91878D01*
X110213Y92220D01*
X110447Y92602D01*
X110619Y93017D01*
X110723Y93453D01*
X110759Y93900D01*
X110723Y94347D01*
X110619Y94783D01*
X110447Y95198D01*
X110213Y95580D01*
X109921Y95921D01*
X109580Y96213D01*
X109198Y96447D01*
X108783Y96619D01*
X108347Y96724D01*
X107900Y96759D01*
D02*
G37*
G36*
X52200Y91659D02*
X51753Y91623D01*
X51316Y91519D01*
X50902Y91347D01*
X50520Y91113D01*
X50178Y90821D01*
X49887Y90480D01*
X49653Y90098D01*
X49481Y89683D01*
X49376Y89247D01*
X49341Y88800D01*
X49376Y88353D01*
X49481Y87916D01*
X49653Y87502D01*
X49887Y87120D01*
X50178Y86778D01*
X50520Y86487D01*
X50902Y86253D01*
X51316Y86081D01*
X51753Y85976D01*
X52200Y85941D01*
X52647Y85976D01*
X53083Y86081D01*
X53498Y86253D01*
X53880Y86487D01*
X54221Y86778D01*
X54513Y87120D01*
X54747Y87502D01*
X54919Y87916D01*
X55023Y88353D01*
X55059Y88800D01*
X55023Y89247D01*
X54919Y89683D01*
X54747Y90098D01*
X54513Y90480D01*
X54221Y90821D01*
X53880Y91113D01*
X53498Y91347D01*
X53083Y91519D01*
X52647Y91623D01*
X52200Y91659D01*
D02*
G37*
G36*
X60200D02*
X59753Y91623D01*
X59317Y91519D01*
X58902Y91347D01*
X58520Y91113D01*
X58178Y90821D01*
X57887Y90480D01*
X57653Y90098D01*
X57481Y89683D01*
X57376Y89247D01*
X57341Y88800D01*
X57376Y88353D01*
X57481Y87916D01*
X57653Y87502D01*
X57887Y87120D01*
X58178Y86778D01*
X58520Y86487D01*
X58902Y86253D01*
X59317Y86081D01*
X59753Y85976D01*
X60200Y85941D01*
X60647Y85976D01*
X61083Y86081D01*
X61498Y86253D01*
X61880Y86487D01*
X62221Y86778D01*
X62513Y87120D01*
X62747Y87502D01*
X62919Y87916D01*
X63024Y88353D01*
X63059Y88800D01*
X63024Y89247D01*
X62919Y89683D01*
X62747Y90098D01*
X62513Y90480D01*
X62221Y90821D01*
X61880Y91113D01*
X61498Y91347D01*
X61083Y91519D01*
X60647Y91623D01*
X60200Y91659D01*
D02*
G37*
G36*
X108800Y74159D02*
X108353Y74124D01*
X107916Y74019D01*
X107502Y73847D01*
X107120Y73613D01*
X106778Y73321D01*
X106487Y72980D01*
X106253Y72598D01*
X106081Y72183D01*
X105976Y71747D01*
X105941Y71300D01*
X105976Y70853D01*
X106081Y70417D01*
X106253Y70002D01*
X106487Y69620D01*
X106778Y69278D01*
X107120Y68987D01*
X107502Y68753D01*
X107916Y68581D01*
X108353Y68476D01*
X108800Y68441D01*
X109247Y68476D01*
X109683Y68581D01*
X110098Y68753D01*
X110480Y68987D01*
X110821Y69278D01*
X111113Y69620D01*
X111347Y70002D01*
X111519Y70417D01*
X111623Y70853D01*
X111659Y71300D01*
X111623Y71747D01*
X111519Y72183D01*
X111347Y72598D01*
X111113Y72980D01*
X110821Y73321D01*
X110480Y73613D01*
X110098Y73847D01*
X109683Y74019D01*
X109247Y74124D01*
X108800Y74159D01*
D02*
G37*
G36*
X140200Y75659D02*
X139753Y75623D01*
X139317Y75519D01*
X138902Y75347D01*
X138520Y75113D01*
X138178Y74821D01*
X137887Y74480D01*
X137653Y74098D01*
X137481Y73683D01*
X137376Y73247D01*
X137341Y72800D01*
X137376Y72353D01*
X137481Y71916D01*
X137653Y71502D01*
X137887Y71119D01*
X138178Y70778D01*
X138520Y70487D01*
X138902Y70253D01*
X139317Y70081D01*
X139753Y69976D01*
X140200Y69941D01*
X140647Y69976D01*
X141083Y70081D01*
X141498Y70253D01*
X141880Y70487D01*
X142221Y70778D01*
X142513Y71119D01*
X142747Y71502D01*
X142919Y71916D01*
X143024Y72353D01*
X143059Y72800D01*
X143024Y73247D01*
X142919Y73683D01*
X142747Y74098D01*
X142513Y74480D01*
X142221Y74821D01*
X141880Y75113D01*
X141498Y75347D01*
X141083Y75519D01*
X140647Y75623D01*
X140200Y75659D01*
D02*
G37*
G36*
X100100Y73359D02*
X99653Y73323D01*
X99216Y73219D01*
X98802Y73047D01*
X98420Y72813D01*
X98078Y72521D01*
X97787Y72180D01*
X97553Y71798D01*
X97381Y71383D01*
X97276Y70947D01*
X97241Y70500D01*
X97276Y70053D01*
X97381Y69616D01*
X97553Y69202D01*
X97787Y68820D01*
X98078Y68478D01*
X98420Y68187D01*
X98802Y67953D01*
X99216Y67781D01*
X99653Y67676D01*
X100100Y67641D01*
X100547Y67676D01*
X100983Y67781D01*
X101398Y67953D01*
X101780Y68187D01*
X102121Y68478D01*
X102413Y68820D01*
X102647Y69202D01*
X102819Y69616D01*
X102923Y70053D01*
X102959Y70500D01*
X102923Y70947D01*
X102819Y71383D01*
X102647Y71798D01*
X102413Y72180D01*
X102121Y72521D01*
X101780Y72813D01*
X101398Y73047D01*
X100983Y73219D01*
X100547Y73323D01*
X100100Y73359D01*
D02*
G37*
G36*
X116100Y73559D02*
X115653Y73524D01*
X115217Y73419D01*
X114802Y73247D01*
X114420Y73013D01*
X114079Y72722D01*
X113787Y72380D01*
X113553Y71998D01*
X113381Y71583D01*
X113276Y71147D01*
X113241Y70700D01*
X113276Y70253D01*
X113381Y69817D01*
X113553Y69402D01*
X113787Y69020D01*
X114079Y68678D01*
X114420Y68387D01*
X114802Y68153D01*
X115217Y67981D01*
X115653Y67876D01*
X116100Y67841D01*
X116547Y67876D01*
X116983Y67981D01*
X117398Y68153D01*
X117780Y68387D01*
X118122Y68678D01*
X118413Y69020D01*
X118647Y69402D01*
X118819Y69817D01*
X118924Y70253D01*
X118959Y70700D01*
X118924Y71147D01*
X118819Y71583D01*
X118647Y71998D01*
X118413Y72380D01*
X118122Y72722D01*
X117780Y73013D01*
X117398Y73247D01*
X116983Y73419D01*
X116547Y73524D01*
X116100Y73559D01*
D02*
G37*
G36*
X60000Y80959D02*
X59553Y80924D01*
X59117Y80819D01*
X58702Y80647D01*
X58320Y80413D01*
X57978Y80121D01*
X57687Y79780D01*
X57453Y79398D01*
X57281Y78983D01*
X57176Y78547D01*
X57141Y78100D01*
X57176Y77653D01*
X57281Y77217D01*
X57453Y76802D01*
X57687Y76420D01*
X57978Y76079D01*
X58320Y75787D01*
X58702Y75553D01*
X59117Y75381D01*
X59553Y75276D01*
X60000Y75241D01*
X60447Y75276D01*
X60883Y75381D01*
X61298Y75553D01*
X61680Y75787D01*
X62021Y76079D01*
X62313Y76420D01*
X62547Y76802D01*
X62719Y77217D01*
X62824Y77653D01*
X62859Y78100D01*
X62824Y78547D01*
X62719Y78983D01*
X62547Y79398D01*
X62313Y79780D01*
X62021Y80121D01*
X61680Y80413D01*
X61298Y80647D01*
X60883Y80819D01*
X60447Y80924D01*
X60000Y80959D01*
D02*
G37*
G36*
X46400Y81459D02*
X45953Y81424D01*
X45517Y81319D01*
X45102Y81147D01*
X44720Y80913D01*
X44378Y80622D01*
X44087Y80280D01*
X43853Y79898D01*
X43681Y79483D01*
X43576Y79047D01*
X43541Y78600D01*
X43576Y78153D01*
X43681Y77717D01*
X43853Y77302D01*
X44087Y76920D01*
X44378Y76578D01*
X44720Y76287D01*
X45102Y76053D01*
X45517Y75881D01*
X45953Y75776D01*
X46400Y75741D01*
X46847Y75776D01*
X47283Y75881D01*
X47698Y76053D01*
X48080Y76287D01*
X48422Y76578D01*
X48713Y76920D01*
X48947Y77302D01*
X49119Y77717D01*
X49224Y78153D01*
X49259Y78600D01*
X49224Y79047D01*
X49119Y79483D01*
X48947Y79898D01*
X48713Y80280D01*
X48422Y80622D01*
X48080Y80913D01*
X47698Y81147D01*
X47283Y81319D01*
X46847Y81424D01*
X46400Y81459D01*
D02*
G37*
G36*
X140200Y83659D02*
X139753Y83624D01*
X139317Y83519D01*
X138902Y83347D01*
X138520Y83113D01*
X138178Y82821D01*
X137887Y82480D01*
X137653Y82098D01*
X137481Y81683D01*
X137376Y81247D01*
X137341Y80800D01*
X137376Y80353D01*
X137481Y79917D01*
X137653Y79502D01*
X137887Y79120D01*
X138178Y78778D01*
X138520Y78487D01*
X138902Y78253D01*
X139317Y78081D01*
X139753Y77976D01*
X140200Y77941D01*
X140647Y77976D01*
X141083Y78081D01*
X141498Y78253D01*
X141880Y78487D01*
X142221Y78778D01*
X142513Y79120D01*
X142747Y79502D01*
X142919Y79917D01*
X143024Y80353D01*
X143059Y80800D01*
X143024Y81247D01*
X142919Y81683D01*
X142747Y82098D01*
X142513Y82480D01*
X142221Y82821D01*
X141880Y83113D01*
X141498Y83347D01*
X141083Y83519D01*
X140647Y83624D01*
X140200Y83659D01*
D02*
G37*
G36*
X76100Y80959D02*
X75653Y80924D01*
X75216Y80819D01*
X74802Y80647D01*
X74420Y80413D01*
X74078Y80121D01*
X73787Y79780D01*
X73553Y79398D01*
X73381Y78983D01*
X73276Y78547D01*
X73241Y78100D01*
X73276Y77653D01*
X73381Y77217D01*
X73553Y76802D01*
X73787Y76420D01*
X74078Y76079D01*
X74420Y75787D01*
X74802Y75553D01*
X75216Y75381D01*
X75653Y75276D01*
X76100Y75241D01*
X76547Y75276D01*
X76983Y75381D01*
X77398Y75553D01*
X77780Y75787D01*
X78121Y76079D01*
X78413Y76420D01*
X78647Y76802D01*
X78819Y77217D01*
X78924Y77653D01*
X78959Y78100D01*
X78924Y78547D01*
X78819Y78983D01*
X78647Y79398D01*
X78413Y79780D01*
X78121Y80121D01*
X77780Y80413D01*
X77398Y80647D01*
X76983Y80819D01*
X76547Y80924D01*
X76100Y80959D01*
D02*
G37*
G36*
X116200Y81059D02*
X115753Y81024D01*
X115316Y80919D01*
X114902Y80747D01*
X114520Y80513D01*
X114178Y80222D01*
X113887Y79880D01*
X113653Y79498D01*
X113481Y79083D01*
X113376Y78647D01*
X113341Y78200D01*
X113376Y77753D01*
X113481Y77317D01*
X113653Y76902D01*
X113887Y76520D01*
X114178Y76178D01*
X114520Y75887D01*
X114902Y75653D01*
X115316Y75481D01*
X115753Y75376D01*
X116200Y75341D01*
X116647Y75376D01*
X117083Y75481D01*
X117498Y75653D01*
X117880Y75887D01*
X118221Y76178D01*
X118513Y76520D01*
X118747Y76902D01*
X118919Y77317D01*
X119024Y77753D01*
X119059Y78200D01*
X119024Y78647D01*
X118919Y79083D01*
X118747Y79498D01*
X118513Y79880D01*
X118221Y80222D01*
X117880Y80513D01*
X117498Y80747D01*
X117083Y80919D01*
X116647Y81024D01*
X116200Y81059D01*
D02*
G37*
G36*
X140600Y430108D02*
X139815Y430074D01*
X139036Y429972D01*
X138268Y429801D01*
X137519Y429565D01*
X136793Y429264D01*
X136096Y428901D01*
X135433Y428479D01*
X134809Y428001D01*
X134230Y427470D01*
X133699Y426890D01*
X133221Y426267D01*
X132798Y425604D01*
X132435Y424907D01*
X132135Y424181D01*
X131898Y423432D01*
X131728Y422664D01*
X131626Y421885D01*
X131591Y421100D01*
X131626Y420315D01*
X131728Y419536D01*
X131898Y418768D01*
X132135Y418019D01*
X132435Y417293D01*
X132798Y416596D01*
X133221Y415933D01*
X133699Y415309D01*
X134230Y414730D01*
X134809Y414199D01*
X135433Y413721D01*
X136096Y413298D01*
X136793Y412935D01*
X137519Y412635D01*
X138268Y412398D01*
X139036Y412228D01*
X139815Y412126D01*
X140600Y412091D01*
X141385Y412126D01*
X142164Y412228D01*
X142931Y412398D01*
X143681Y412635D01*
X144407Y412935D01*
X145104Y413298D01*
X145767Y413721D01*
X146390Y414199D01*
X146970Y414730D01*
X147501Y415309D01*
X147979Y415933D01*
X148401Y416596D01*
X148764Y417293D01*
X149065Y418019D01*
X149302Y418768D01*
X149472Y419536D01*
X149574Y420315D01*
X149608Y421100D01*
X149574Y421885D01*
X149472Y422664D01*
X149302Y423432D01*
X149065Y424181D01*
X148764Y424907D01*
X148401Y425604D01*
X147979Y426267D01*
X147501Y426890D01*
X146970Y427470D01*
X146390Y428001D01*
X145767Y428479D01*
X145104Y428901D01*
X144407Y429264D01*
X143681Y429565D01*
X142931Y429801D01*
X142164Y429972D01*
X141385Y430074D01*
X140600Y430108D01*
D02*
G37*
G36*
X38000Y430600D02*
X29500D01*
Y422100D01*
X38000D01*
Y430600D01*
D02*
G37*
G36*
X89800Y430108D02*
X89015Y430074D01*
X88236Y429972D01*
X87468Y429801D01*
X86719Y429565D01*
X85993Y429264D01*
X85296Y428901D01*
X84633Y428479D01*
X84009Y428001D01*
X83430Y427470D01*
X82899Y426890D01*
X82421Y426267D01*
X81998Y425604D01*
X81635Y424907D01*
X81335Y424181D01*
X81098Y423432D01*
X80928Y422664D01*
X80826Y421885D01*
X80791Y421100D01*
X80826Y420315D01*
X80928Y419536D01*
X81098Y418768D01*
X81335Y418019D01*
X81635Y417293D01*
X81998Y416596D01*
X82421Y415933D01*
X82899Y415309D01*
X83430Y414730D01*
X84009Y414199D01*
X84633Y413721D01*
X85296Y413298D01*
X85993Y412935D01*
X86719Y412635D01*
X87468Y412398D01*
X88236Y412228D01*
X89015Y412126D01*
X89800Y412091D01*
X90585Y412126D01*
X91364Y412228D01*
X92132Y412398D01*
X92881Y412635D01*
X93607Y412935D01*
X94304Y413298D01*
X94967Y413721D01*
X95590Y414199D01*
X96170Y414730D01*
X96701Y415309D01*
X97179Y415933D01*
X97601Y416596D01*
X97964Y417293D01*
X98265Y418019D01*
X98502Y418768D01*
X98672Y419536D01*
X98774Y420315D01*
X98808Y421100D01*
X98774Y421885D01*
X98672Y422664D01*
X98502Y423432D01*
X98265Y424181D01*
X97964Y424907D01*
X97601Y425604D01*
X97179Y426267D01*
X96701Y426890D01*
X96170Y427470D01*
X95590Y428001D01*
X94967Y428479D01*
X94304Y428901D01*
X93607Y429264D01*
X92881Y429565D01*
X92132Y429801D01*
X91364Y429972D01*
X90585Y430074D01*
X89800Y430108D01*
D02*
G37*
G36*
X115200D02*
X114415Y430074D01*
X113636Y429972D01*
X112868Y429801D01*
X112119Y429565D01*
X111393Y429264D01*
X110696Y428901D01*
X110033Y428479D01*
X109409Y428001D01*
X108830Y427470D01*
X108299Y426890D01*
X107821Y426267D01*
X107398Y425604D01*
X107035Y424907D01*
X106735Y424181D01*
X106498Y423432D01*
X106328Y422664D01*
X106226Y421885D01*
X106191Y421100D01*
X106226Y420315D01*
X106328Y419536D01*
X106498Y418768D01*
X106735Y418019D01*
X107035Y417293D01*
X107398Y416596D01*
X107821Y415933D01*
X108299Y415309D01*
X108830Y414730D01*
X109409Y414199D01*
X110033Y413721D01*
X110696Y413298D01*
X111393Y412935D01*
X112119Y412635D01*
X112868Y412398D01*
X113636Y412228D01*
X114415Y412126D01*
X115200Y412091D01*
X115985Y412126D01*
X116764Y412228D01*
X117531Y412398D01*
X118281Y412635D01*
X119007Y412935D01*
X119704Y413298D01*
X120367Y413721D01*
X120990Y414199D01*
X121570Y414730D01*
X122101Y415309D01*
X122579Y415933D01*
X123001Y416596D01*
X123364Y417293D01*
X123665Y418019D01*
X123902Y418768D01*
X124072Y419536D01*
X124174Y420315D01*
X124208Y421100D01*
X124174Y421885D01*
X124072Y422664D01*
X123902Y423432D01*
X123665Y424181D01*
X123364Y424907D01*
X123001Y425604D01*
X122579Y426267D01*
X122101Y426890D01*
X121570Y427470D01*
X120990Y428001D01*
X120367Y428479D01*
X119704Y428901D01*
X119007Y429264D01*
X118281Y429565D01*
X117531Y429801D01*
X116764Y429972D01*
X115985Y430074D01*
X115200Y430108D01*
D02*
G37*
G36*
X48500Y430600D02*
X40000D01*
Y422100D01*
X48500D01*
Y430600D01*
D02*
G37*
G36*
X64400Y455508D02*
X63615Y455474D01*
X62836Y455372D01*
X62068Y455201D01*
X61319Y454965D01*
X60593Y454664D01*
X59896Y454301D01*
X59233Y453879D01*
X58609Y453401D01*
X58030Y452870D01*
X57499Y452290D01*
X57021Y451667D01*
X56598Y451004D01*
X56235Y450307D01*
X55935Y449581D01*
X55698Y448831D01*
X55528Y448064D01*
X55426Y447285D01*
X55391Y446500D01*
X55426Y445715D01*
X55528Y444936D01*
X55698Y444168D01*
X55935Y443419D01*
X56235Y442693D01*
X56598Y441996D01*
X57021Y441333D01*
X57499Y440709D01*
X58030Y440130D01*
X58609Y439599D01*
X59233Y439120D01*
X59896Y438698D01*
X60593Y438335D01*
X61319Y438035D01*
X62068Y437798D01*
X62836Y437628D01*
X63615Y437526D01*
X64400Y437491D01*
X65185Y437526D01*
X65964Y437628D01*
X66732Y437798D01*
X67481Y438035D01*
X68207Y438335D01*
X68904Y438698D01*
X69567Y439120D01*
X70191Y439599D01*
X70770Y440130D01*
X71301Y440709D01*
X71779Y441333D01*
X72201Y441996D01*
X72564Y442693D01*
X72865Y443419D01*
X73102Y444168D01*
X73272Y444936D01*
X73374Y445715D01*
X73408Y446500D01*
X73374Y447285D01*
X73272Y448064D01*
X73102Y448831D01*
X72865Y449581D01*
X72564Y450307D01*
X72201Y451004D01*
X71779Y451667D01*
X71301Y452290D01*
X70770Y452870D01*
X70191Y453401D01*
X69567Y453879D01*
X68904Y454301D01*
X68207Y454664D01*
X67481Y454965D01*
X66732Y455201D01*
X65964Y455372D01*
X65185Y455474D01*
X64400Y455508D01*
D02*
G37*
G36*
X89800D02*
X89015Y455474D01*
X88236Y455372D01*
X87468Y455201D01*
X86719Y454965D01*
X85993Y454664D01*
X85296Y454301D01*
X84633Y453879D01*
X84009Y453401D01*
X83430Y452870D01*
X82899Y452290D01*
X82421Y451667D01*
X81998Y451004D01*
X81635Y450307D01*
X81335Y449581D01*
X81098Y448831D01*
X80928Y448064D01*
X80826Y447285D01*
X80791Y446500D01*
X80826Y445715D01*
X80928Y444936D01*
X81098Y444168D01*
X81335Y443419D01*
X81635Y442693D01*
X81998Y441996D01*
X82421Y441333D01*
X82899Y440709D01*
X83430Y440130D01*
X84009Y439599D01*
X84633Y439120D01*
X85296Y438698D01*
X85993Y438335D01*
X86719Y438035D01*
X87468Y437798D01*
X88236Y437628D01*
X89015Y437526D01*
X89800Y437491D01*
X90585Y437526D01*
X91364Y437628D01*
X92132Y437798D01*
X92881Y438035D01*
X93607Y438335D01*
X94304Y438698D01*
X94967Y439120D01*
X95590Y439599D01*
X96170Y440130D01*
X96701Y440709D01*
X97179Y441333D01*
X97601Y441996D01*
X97964Y442693D01*
X98265Y443419D01*
X98502Y444168D01*
X98672Y444936D01*
X98774Y445715D01*
X98808Y446500D01*
X98774Y447285D01*
X98672Y448064D01*
X98502Y448831D01*
X98265Y449581D01*
X97964Y450307D01*
X97601Y451004D01*
X97179Y451667D01*
X96701Y452290D01*
X96170Y452870D01*
X95590Y453401D01*
X94967Y453879D01*
X94304Y454301D01*
X93607Y454664D01*
X92881Y454965D01*
X92132Y455201D01*
X91364Y455372D01*
X90585Y455474D01*
X89800Y455508D01*
D02*
G37*
G36*
X38000Y445500D02*
X29550D01*
X29635Y444849D01*
X29815Y444039D01*
X30064Y443248D01*
X30382Y442481D01*
X30765Y441745D01*
X31210Y441046D01*
X31716Y440388D01*
X32276Y439776D01*
X32888Y439216D01*
X33546Y438711D01*
X34245Y438265D01*
X34981Y437882D01*
X35748Y437564D01*
X36539Y437315D01*
X37349Y437135D01*
X38000Y437050D01*
Y445500D01*
D02*
G37*
G36*
X48450D02*
X40000D01*
Y437050D01*
X40651Y437135D01*
X41461Y437315D01*
X42252Y437564D01*
X43019Y437882D01*
X43754Y438265D01*
X44454Y438711D01*
X45112Y439216D01*
X45724Y439776D01*
X46284Y440388D01*
X46789Y441046D01*
X47235Y441745D01*
X47618Y442481D01*
X47935Y443248D01*
X48185Y444039D01*
X48364Y444849D01*
X48450Y445500D01*
D02*
G37*
G36*
X115200Y353908D02*
X114415Y353874D01*
X113636Y353772D01*
X112868Y353601D01*
X112119Y353365D01*
X111393Y353064D01*
X110696Y352701D01*
X110033Y352279D01*
X109409Y351801D01*
X108830Y351270D01*
X108299Y350690D01*
X107821Y350067D01*
X107398Y349404D01*
X107035Y348707D01*
X106735Y347981D01*
X106498Y347231D01*
X106328Y346464D01*
X106226Y345685D01*
X106191Y344900D01*
X106226Y344115D01*
X106328Y343336D01*
X106498Y342568D01*
X106735Y341819D01*
X107035Y341093D01*
X107398Y340396D01*
X107821Y339733D01*
X108299Y339109D01*
X108830Y338530D01*
X109409Y337999D01*
X110033Y337520D01*
X110696Y337098D01*
X111393Y336735D01*
X112119Y336435D01*
X112868Y336198D01*
X113636Y336028D01*
X114415Y335926D01*
X115200Y335891D01*
X115985Y335926D01*
X116764Y336028D01*
X117531Y336198D01*
X118281Y336435D01*
X119007Y336735D01*
X119704Y337098D01*
X120367Y337520D01*
X120990Y337999D01*
X121570Y338530D01*
X122101Y339109D01*
X122579Y339733D01*
X123001Y340396D01*
X123364Y341093D01*
X123665Y341819D01*
X123902Y342568D01*
X124072Y343336D01*
X124174Y344115D01*
X124208Y344900D01*
X124174Y345685D01*
X124072Y346464D01*
X123902Y347231D01*
X123665Y347981D01*
X123364Y348707D01*
X123001Y349404D01*
X122579Y350067D01*
X122101Y350690D01*
X121570Y351270D01*
X120990Y351801D01*
X120367Y352279D01*
X119704Y352701D01*
X119007Y353064D01*
X118281Y353365D01*
X117531Y353601D01*
X116764Y353772D01*
X115985Y353874D01*
X115200Y353908D01*
D02*
G37*
G36*
X140600D02*
X139815Y353874D01*
X139036Y353772D01*
X138268Y353601D01*
X137519Y353365D01*
X136793Y353064D01*
X136096Y352701D01*
X135433Y352279D01*
X134809Y351801D01*
X134230Y351270D01*
X133699Y350690D01*
X133221Y350067D01*
X132798Y349404D01*
X132435Y348707D01*
X132135Y347981D01*
X131898Y347231D01*
X131728Y346464D01*
X131626Y345685D01*
X131591Y344900D01*
X131626Y344115D01*
X131728Y343336D01*
X131898Y342568D01*
X132135Y341819D01*
X132435Y341093D01*
X132798Y340396D01*
X133221Y339733D01*
X133699Y339109D01*
X134230Y338530D01*
X134809Y337999D01*
X135433Y337520D01*
X136096Y337098D01*
X136793Y336735D01*
X137519Y336435D01*
X138268Y336198D01*
X139036Y336028D01*
X139815Y335926D01*
X140600Y335891D01*
X141385Y335926D01*
X142164Y336028D01*
X142931Y336198D01*
X143681Y336435D01*
X144407Y336735D01*
X145104Y337098D01*
X145767Y337520D01*
X146390Y337999D01*
X146970Y338530D01*
X147501Y339109D01*
X147979Y339733D01*
X148401Y340396D01*
X148764Y341093D01*
X149065Y341819D01*
X149302Y342568D01*
X149472Y343336D01*
X149574Y344115D01*
X149608Y344900D01*
X149574Y345685D01*
X149472Y346464D01*
X149302Y347231D01*
X149065Y347981D01*
X148764Y348707D01*
X148401Y349404D01*
X147979Y350067D01*
X147501Y350690D01*
X146970Y351270D01*
X146390Y351801D01*
X145767Y352279D01*
X145104Y352701D01*
X144407Y353064D01*
X143681Y353365D01*
X142931Y353601D01*
X142164Y353772D01*
X141385Y353874D01*
X140600Y353908D01*
D02*
G37*
G36*
X64400D02*
X63615Y353874D01*
X62836Y353772D01*
X62068Y353601D01*
X61319Y353365D01*
X60593Y353064D01*
X59896Y352701D01*
X59233Y352279D01*
X58609Y351801D01*
X58030Y351270D01*
X57499Y350690D01*
X57021Y350067D01*
X56598Y349404D01*
X56235Y348707D01*
X55935Y347981D01*
X55698Y347231D01*
X55528Y346464D01*
X55426Y345685D01*
X55391Y344900D01*
X55426Y344115D01*
X55528Y343336D01*
X55698Y342568D01*
X55935Y341819D01*
X56235Y341093D01*
X56598Y340396D01*
X57021Y339733D01*
X57499Y339109D01*
X58030Y338530D01*
X58609Y337999D01*
X59233Y337520D01*
X59896Y337098D01*
X60593Y336735D01*
X61319Y336435D01*
X62068Y336198D01*
X62836Y336028D01*
X63615Y335926D01*
X64400Y335891D01*
X65185Y335926D01*
X65964Y336028D01*
X66732Y336198D01*
X67481Y336435D01*
X68207Y336735D01*
X68904Y337098D01*
X69567Y337520D01*
X70191Y337999D01*
X70770Y338530D01*
X71301Y339109D01*
X71779Y339733D01*
X72201Y340396D01*
X72564Y341093D01*
X72865Y341819D01*
X73102Y342568D01*
X73272Y343336D01*
X73374Y344115D01*
X73408Y344900D01*
X73374Y345685D01*
X73272Y346464D01*
X73102Y347231D01*
X72865Y347981D01*
X72564Y348707D01*
X72201Y349404D01*
X71779Y350067D01*
X71301Y350690D01*
X70770Y351270D01*
X70191Y351801D01*
X69567Y352279D01*
X68904Y352701D01*
X68207Y353064D01*
X67481Y353365D01*
X66732Y353601D01*
X65964Y353772D01*
X65185Y353874D01*
X64400Y353908D01*
D02*
G37*
G36*
X89800D02*
X89015Y353874D01*
X88236Y353772D01*
X87468Y353601D01*
X86719Y353365D01*
X85993Y353064D01*
X85296Y352701D01*
X84633Y352279D01*
X84009Y351801D01*
X83430Y351270D01*
X82899Y350690D01*
X82421Y350067D01*
X81998Y349404D01*
X81635Y348707D01*
X81335Y347981D01*
X81098Y347231D01*
X80928Y346464D01*
X80826Y345685D01*
X80791Y344900D01*
X80826Y344115D01*
X80928Y343336D01*
X81098Y342568D01*
X81335Y341819D01*
X81635Y341093D01*
X81998Y340396D01*
X82421Y339733D01*
X82899Y339109D01*
X83430Y338530D01*
X84009Y337999D01*
X84633Y337520D01*
X85296Y337098D01*
X85993Y336735D01*
X86719Y336435D01*
X87468Y336198D01*
X88236Y336028D01*
X89015Y335926D01*
X89800Y335891D01*
X90585Y335926D01*
X91364Y336028D01*
X92132Y336198D01*
X92881Y336435D01*
X93607Y336735D01*
X94304Y337098D01*
X94967Y337520D01*
X95590Y337999D01*
X96170Y338530D01*
X96701Y339109D01*
X97179Y339733D01*
X97601Y340396D01*
X97964Y341093D01*
X98265Y341819D01*
X98502Y342568D01*
X98672Y343336D01*
X98774Y344115D01*
X98808Y344900D01*
X98774Y345685D01*
X98672Y346464D01*
X98502Y347231D01*
X98265Y347981D01*
X97964Y348707D01*
X97601Y349404D01*
X97179Y350067D01*
X96701Y350690D01*
X96170Y351270D01*
X95590Y351801D01*
X94967Y352279D01*
X94304Y352701D01*
X93607Y353064D01*
X92881Y353365D01*
X92132Y353601D01*
X91364Y353772D01*
X90585Y353874D01*
X89800Y353908D01*
D02*
G37*
G36*
X38000Y354350D02*
X37349Y354264D01*
X36539Y354085D01*
X35748Y353835D01*
X34981Y353518D01*
X34245Y353135D01*
X33546Y352689D01*
X32888Y352184D01*
X32276Y351624D01*
X31716Y351012D01*
X31210Y350354D01*
X30765Y349654D01*
X30382Y348919D01*
X30064Y348152D01*
X29815Y347361D01*
X29635Y346551D01*
X29550Y345900D01*
X38000D01*
Y354350D01*
D02*
G37*
G36*
X48500Y420100D02*
X40000D01*
Y411600D01*
X48500D01*
Y420100D01*
D02*
G37*
G36*
X64400Y430108D02*
X63615Y430074D01*
X62836Y429972D01*
X62068Y429801D01*
X61319Y429565D01*
X60593Y429264D01*
X59896Y428901D01*
X59233Y428479D01*
X58609Y428001D01*
X58030Y427470D01*
X57499Y426890D01*
X57021Y426267D01*
X56598Y425604D01*
X56235Y424907D01*
X55935Y424181D01*
X55698Y423432D01*
X55528Y422664D01*
X55426Y421885D01*
X55391Y421100D01*
X55426Y420315D01*
X55528Y419536D01*
X55698Y418768D01*
X55935Y418019D01*
X56235Y417293D01*
X56598Y416596D01*
X57021Y415933D01*
X57499Y415309D01*
X58030Y414730D01*
X58609Y414199D01*
X59233Y413721D01*
X59896Y413298D01*
X60593Y412935D01*
X61319Y412635D01*
X62068Y412398D01*
X62836Y412228D01*
X63615Y412126D01*
X64400Y412091D01*
X65185Y412126D01*
X65964Y412228D01*
X66732Y412398D01*
X67481Y412635D01*
X68207Y412935D01*
X68904Y413298D01*
X69567Y413721D01*
X70191Y414199D01*
X70770Y414730D01*
X71301Y415309D01*
X71779Y415933D01*
X72201Y416596D01*
X72564Y417293D01*
X72865Y418019D01*
X73102Y418768D01*
X73272Y419536D01*
X73374Y420315D01*
X73408Y421100D01*
X73374Y421885D01*
X73272Y422664D01*
X73102Y423432D01*
X72865Y424181D01*
X72564Y424907D01*
X72201Y425604D01*
X71779Y426267D01*
X71301Y426890D01*
X70770Y427470D01*
X70191Y428001D01*
X69567Y428479D01*
X68904Y428901D01*
X68207Y429264D01*
X67481Y429565D01*
X66732Y429801D01*
X65964Y429972D01*
X65185Y430074D01*
X64400Y430108D01*
D02*
G37*
G36*
X40000Y354350D02*
Y345900D01*
X48450D01*
X48364Y346551D01*
X48185Y347361D01*
X47935Y348152D01*
X47618Y348919D01*
X47235Y349654D01*
X46789Y350354D01*
X46284Y351012D01*
X45724Y351624D01*
X45112Y352184D01*
X44454Y352689D01*
X43754Y353135D01*
X43019Y353518D01*
X42252Y353835D01*
X41461Y354085D01*
X40651Y354264D01*
X40000Y354350D01*
D02*
G37*
G36*
X38000Y420100D02*
X29500D01*
Y411600D01*
X38000D01*
Y420100D01*
D02*
G37*
G36*
X115200Y455508D02*
X114415Y455474D01*
X113636Y455372D01*
X112868Y455201D01*
X112119Y454965D01*
X111393Y454664D01*
X110696Y454301D01*
X110033Y453879D01*
X109409Y453401D01*
X108830Y452870D01*
X108299Y452290D01*
X107821Y451667D01*
X107398Y451004D01*
X107035Y450307D01*
X106735Y449581D01*
X106498Y448831D01*
X106328Y448064D01*
X106226Y447285D01*
X106191Y446500D01*
X106226Y445715D01*
X106328Y444936D01*
X106498Y444168D01*
X106735Y443419D01*
X107035Y442693D01*
X107398Y441996D01*
X107821Y441333D01*
X108299Y440709D01*
X108830Y440130D01*
X109409Y439599D01*
X110033Y439120D01*
X110696Y438698D01*
X111393Y438335D01*
X112119Y438035D01*
X112868Y437798D01*
X113636Y437628D01*
X114415Y437526D01*
X115200Y437491D01*
X115985Y437526D01*
X116764Y437628D01*
X117531Y437798D01*
X118281Y438035D01*
X119007Y438335D01*
X119704Y438698D01*
X120367Y439120D01*
X120990Y439599D01*
X121570Y440130D01*
X122101Y440709D01*
X122579Y441333D01*
X123001Y441996D01*
X123364Y442693D01*
X123665Y443419D01*
X123902Y444168D01*
X124072Y444936D01*
X124174Y445715D01*
X124208Y446500D01*
X124174Y447285D01*
X124072Y448064D01*
X123902Y448831D01*
X123665Y449581D01*
X123364Y450307D01*
X123001Y451004D01*
X122579Y451667D01*
X122101Y452290D01*
X121570Y452870D01*
X120990Y453401D01*
X120367Y453879D01*
X119704Y454301D01*
X119007Y454664D01*
X118281Y454965D01*
X117531Y455201D01*
X116764Y455372D01*
X115985Y455474D01*
X115200Y455508D01*
D02*
G37*
G36*
X48500Y481400D02*
X40000D01*
Y472900D01*
X48500D01*
Y481400D01*
D02*
G37*
G36*
X139600Y481350D02*
X138949Y481264D01*
X138139Y481085D01*
X137348Y480835D01*
X136581Y480518D01*
X135845Y480135D01*
X135146Y479689D01*
X134488Y479184D01*
X133876Y478624D01*
X133315Y478012D01*
X132810Y477354D01*
X132365Y476654D01*
X131982Y475919D01*
X131664Y475152D01*
X131415Y474361D01*
X131235Y473551D01*
X131150Y472900D01*
X139600D01*
Y481350D01*
D02*
G37*
G36*
X115200Y480908D02*
X114415Y480874D01*
X113636Y480772D01*
X112868Y480602D01*
X112119Y480365D01*
X111393Y480064D01*
X110696Y479701D01*
X110033Y479279D01*
X109409Y478801D01*
X108830Y478270D01*
X108299Y477691D01*
X107821Y477067D01*
X107398Y476404D01*
X107035Y475707D01*
X106735Y474981D01*
X106498Y474231D01*
X106328Y473464D01*
X106226Y472685D01*
X106191Y471900D01*
X106226Y471115D01*
X106328Y470336D01*
X106498Y469568D01*
X106735Y468819D01*
X107035Y468093D01*
X107398Y467396D01*
X107821Y466733D01*
X108299Y466109D01*
X108830Y465530D01*
X109409Y464999D01*
X110033Y464520D01*
X110696Y464098D01*
X111393Y463735D01*
X112119Y463435D01*
X112868Y463198D01*
X113636Y463028D01*
X114415Y462926D01*
X115200Y462891D01*
X115985Y462926D01*
X116764Y463028D01*
X117531Y463198D01*
X118281Y463435D01*
X119007Y463735D01*
X119704Y464098D01*
X120367Y464520D01*
X120990Y464999D01*
X121570Y465530D01*
X122101Y466109D01*
X122579Y466733D01*
X123001Y467396D01*
X123364Y468093D01*
X123665Y468819D01*
X123902Y469568D01*
X124072Y470336D01*
X124174Y471115D01*
X124208Y471900D01*
X124174Y472685D01*
X124072Y473464D01*
X123902Y474231D01*
X123665Y474981D01*
X123364Y475707D01*
X123001Y476404D01*
X122579Y477067D01*
X122101Y477691D01*
X121570Y478270D01*
X120990Y478801D01*
X120367Y479279D01*
X119704Y479701D01*
X119007Y480064D01*
X118281Y480365D01*
X117531Y480602D01*
X116764Y480772D01*
X115985Y480874D01*
X115200Y480908D01*
D02*
G37*
G36*
X38000Y481400D02*
X29500D01*
Y472900D01*
X38000D01*
Y481400D01*
D02*
G37*
G36*
X141600Y481350D02*
Y472900D01*
X150050D01*
X149964Y473551D01*
X149785Y474361D01*
X149535Y475152D01*
X149218Y475919D01*
X148835Y476654D01*
X148389Y477354D01*
X147884Y478012D01*
X147324Y478624D01*
X146712Y479184D01*
X146054Y479689D01*
X145354Y480135D01*
X144619Y480518D01*
X143852Y480835D01*
X143061Y481085D01*
X142251Y481264D01*
X141600Y481350D01*
D02*
G37*
G36*
X139600Y496300D02*
X131150D01*
X131235Y495649D01*
X131415Y494839D01*
X131664Y494048D01*
X131982Y493281D01*
X132365Y492545D01*
X132810Y491846D01*
X133315Y491188D01*
X133876Y490576D01*
X134488Y490015D01*
X135146Y489510D01*
X135845Y489065D01*
X136581Y488682D01*
X137348Y488364D01*
X138139Y488115D01*
X138949Y487935D01*
X139600Y487850D01*
Y496300D01*
D02*
G37*
G36*
X150050D02*
X141600D01*
Y487850D01*
X142251Y487935D01*
X143061Y488115D01*
X143852Y488364D01*
X144619Y488682D01*
X145354Y489065D01*
X146054Y489510D01*
X146712Y490015D01*
X147324Y490576D01*
X147884Y491188D01*
X148389Y491846D01*
X148835Y492545D01*
X149218Y493281D01*
X149535Y494048D01*
X149785Y494839D01*
X149964Y495649D01*
X150050Y496300D01*
D02*
G37*
G36*
X38000Y496300D02*
X29550D01*
X29635Y495649D01*
X29815Y494839D01*
X30064Y494048D01*
X30382Y493281D01*
X30765Y492545D01*
X31210Y491846D01*
X31716Y491188D01*
X32276Y490576D01*
X32888Y490015D01*
X33546Y489510D01*
X34245Y489065D01*
X34981Y488682D01*
X35748Y488364D01*
X36539Y488115D01*
X37349Y487935D01*
X38000Y487850D01*
Y496300D01*
D02*
G37*
G36*
X48450D02*
X40000D01*
Y487850D01*
X40651Y487935D01*
X41461Y488115D01*
X42252Y488364D01*
X43019Y488682D01*
X43754Y489065D01*
X44454Y489510D01*
X45112Y490015D01*
X45724Y490576D01*
X46284Y491188D01*
X46789Y491846D01*
X47235Y492545D01*
X47618Y493281D01*
X47935Y494048D01*
X48185Y494839D01*
X48364Y495649D01*
X48450Y496300D01*
D02*
G37*
G36*
X40000Y455950D02*
Y447500D01*
X48450D01*
X48364Y448151D01*
X48185Y448961D01*
X47935Y449752D01*
X47618Y450519D01*
X47235Y451254D01*
X46789Y451954D01*
X46284Y452612D01*
X45724Y453224D01*
X45112Y453784D01*
X44454Y454289D01*
X43754Y454735D01*
X43019Y455118D01*
X42252Y455435D01*
X41461Y455685D01*
X40651Y455864D01*
X40000Y455950D01*
D02*
G37*
G36*
X38000Y470900D02*
X29500D01*
Y462400D01*
X38000D01*
Y470900D01*
D02*
G37*
G36*
X140600Y455508D02*
X139815Y455474D01*
X139036Y455372D01*
X138268Y455201D01*
X137519Y454965D01*
X136793Y454664D01*
X136096Y454301D01*
X135433Y453879D01*
X134809Y453401D01*
X134230Y452870D01*
X133699Y452290D01*
X133221Y451667D01*
X132798Y451004D01*
X132435Y450307D01*
X132135Y449581D01*
X131898Y448831D01*
X131728Y448064D01*
X131626Y447285D01*
X131591Y446500D01*
X131626Y445715D01*
X131728Y444936D01*
X131898Y444168D01*
X132135Y443419D01*
X132435Y442693D01*
X132798Y441996D01*
X133221Y441333D01*
X133699Y440709D01*
X134230Y440130D01*
X134809Y439599D01*
X135433Y439120D01*
X136096Y438698D01*
X136793Y438335D01*
X137519Y438035D01*
X138268Y437798D01*
X139036Y437628D01*
X139815Y437526D01*
X140600Y437491D01*
X141385Y437526D01*
X142164Y437628D01*
X142931Y437798D01*
X143681Y438035D01*
X144407Y438335D01*
X145104Y438698D01*
X145767Y439120D01*
X146390Y439599D01*
X146970Y440130D01*
X147501Y440709D01*
X147979Y441333D01*
X148401Y441996D01*
X148764Y442693D01*
X149065Y443419D01*
X149302Y444168D01*
X149472Y444936D01*
X149574Y445715D01*
X149608Y446500D01*
X149574Y447285D01*
X149472Y448064D01*
X149302Y448831D01*
X149065Y449581D01*
X148764Y450307D01*
X148401Y451004D01*
X147979Y451667D01*
X147501Y452290D01*
X146970Y452870D01*
X146390Y453401D01*
X145767Y453879D01*
X145104Y454301D01*
X144407Y454664D01*
X143681Y454965D01*
X142931Y455201D01*
X142164Y455372D01*
X141385Y455474D01*
X140600Y455508D01*
D02*
G37*
G36*
X38000Y455950D02*
X37349Y455864D01*
X36539Y455685D01*
X35748Y455435D01*
X34981Y455118D01*
X34245Y454735D01*
X33546Y454289D01*
X32888Y453784D01*
X32276Y453224D01*
X31716Y452612D01*
X31210Y451954D01*
X30765Y451254D01*
X30382Y450519D01*
X30064Y449752D01*
X29815Y448961D01*
X29635Y448151D01*
X29550Y447500D01*
X38000D01*
Y455950D01*
D02*
G37*
G36*
X48500Y470900D02*
X40000D01*
Y462400D01*
X48500D01*
Y470900D01*
D02*
G37*
G36*
X64400Y480908D02*
X63615Y480874D01*
X62836Y480772D01*
X62068Y480602D01*
X61319Y480365D01*
X60593Y480064D01*
X59896Y479701D01*
X59233Y479279D01*
X58609Y478801D01*
X58030Y478270D01*
X57499Y477691D01*
X57021Y477067D01*
X56598Y476404D01*
X56235Y475707D01*
X55935Y474981D01*
X55698Y474231D01*
X55528Y473464D01*
X55426Y472685D01*
X55391Y471900D01*
X55426Y471115D01*
X55528Y470336D01*
X55698Y469568D01*
X55935Y468819D01*
X56235Y468093D01*
X56598Y467396D01*
X57021Y466733D01*
X57499Y466109D01*
X58030Y465530D01*
X58609Y464999D01*
X59233Y464520D01*
X59896Y464098D01*
X60593Y463735D01*
X61319Y463435D01*
X62068Y463198D01*
X62836Y463028D01*
X63615Y462926D01*
X64400Y462891D01*
X65185Y462926D01*
X65964Y463028D01*
X66732Y463198D01*
X67481Y463435D01*
X68207Y463735D01*
X68904Y464098D01*
X69567Y464520D01*
X70191Y464999D01*
X70770Y465530D01*
X71301Y466109D01*
X71779Y466733D01*
X72201Y467396D01*
X72564Y468093D01*
X72865Y468819D01*
X73102Y469568D01*
X73272Y470336D01*
X73374Y471115D01*
X73408Y471900D01*
X73374Y472685D01*
X73272Y473464D01*
X73102Y474231D01*
X72865Y474981D01*
X72564Y475707D01*
X72201Y476404D01*
X71779Y477067D01*
X71301Y477691D01*
X70770Y478270D01*
X70191Y478801D01*
X69567Y479279D01*
X68904Y479701D01*
X68207Y480064D01*
X67481Y480365D01*
X66732Y480602D01*
X65964Y480772D01*
X65185Y480874D01*
X64400Y480908D01*
D02*
G37*
G36*
X89800D02*
X89015Y480874D01*
X88236Y480772D01*
X87468Y480602D01*
X86719Y480365D01*
X85993Y480064D01*
X85296Y479701D01*
X84633Y479279D01*
X84009Y478801D01*
X83430Y478270D01*
X82899Y477691D01*
X82421Y477067D01*
X81998Y476404D01*
X81635Y475707D01*
X81335Y474981D01*
X81098Y474231D01*
X80928Y473464D01*
X80826Y472685D01*
X80791Y471900D01*
X80826Y471115D01*
X80928Y470336D01*
X81098Y469568D01*
X81335Y468819D01*
X81635Y468093D01*
X81998Y467396D01*
X82421Y466733D01*
X82899Y466109D01*
X83430Y465530D01*
X84009Y464999D01*
X84633Y464520D01*
X85296Y464098D01*
X85993Y463735D01*
X86719Y463435D01*
X87468Y463198D01*
X88236Y463028D01*
X89015Y462926D01*
X89800Y462891D01*
X90585Y462926D01*
X91364Y463028D01*
X92132Y463198D01*
X92881Y463435D01*
X93607Y463735D01*
X94304Y464098D01*
X94967Y464520D01*
X95590Y464999D01*
X96170Y465530D01*
X96701Y466109D01*
X97179Y466733D01*
X97601Y467396D01*
X97964Y468093D01*
X98265Y468819D01*
X98502Y469568D01*
X98672Y470336D01*
X98774Y471115D01*
X98808Y471900D01*
X98774Y472685D01*
X98672Y473464D01*
X98502Y474231D01*
X98265Y474981D01*
X97964Y475707D01*
X97601Y476404D01*
X97179Y477067D01*
X96701Y477691D01*
X96170Y478270D01*
X95590Y478801D01*
X94967Y479279D01*
X94304Y479701D01*
X93607Y480064D01*
X92881Y480365D01*
X92132Y480602D01*
X91364Y480772D01*
X90585Y480874D01*
X89800Y480908D01*
D02*
G37*
G36*
X139600Y470900D02*
X131150D01*
X131235Y470249D01*
X131415Y469439D01*
X131664Y468648D01*
X131982Y467881D01*
X132365Y467145D01*
X132810Y466446D01*
X133315Y465788D01*
X133876Y465176D01*
X134488Y464616D01*
X135146Y464110D01*
X135845Y463665D01*
X136581Y463282D01*
X137348Y462964D01*
X138139Y462715D01*
X138949Y462535D01*
X139600Y462450D01*
Y470900D01*
D02*
G37*
G36*
X150050D02*
X141600D01*
Y462450D01*
X142251Y462535D01*
X143061Y462715D01*
X143852Y462964D01*
X144619Y463282D01*
X145354Y463665D01*
X146054Y464110D01*
X146712Y464616D01*
X147324Y465176D01*
X147884Y465788D01*
X148389Y466446D01*
X148835Y467145D01*
X149218Y467881D01*
X149535Y468648D01*
X149785Y469439D01*
X149964Y470249D01*
X150050Y470900D01*
D02*
G37*
G36*
X106900Y183759D02*
X106453Y183724D01*
X106017Y183619D01*
X105602Y183447D01*
X105219Y183213D01*
X104878Y182921D01*
X104587Y182580D01*
X104353Y182198D01*
X104181Y181783D01*
X104076Y181347D01*
X104041Y180900D01*
X104076Y180453D01*
X104181Y180016D01*
X104353Y179602D01*
X104587Y179219D01*
X104878Y178878D01*
X105219Y178587D01*
X105602Y178353D01*
X106017Y178181D01*
X106453Y178076D01*
X106900Y178041D01*
X107347Y178076D01*
X107783Y178181D01*
X108198Y178353D01*
X108580Y178587D01*
X108921Y178878D01*
X109213Y179219D01*
X109447Y179602D01*
X109619Y180016D01*
X109724Y180453D01*
X109759Y180900D01*
X109724Y181347D01*
X109619Y181783D01*
X109447Y182198D01*
X109213Y182580D01*
X108921Y182921D01*
X108580Y183213D01*
X108198Y183447D01*
X107783Y183619D01*
X107347Y183724D01*
X106900Y183759D01*
D02*
G37*
G36*
Y189859D02*
X106453Y189823D01*
X106017Y189719D01*
X105602Y189547D01*
X105219Y189313D01*
X104878Y189021D01*
X104587Y188680D01*
X104353Y188298D01*
X104181Y187883D01*
X104076Y187447D01*
X104041Y187000D01*
X104076Y186553D01*
X104181Y186117D01*
X104353Y185702D01*
X104587Y185319D01*
X104878Y184978D01*
X105219Y184687D01*
X105602Y184453D01*
X106017Y184281D01*
X106453Y184176D01*
X106900Y184141D01*
X107347Y184176D01*
X107783Y184281D01*
X108198Y184453D01*
X108580Y184687D01*
X108921Y184978D01*
X109213Y185319D01*
X109447Y185702D01*
X109619Y186117D01*
X109724Y186553D01*
X109759Y187000D01*
X109724Y187447D01*
X109619Y187883D01*
X109447Y188298D01*
X109213Y188680D01*
X108921Y189021D01*
X108580Y189313D01*
X108198Y189547D01*
X107783Y189719D01*
X107347Y189823D01*
X106900Y189859D01*
D02*
G37*
G36*
X78675Y169059D02*
X78228Y169023D01*
X77792Y168919D01*
X77377Y168747D01*
X76995Y168513D01*
X76653Y168221D01*
X76362Y167880D01*
X76128Y167498D01*
X75956Y167083D01*
X75851Y166647D01*
X75816Y166200D01*
X75851Y165753D01*
X75956Y165317D01*
X76128Y164902D01*
X76362Y164520D01*
X76653Y164178D01*
X76995Y163887D01*
X77377Y163653D01*
X77792Y163481D01*
X78228Y163376D01*
X78675Y163341D01*
X79122Y163376D01*
X79558Y163481D01*
X79973Y163653D01*
X80355Y163887D01*
X80696Y164178D01*
X80988Y164520D01*
X81222Y164902D01*
X81394Y165317D01*
X81498Y165753D01*
X81534Y166200D01*
X81498Y166647D01*
X81394Y167083D01*
X81222Y167498D01*
X80988Y167880D01*
X80696Y168221D01*
X80355Y168513D01*
X79973Y168747D01*
X79558Y168919D01*
X79122Y169023D01*
X78675Y169059D01*
D02*
G37*
G36*
X67275Y169359D02*
X66828Y169324D01*
X66391Y169219D01*
X65977Y169047D01*
X65595Y168813D01*
X65253Y168521D01*
X64962Y168180D01*
X64728Y167798D01*
X64556Y167383D01*
X64451Y166947D01*
X64416Y166500D01*
X64451Y166053D01*
X64556Y165616D01*
X64728Y165202D01*
X64962Y164820D01*
X65253Y164478D01*
X65595Y164187D01*
X65977Y163953D01*
X66391Y163781D01*
X66828Y163676D01*
X67275Y163641D01*
X67722Y163676D01*
X68158Y163781D01*
X68573Y163953D01*
X68955Y164187D01*
X69296Y164478D01*
X69588Y164820D01*
X69822Y165202D01*
X69994Y165616D01*
X70098Y166053D01*
X70134Y166500D01*
X70098Y166947D01*
X69994Y167383D01*
X69822Y167798D01*
X69588Y168180D01*
X69296Y168521D01*
X68955Y168813D01*
X68573Y169047D01*
X68158Y169219D01*
X67722Y169324D01*
X67275Y169359D01*
D02*
G37*
G36*
X88900Y212858D02*
X88453Y212823D01*
X88016Y212718D01*
X87602Y212547D01*
X87219Y212312D01*
X86878Y212021D01*
X86587Y211680D01*
X86353Y211297D01*
X86181Y210883D01*
X86076Y210447D01*
X86041Y210000D01*
X86076Y209552D01*
X86181Y209116D01*
X86353Y208702D01*
X86587Y208319D01*
X86878Y207978D01*
X87219Y207687D01*
X87602Y207452D01*
X88016Y207281D01*
X88453Y207176D01*
X88900Y207141D01*
X89347Y207176D01*
X89783Y207281D01*
X90198Y207452D01*
X90580Y207687D01*
X90921Y207978D01*
X91213Y208319D01*
X91447Y208702D01*
X91619Y209116D01*
X91723Y209552D01*
X91759Y210000D01*
X91723Y210447D01*
X91619Y210883D01*
X91447Y211297D01*
X91213Y211680D01*
X90921Y212021D01*
X90580Y212312D01*
X90198Y212547D01*
X89783Y212718D01*
X89347Y212823D01*
X88900Y212858D01*
D02*
G37*
G36*
X165000Y227350D02*
X164349Y227264D01*
X163539Y227085D01*
X162748Y226835D01*
X161981Y226518D01*
X161245Y226135D01*
X160546Y225689D01*
X159888Y225184D01*
X159276Y224624D01*
X158715Y224012D01*
X158210Y223354D01*
X157765Y222654D01*
X157382Y221919D01*
X157064Y221152D01*
X156815Y220361D01*
X156635Y219551D01*
X156550Y218900D01*
X165000D01*
Y227350D01*
D02*
G37*
G36*
X35300Y226759D02*
X34853Y226723D01*
X34417Y226619D01*
X34002Y226447D01*
X33620Y226213D01*
X33279Y225921D01*
X32987Y225580D01*
X32753Y225198D01*
X32581Y224783D01*
X32476Y224347D01*
X32441Y223900D01*
X32476Y223453D01*
X32581Y223016D01*
X32753Y222602D01*
X32987Y222220D01*
X33279Y221878D01*
X33620Y221587D01*
X34002Y221353D01*
X34417Y221181D01*
X34853Y221076D01*
X35300Y221041D01*
X35747Y221076D01*
X36183Y221181D01*
X36598Y221353D01*
X36980Y221587D01*
X37322Y221878D01*
X37613Y222220D01*
X37847Y222602D01*
X38019Y223016D01*
X38124Y223453D01*
X38159Y223900D01*
X38124Y224347D01*
X38019Y224783D01*
X37847Y225198D01*
X37613Y225580D01*
X37322Y225921D01*
X36980Y226213D01*
X36598Y226447D01*
X36183Y226619D01*
X35747Y226723D01*
X35300Y226759D01*
D02*
G37*
G36*
X165000Y216900D02*
X156550D01*
X156635Y216249D01*
X156815Y215439D01*
X157064Y214648D01*
X157382Y213881D01*
X157765Y213145D01*
X158210Y212446D01*
X158715Y211788D01*
X159276Y211176D01*
X159888Y210616D01*
X160546Y210110D01*
X161245Y209665D01*
X161981Y209282D01*
X162748Y208964D01*
X163539Y208715D01*
X164349Y208535D01*
X165000Y208450D01*
Y216900D01*
D02*
G37*
G36*
X84400Y217758D02*
X83953Y217723D01*
X83516Y217618D01*
X83102Y217447D01*
X82719Y217212D01*
X82378Y216921D01*
X82087Y216580D01*
X81853Y216197D01*
X81681Y215783D01*
X81576Y215347D01*
X81541Y214899D01*
X81576Y214452D01*
X81681Y214016D01*
X81853Y213602D01*
X82087Y213219D01*
X82378Y212878D01*
X82719Y212587D01*
X83102Y212352D01*
X83516Y212181D01*
X83953Y212076D01*
X84400Y212041D01*
X84847Y212076D01*
X85283Y212181D01*
X85698Y212352D01*
X86080Y212587D01*
X86421Y212878D01*
X86713Y213219D01*
X86947Y213602D01*
X87119Y214016D01*
X87223Y214452D01*
X87259Y214899D01*
X87223Y215347D01*
X87119Y215783D01*
X86947Y216197D01*
X86713Y216580D01*
X86421Y216921D01*
X86080Y217212D01*
X85698Y217447D01*
X85283Y217618D01*
X84847Y217723D01*
X84400Y217758D01*
D02*
G37*
G36*
X40500Y151859D02*
X40053Y151824D01*
X39616Y151719D01*
X39202Y151547D01*
X38819Y151313D01*
X38478Y151021D01*
X38187Y150680D01*
X37953Y150298D01*
X37781Y149883D01*
X37676Y149447D01*
X37641Y149000D01*
X37676Y148553D01*
X37781Y148117D01*
X37953Y147702D01*
X38187Y147320D01*
X38478Y146979D01*
X38819Y146687D01*
X39202Y146453D01*
X39616Y146281D01*
X40053Y146176D01*
X40500Y146141D01*
X40947Y146176D01*
X41383Y146281D01*
X41798Y146453D01*
X42180Y146687D01*
X42521Y146979D01*
X42813Y147320D01*
X43047Y147702D01*
X43219Y148117D01*
X43323Y148553D01*
X43359Y149000D01*
X43323Y149447D01*
X43219Y149883D01*
X43047Y150298D01*
X42813Y150680D01*
X42521Y151021D01*
X42180Y151313D01*
X41798Y151547D01*
X41383Y151719D01*
X40947Y151824D01*
X40500Y151859D01*
D02*
G37*
G36*
X65500D02*
X65053Y151824D01*
X64616Y151719D01*
X64202Y151547D01*
X63819Y151313D01*
X63478Y151021D01*
X63187Y150680D01*
X62953Y150298D01*
X62781Y149883D01*
X62676Y149447D01*
X62641Y149000D01*
X62676Y148553D01*
X62781Y148117D01*
X62953Y147702D01*
X63187Y147320D01*
X63478Y146979D01*
X63819Y146687D01*
X64202Y146453D01*
X64616Y146281D01*
X65053Y146176D01*
X65500Y146141D01*
X65947Y146176D01*
X66383Y146281D01*
X66798Y146453D01*
X67180Y146687D01*
X67521Y146979D01*
X67813Y147320D01*
X68047Y147702D01*
X68219Y148117D01*
X68323Y148553D01*
X68359Y149000D01*
X68323Y149447D01*
X68219Y149883D01*
X68047Y150298D01*
X67813Y150680D01*
X67521Y151021D01*
X67180Y151313D01*
X66798Y151547D01*
X66383Y151719D01*
X65947Y151824D01*
X65500Y151859D01*
D02*
G37*
G36*
X52100Y151559D02*
X51653Y151524D01*
X51217Y151419D01*
X50802Y151247D01*
X50420Y151013D01*
X50078Y150721D01*
X49787Y150380D01*
X49553Y149998D01*
X49381Y149583D01*
X49276Y149147D01*
X49241Y148700D01*
X49276Y148253D01*
X49381Y147816D01*
X49553Y147402D01*
X49787Y147020D01*
X50078Y146678D01*
X50420Y146387D01*
X50802Y146153D01*
X51217Y145981D01*
X51653Y145876D01*
X52100Y145841D01*
X52547Y145876D01*
X52983Y145981D01*
X53398Y146153D01*
X53780Y146387D01*
X54121Y146678D01*
X54413Y147020D01*
X54647Y147402D01*
X54819Y147816D01*
X54924Y148253D01*
X54959Y148700D01*
X54924Y149147D01*
X54819Y149583D01*
X54647Y149998D01*
X54413Y150380D01*
X54121Y150721D01*
X53780Y151013D01*
X53398Y151247D01*
X52983Y151419D01*
X52547Y151524D01*
X52100Y151559D01*
D02*
G37*
G36*
X33500Y151859D02*
X33053Y151824D01*
X32617Y151719D01*
X32202Y151547D01*
X31820Y151313D01*
X31478Y151021D01*
X31187Y150680D01*
X30953Y150298D01*
X30781Y149883D01*
X30676Y149447D01*
X30641Y149000D01*
X30676Y148553D01*
X30781Y148117D01*
X30953Y147702D01*
X31187Y147320D01*
X31478Y146979D01*
X31820Y146687D01*
X32202Y146453D01*
X32617Y146281D01*
X33053Y146176D01*
X33500Y146141D01*
X33947Y146176D01*
X34383Y146281D01*
X34798Y146453D01*
X35180Y146687D01*
X35521Y146979D01*
X35813Y147320D01*
X36047Y147702D01*
X36219Y148117D01*
X36323Y148553D01*
X36359Y149000D01*
X36323Y149447D01*
X36219Y149883D01*
X36047Y150298D01*
X35813Y150680D01*
X35521Y151021D01*
X35180Y151313D01*
X34798Y151547D01*
X34383Y151719D01*
X33947Y151824D01*
X33500Y151859D01*
D02*
G37*
G36*
X27200Y152359D02*
X26753Y152324D01*
X26316Y152219D01*
X25902Y152047D01*
X25519Y151813D01*
X25178Y151521D01*
X24887Y151180D01*
X24653Y150798D01*
X24481Y150383D01*
X24376Y149947D01*
X24341Y149500D01*
X24376Y149053D01*
X24481Y148617D01*
X24653Y148202D01*
X24887Y147819D01*
X25178Y147478D01*
X25519Y147187D01*
X25902Y146953D01*
X26316Y146781D01*
X26753Y146676D01*
X27200Y146641D01*
X27647Y146676D01*
X28083Y146781D01*
X28498Y146953D01*
X28880Y147187D01*
X29221Y147478D01*
X29513Y147819D01*
X29747Y148202D01*
X29919Y148617D01*
X30024Y149053D01*
X30059Y149500D01*
X30024Y149947D01*
X29919Y150383D01*
X29747Y150798D01*
X29513Y151180D01*
X29221Y151521D01*
X28880Y151813D01*
X28498Y152047D01*
X28083Y152219D01*
X27647Y152324D01*
X27200Y152359D01*
D02*
G37*
G36*
X133300Y158458D02*
X132853Y158423D01*
X132416Y158319D01*
X132002Y158147D01*
X131620Y157913D01*
X131278Y157621D01*
X130987Y157280D01*
X130753Y156898D01*
X130581Y156483D01*
X130476Y156047D01*
X130441Y155600D01*
X130476Y155153D01*
X130581Y154716D01*
X130753Y154302D01*
X130987Y153919D01*
X131278Y153578D01*
X131590Y153312D01*
X131600Y153279D01*
Y153221D01*
X131590Y153188D01*
X131361Y152992D01*
X131264Y153016D01*
X131147Y153298D01*
X130913Y153680D01*
X130622Y154022D01*
X130280Y154313D01*
X129898Y154547D01*
X129483Y154719D01*
X129047Y154824D01*
X128600Y154859D01*
X128153Y154824D01*
X127717Y154719D01*
X127302Y154547D01*
X126920Y154313D01*
X126579Y154022D01*
X126287Y153680D01*
X126053Y153298D01*
X125881Y152883D01*
X125776Y152447D01*
X125741Y152000D01*
X125776Y151553D01*
X125881Y151117D01*
X126053Y150702D01*
X126287Y150320D01*
X126579Y149979D01*
X126920Y149687D01*
X127302Y149453D01*
X127717Y149281D01*
X128153Y149176D01*
X128600Y149141D01*
X129047Y149176D01*
X129483Y149281D01*
X129898Y149453D01*
X130280Y149687D01*
X130539Y149908D01*
X130636Y149884D01*
X130753Y149602D01*
X130987Y149220D01*
X131278Y148878D01*
X131620Y148587D01*
X132002Y148353D01*
X132416Y148181D01*
X132853Y148076D01*
X133300Y148041D01*
X133747Y148076D01*
X134183Y148181D01*
X134598Y148353D01*
X134980Y148587D01*
X135321Y148878D01*
X135613Y149220D01*
X135847Y149602D01*
X136019Y150016D01*
X136124Y150453D01*
X136159Y150900D01*
X136124Y151347D01*
X136019Y151783D01*
X135847Y152198D01*
X135613Y152580D01*
X135321Y152921D01*
X135010Y153188D01*
X135000Y153221D01*
Y153279D01*
X135010Y153312D01*
X135321Y153578D01*
X135613Y153919D01*
X135847Y154302D01*
X136019Y154716D01*
X136124Y155153D01*
X136159Y155600D01*
X136124Y156047D01*
X136019Y156483D01*
X135847Y156898D01*
X135613Y157280D01*
X135321Y157621D01*
X134980Y157913D01*
X134598Y158147D01*
X134183Y158319D01*
X133747Y158423D01*
X133300Y158458D01*
D02*
G37*
G36*
X65125Y162159D02*
X64678Y162124D01*
X64241Y162019D01*
X63827Y161847D01*
X63444Y161613D01*
X63103Y161321D01*
X62812Y160980D01*
X62578Y160598D01*
X62406Y160183D01*
X62301Y159747D01*
X62266Y159300D01*
X62301Y158853D01*
X62406Y158416D01*
X62578Y158002D01*
X62812Y157619D01*
X63103Y157278D01*
X63444Y156987D01*
X63827Y156753D01*
X64241Y156581D01*
X64678Y156476D01*
X65125Y156441D01*
X65572Y156476D01*
X66008Y156581D01*
X66423Y156753D01*
X66805Y156987D01*
X67146Y157278D01*
X67438Y157619D01*
X67672Y158002D01*
X67844Y158416D01*
X67948Y158853D01*
X67984Y159300D01*
X67948Y159747D01*
X67844Y160183D01*
X67672Y160598D01*
X67438Y160980D01*
X67146Y161321D01*
X66805Y161613D01*
X66423Y161847D01*
X66008Y162019D01*
X65572Y162124D01*
X65125Y162159D01*
D02*
G37*
G36*
X96000Y153859D02*
X95553Y153823D01*
X95117Y153719D01*
X94702Y153547D01*
X94319Y153313D01*
X93978Y153021D01*
X93687Y152680D01*
X93453Y152298D01*
X93281Y151883D01*
X93176Y151447D01*
X93141Y151000D01*
X93176Y150553D01*
X93281Y150117D01*
X93453Y149702D01*
X93687Y149319D01*
X93978Y148978D01*
X94319Y148687D01*
X94702Y148453D01*
X95117Y148281D01*
X95553Y148176D01*
X96000Y148141D01*
X96447Y148176D01*
X96883Y148281D01*
X97298Y148453D01*
X97680Y148687D01*
X98021Y148978D01*
X98313Y149319D01*
X98547Y149702D01*
X98719Y150117D01*
X98823Y150553D01*
X98859Y151000D01*
X98823Y151447D01*
X98719Y151883D01*
X98547Y152298D01*
X98313Y152680D01*
X98021Y153021D01*
X97680Y153313D01*
X97298Y153547D01*
X96883Y153719D01*
X96447Y153823D01*
X96000Y153859D01*
D02*
G37*
G36*
X115300Y159259D02*
X114853Y159223D01*
X114417Y159119D01*
X114002Y158947D01*
X113619Y158713D01*
X113278Y158421D01*
X112987Y158080D01*
X112753Y157698D01*
X112581Y157283D01*
X112476Y156847D01*
X112441Y156400D01*
X112476Y155953D01*
X112581Y155517D01*
X112753Y155102D01*
X112987Y154719D01*
X113278Y154378D01*
X113619Y154087D01*
X114002Y153853D01*
X114129Y153800D01*
X114147Y153684D01*
X113887Y153380D01*
X113653Y152998D01*
X113481Y152583D01*
X113376Y152147D01*
X113341Y151700D01*
X113376Y151253D01*
X113481Y150816D01*
X113653Y150402D01*
X113887Y150020D01*
X114178Y149678D01*
X114520Y149387D01*
X114902Y149153D01*
X115317Y148981D01*
X115753Y148876D01*
X116200Y148841D01*
X116647Y148876D01*
X117083Y148981D01*
X117498Y149153D01*
X117880Y149387D01*
X118222Y149678D01*
X118513Y150020D01*
X118747Y150402D01*
X118919Y150816D01*
X119024Y151253D01*
X119059Y151700D01*
X119024Y152147D01*
X118919Y152583D01*
X118747Y152998D01*
X118513Y153380D01*
X118222Y153721D01*
X117880Y154013D01*
X117498Y154247D01*
X117371Y154300D01*
X117353Y154415D01*
X117613Y154719D01*
X117847Y155102D01*
X118019Y155517D01*
X118124Y155953D01*
X118159Y156400D01*
X118124Y156847D01*
X118019Y157283D01*
X117847Y157698D01*
X117613Y158080D01*
X117321Y158421D01*
X116980Y158713D01*
X116598Y158947D01*
X116183Y159119D01*
X115747Y159223D01*
X115300Y159259D01*
D02*
G37*
G36*
X80100Y231459D02*
X79653Y231423D01*
X79217Y231319D01*
X78802Y231147D01*
X78420Y230913D01*
X78078Y230621D01*
X77787Y230280D01*
X77553Y229898D01*
X77381Y229483D01*
X77276Y229047D01*
X77241Y228600D01*
X77276Y228153D01*
X77381Y227717D01*
X77553Y227302D01*
X77787Y226919D01*
X78078Y226578D01*
X78420Y226287D01*
X78802Y226053D01*
X79217Y225881D01*
X79653Y225776D01*
X80100Y225741D01*
X80547Y225776D01*
X80983Y225881D01*
X81150Y225950D01*
X81221Y225879D01*
X81181Y225783D01*
X81076Y225347D01*
X81041Y224900D01*
X81076Y224453D01*
X81181Y224016D01*
X81353Y223602D01*
X81587Y223220D01*
X81878Y222878D01*
X82219Y222587D01*
X82602Y222353D01*
X83017Y222181D01*
X83453Y222076D01*
X83900Y222041D01*
X84347Y222076D01*
X84783Y222181D01*
X85198Y222353D01*
X85580Y222587D01*
X85921Y222878D01*
X86213Y223220D01*
X86447Y223602D01*
X86619Y224016D01*
X86723Y224453D01*
X86759Y224900D01*
X86723Y225347D01*
X86619Y225783D01*
X86447Y226198D01*
X86213Y226580D01*
X85921Y226921D01*
X85580Y227213D01*
X85198Y227447D01*
X84783Y227619D01*
X84347Y227724D01*
X83900Y227759D01*
X83453Y227724D01*
X83017Y227619D01*
X82850Y227550D01*
X82779Y227620D01*
X82819Y227717D01*
X82924Y228153D01*
X82959Y228600D01*
X82924Y229047D01*
X82819Y229483D01*
X82647Y229898D01*
X82413Y230280D01*
X82121Y230621D01*
X81780Y230913D01*
X81398Y231147D01*
X80983Y231319D01*
X80547Y231423D01*
X80100Y231459D01*
D02*
G37*
G36*
X89800Y328508D02*
X89015Y328474D01*
X88236Y328372D01*
X87468Y328201D01*
X86719Y327965D01*
X85993Y327664D01*
X85296Y327301D01*
X84633Y326879D01*
X84009Y326401D01*
X83430Y325870D01*
X82899Y325290D01*
X82421Y324667D01*
X81998Y324004D01*
X81635Y323307D01*
X81335Y322581D01*
X81098Y321832D01*
X80928Y321064D01*
X80826Y320285D01*
X80791Y319500D01*
X80826Y318715D01*
X80928Y317936D01*
X81098Y317168D01*
X81335Y316419D01*
X81635Y315693D01*
X81998Y314996D01*
X82421Y314333D01*
X82899Y313709D01*
X83430Y313130D01*
X84009Y312599D01*
X84633Y312120D01*
X85296Y311698D01*
X85993Y311335D01*
X86719Y311035D01*
X87468Y310798D01*
X88236Y310628D01*
X89015Y310526D01*
X89800Y310491D01*
X90585Y310526D01*
X91364Y310628D01*
X92132Y310798D01*
X92881Y311035D01*
X93607Y311335D01*
X94304Y311698D01*
X94967Y312120D01*
X95590Y312599D01*
X96170Y313130D01*
X96701Y313709D01*
X97179Y314333D01*
X97601Y314996D01*
X97964Y315693D01*
X98265Y316419D01*
X98502Y317168D01*
X98672Y317936D01*
X98774Y318715D01*
X98808Y319500D01*
X98774Y320285D01*
X98672Y321064D01*
X98502Y321832D01*
X98265Y322581D01*
X97964Y323307D01*
X97601Y324004D01*
X97179Y324667D01*
X96701Y325290D01*
X96170Y325870D01*
X95590Y326401D01*
X94967Y326879D01*
X94304Y327301D01*
X93607Y327664D01*
X92881Y327965D01*
X92132Y328201D01*
X91364Y328372D01*
X90585Y328474D01*
X89800Y328508D01*
D02*
G37*
G36*
X115200D02*
X114415Y328474D01*
X113636Y328372D01*
X112868Y328201D01*
X112119Y327965D01*
X111393Y327664D01*
X110696Y327301D01*
X110033Y326879D01*
X109409Y326401D01*
X108830Y325870D01*
X108299Y325290D01*
X107821Y324667D01*
X107398Y324004D01*
X107035Y323307D01*
X106735Y322581D01*
X106498Y321832D01*
X106328Y321064D01*
X106226Y320285D01*
X106191Y319500D01*
X106226Y318715D01*
X106328Y317936D01*
X106498Y317168D01*
X106735Y316419D01*
X107035Y315693D01*
X107398Y314996D01*
X107821Y314333D01*
X108299Y313709D01*
X108830Y313130D01*
X109409Y312599D01*
X110033Y312120D01*
X110696Y311698D01*
X111393Y311335D01*
X112119Y311035D01*
X112868Y310798D01*
X113636Y310628D01*
X114415Y310526D01*
X115200Y310491D01*
X115985Y310526D01*
X116764Y310628D01*
X117531Y310798D01*
X118281Y311035D01*
X119007Y311335D01*
X119704Y311698D01*
X120367Y312120D01*
X120990Y312599D01*
X121570Y313130D01*
X122101Y313709D01*
X122579Y314333D01*
X123001Y314996D01*
X123364Y315693D01*
X123665Y316419D01*
X123902Y317168D01*
X124072Y317936D01*
X124174Y318715D01*
X124208Y319500D01*
X124174Y320285D01*
X124072Y321064D01*
X123902Y321832D01*
X123665Y322581D01*
X123364Y323307D01*
X123001Y324004D01*
X122579Y324667D01*
X122101Y325290D01*
X121570Y325870D01*
X120990Y326401D01*
X120367Y326879D01*
X119704Y327301D01*
X119007Y327664D01*
X118281Y327965D01*
X117531Y328201D01*
X116764Y328372D01*
X115985Y328474D01*
X115200Y328508D01*
D02*
G37*
G36*
X48500Y318500D02*
X40000D01*
Y310000D01*
X48500D01*
Y318500D01*
D02*
G37*
G36*
X64400Y328508D02*
X63615Y328474D01*
X62836Y328372D01*
X62068Y328201D01*
X61319Y327965D01*
X60593Y327664D01*
X59896Y327301D01*
X59233Y326879D01*
X58609Y326401D01*
X58030Y325870D01*
X57499Y325290D01*
X57021Y324667D01*
X56598Y324004D01*
X56235Y323307D01*
X55935Y322581D01*
X55698Y321832D01*
X55528Y321064D01*
X55426Y320285D01*
X55391Y319500D01*
X55426Y318715D01*
X55528Y317936D01*
X55698Y317168D01*
X55935Y316419D01*
X56235Y315693D01*
X56598Y314996D01*
X57021Y314333D01*
X57499Y313709D01*
X58030Y313130D01*
X58609Y312599D01*
X59233Y312120D01*
X59896Y311698D01*
X60593Y311335D01*
X61319Y311035D01*
X62068Y310798D01*
X62836Y310628D01*
X63615Y310526D01*
X64400Y310491D01*
X65185Y310526D01*
X65964Y310628D01*
X66732Y310798D01*
X67481Y311035D01*
X68207Y311335D01*
X68904Y311698D01*
X69567Y312120D01*
X70191Y312599D01*
X70770Y313130D01*
X71301Y313709D01*
X71779Y314333D01*
X72201Y314996D01*
X72564Y315693D01*
X72865Y316419D01*
X73102Y317168D01*
X73272Y317936D01*
X73374Y318715D01*
X73408Y319500D01*
X73374Y320285D01*
X73272Y321064D01*
X73102Y321832D01*
X72865Y322581D01*
X72564Y323307D01*
X72201Y324004D01*
X71779Y324667D01*
X71301Y325290D01*
X70770Y325870D01*
X70191Y326401D01*
X69567Y326879D01*
X68904Y327301D01*
X68207Y327664D01*
X67481Y327965D01*
X66732Y328201D01*
X65964Y328372D01*
X65185Y328474D01*
X64400Y328508D01*
D02*
G37*
G36*
X140600D02*
X139815Y328474D01*
X139036Y328372D01*
X138268Y328201D01*
X137519Y327965D01*
X136793Y327664D01*
X136096Y327301D01*
X135433Y326879D01*
X134809Y326401D01*
X134230Y325870D01*
X133699Y325290D01*
X133221Y324667D01*
X132798Y324004D01*
X132435Y323307D01*
X132135Y322581D01*
X131898Y321832D01*
X131728Y321064D01*
X131626Y320285D01*
X131591Y319500D01*
X131626Y318715D01*
X131728Y317936D01*
X131898Y317168D01*
X132135Y316419D01*
X132435Y315693D01*
X132798Y314996D01*
X133221Y314333D01*
X133699Y313709D01*
X134230Y313130D01*
X134809Y312599D01*
X135433Y312120D01*
X136096Y311698D01*
X136793Y311335D01*
X137519Y311035D01*
X138268Y310798D01*
X139036Y310628D01*
X139815Y310526D01*
X140600Y310491D01*
X141385Y310526D01*
X142164Y310628D01*
X142931Y310798D01*
X143681Y311035D01*
X144407Y311335D01*
X145104Y311698D01*
X145767Y312120D01*
X146390Y312599D01*
X146970Y313130D01*
X147501Y313709D01*
X147979Y314333D01*
X148401Y314996D01*
X148764Y315693D01*
X149065Y316419D01*
X149302Y317168D01*
X149472Y317936D01*
X149574Y318715D01*
X149608Y319500D01*
X149574Y320285D01*
X149472Y321064D01*
X149302Y321832D01*
X149065Y322581D01*
X148764Y323307D01*
X148401Y324004D01*
X147979Y324667D01*
X147501Y325290D01*
X146970Y325870D01*
X146390Y326401D01*
X145767Y326879D01*
X145104Y327301D01*
X144407Y327664D01*
X143681Y327965D01*
X142931Y328201D01*
X142164Y328372D01*
X141385Y328474D01*
X140600Y328508D01*
D02*
G37*
G36*
X38000Y343900D02*
X29550D01*
X29635Y343249D01*
X29815Y342439D01*
X30064Y341648D01*
X30382Y340881D01*
X30765Y340145D01*
X31210Y339446D01*
X31716Y338788D01*
X32276Y338176D01*
X32888Y337616D01*
X33546Y337110D01*
X34245Y336665D01*
X34981Y336282D01*
X35748Y335964D01*
X36539Y335715D01*
X37349Y335535D01*
X38000Y335450D01*
Y343900D01*
D02*
G37*
G36*
X48450D02*
X40000D01*
Y335450D01*
X40651Y335535D01*
X41461Y335715D01*
X42252Y335964D01*
X43019Y336282D01*
X43754Y336665D01*
X44454Y337110D01*
X45112Y337616D01*
X45724Y338176D01*
X46284Y338788D01*
X46789Y339446D01*
X47235Y340145D01*
X47618Y340881D01*
X47935Y341648D01*
X48185Y342439D01*
X48364Y343249D01*
X48450Y343900D01*
D02*
G37*
G36*
X38000Y329000D02*
X29500D01*
Y320500D01*
X38000D01*
Y329000D01*
D02*
G37*
G36*
X48500D02*
X40000D01*
Y320500D01*
X48500D01*
Y329000D01*
D02*
G37*
G36*
X83750Y251159D02*
X83303Y251123D01*
X82866Y251019D01*
X82452Y250847D01*
X82070Y250613D01*
X81728Y250321D01*
X81437Y249980D01*
X81203Y249598D01*
X81031Y249183D01*
X80926Y248747D01*
X80891Y248300D01*
X80926Y247853D01*
X81031Y247416D01*
X81203Y247002D01*
X81437Y246619D01*
X81728Y246278D01*
X82070Y245987D01*
X82452Y245753D01*
X82866Y245581D01*
X83303Y245476D01*
X83750Y245441D01*
X84197Y245476D01*
X84633Y245581D01*
X85048Y245753D01*
X85430Y245987D01*
X85771Y246278D01*
X86063Y246619D01*
X86297Y247002D01*
X86469Y247416D01*
X86573Y247853D01*
X86609Y248300D01*
X86573Y248747D01*
X86469Y249183D01*
X86297Y249598D01*
X86063Y249980D01*
X85771Y250321D01*
X85430Y250613D01*
X85048Y250847D01*
X84633Y251019D01*
X84197Y251123D01*
X83750Y251159D01*
D02*
G37*
G36*
X96300Y265609D02*
X95853Y265574D01*
X95416Y265469D01*
X95002Y265297D01*
X94620Y265063D01*
X94278Y264771D01*
X93987Y264430D01*
X93753Y264048D01*
X93581Y263633D01*
X93476Y263197D01*
X93441Y262750D01*
X93476Y262303D01*
X93581Y261866D01*
X93753Y261452D01*
X93987Y261070D01*
X94278Y260728D01*
X94620Y260437D01*
X95002Y260203D01*
X95416Y260031D01*
X95853Y259926D01*
X96300Y259891D01*
X96747Y259926D01*
X97183Y260031D01*
X97598Y260203D01*
X97980Y260437D01*
X98321Y260728D01*
X98613Y261070D01*
X98847Y261452D01*
X99019Y261866D01*
X99123Y262303D01*
X99159Y262750D01*
X99123Y263197D01*
X99019Y263633D01*
X98847Y264048D01*
X98613Y264430D01*
X98321Y264771D01*
X97980Y265063D01*
X97598Y265297D01*
X97183Y265469D01*
X96747Y265574D01*
X96300Y265609D01*
D02*
G37*
G36*
X48900Y232059D02*
X48453Y232024D01*
X48017Y231919D01*
X47602Y231747D01*
X47220Y231513D01*
X46878Y231221D01*
X46700Y231012D01*
X46600D01*
X46421Y231221D01*
X46080Y231513D01*
X45698Y231747D01*
X45283Y231919D01*
X44847Y232024D01*
X44400Y232059D01*
X43953Y232024D01*
X43517Y231919D01*
X43102Y231747D01*
X42720Y231513D01*
X42379Y231221D01*
X42087Y230880D01*
X41853Y230498D01*
X41681Y230083D01*
X41576Y229647D01*
X41541Y229200D01*
X41576Y228753D01*
X41681Y228316D01*
X41853Y227902D01*
X42087Y227519D01*
X42379Y227178D01*
X42720Y226887D01*
X43102Y226653D01*
X43517Y226481D01*
X43953Y226376D01*
X44400Y226341D01*
X44847Y226376D01*
X45283Y226481D01*
X45698Y226653D01*
X46080Y226887D01*
X46421Y227178D01*
X46600Y227387D01*
X46700D01*
X46878Y227178D01*
X47220Y226887D01*
X47602Y226653D01*
X48017Y226481D01*
X48453Y226376D01*
X48900Y226341D01*
X49347Y226376D01*
X49783Y226481D01*
X50198Y226653D01*
X50580Y226887D01*
X50922Y227178D01*
X51213Y227519D01*
X51447Y227902D01*
X51619Y228316D01*
X51724Y228753D01*
X51759Y229200D01*
X51724Y229647D01*
X51619Y230083D01*
X51447Y230498D01*
X51213Y230880D01*
X50922Y231221D01*
X50580Y231513D01*
X50198Y231747D01*
X49783Y231919D01*
X49347Y232024D01*
X48900Y232059D01*
D02*
G37*
G36*
X79900Y240359D02*
X79453Y240323D01*
X79016Y240219D01*
X78602Y240047D01*
X78219Y239813D01*
X77878Y239521D01*
X77587Y239180D01*
X77353Y238798D01*
X77181Y238383D01*
X77076Y237947D01*
X77041Y237500D01*
X77076Y237053D01*
X77181Y236616D01*
X77353Y236202D01*
X77587Y235819D01*
X77878Y235478D01*
X78219Y235187D01*
X78602Y234953D01*
X79016Y234781D01*
X79453Y234676D01*
X79900Y234641D01*
X80347Y234676D01*
X80783Y234781D01*
X81198Y234953D01*
X81580Y235187D01*
X81921Y235478D01*
X82213Y235819D01*
X82447Y236202D01*
X82619Y236616D01*
X82724Y237053D01*
X82759Y237500D01*
X82724Y237947D01*
X82619Y238383D01*
X82447Y238798D01*
X82213Y239180D01*
X81921Y239521D01*
X81580Y239813D01*
X81198Y240047D01*
X80783Y240219D01*
X80347Y240323D01*
X79900Y240359D01*
D02*
G37*
G36*
X22950Y293100D02*
X14500D01*
Y284650D01*
X15151Y284735D01*
X15961Y284915D01*
X16752Y285164D01*
X17519Y285482D01*
X18254Y285865D01*
X18954Y286311D01*
X19612Y286815D01*
X20224Y287376D01*
X20784Y287988D01*
X21289Y288646D01*
X21735Y289345D01*
X22118Y290081D01*
X22435Y290848D01*
X22685Y291639D01*
X22864Y292449D01*
X22950Y293100D01*
D02*
G37*
G36*
X57600Y304959D02*
X57153Y304924D01*
X56717Y304819D01*
X56302Y304647D01*
X55920Y304413D01*
X55578Y304121D01*
X55287Y303780D01*
X55053Y303398D01*
X54881Y302983D01*
X54776Y302547D01*
X54741Y302100D01*
X54776Y301653D01*
X54881Y301217D01*
X55053Y300802D01*
X55287Y300420D01*
X55578Y300079D01*
X55920Y299787D01*
X56302Y299553D01*
X56717Y299381D01*
X57153Y299276D01*
X57600Y299241D01*
X58047Y299276D01*
X58483Y299381D01*
X58898Y299553D01*
X59280Y299787D01*
X59622Y300079D01*
X59913Y300420D01*
X60147Y300802D01*
X60319Y301217D01*
X60424Y301653D01*
X60459Y302100D01*
X60424Y302547D01*
X60319Y302983D01*
X60147Y303398D01*
X59913Y303780D01*
X59622Y304121D01*
X59280Y304413D01*
X58898Y304647D01*
X58483Y304819D01*
X58047Y304924D01*
X57600Y304959D01*
D02*
G37*
G36*
X38000Y318500D02*
X29500D01*
Y310000D01*
X38000D01*
Y318500D01*
D02*
G37*
G36*
X14500Y303550D02*
Y295100D01*
X22950D01*
X22864Y295751D01*
X22685Y296561D01*
X22435Y297352D01*
X22118Y298119D01*
X21735Y298854D01*
X21289Y299554D01*
X20784Y300212D01*
X20224Y300824D01*
X19612Y301384D01*
X18954Y301889D01*
X18254Y302335D01*
X17519Y302718D01*
X16752Y303035D01*
X15961Y303285D01*
X15151Y303464D01*
X14500Y303550D01*
D02*
G37*
G36*
X40700Y302459D02*
X40253Y302424D01*
X39817Y302319D01*
X39402Y302147D01*
X39020Y301913D01*
X38679Y301621D01*
X38387Y301280D01*
X38153Y300898D01*
X37981Y300483D01*
X37876Y300047D01*
X37841Y299600D01*
X37876Y299153D01*
X37981Y298717D01*
X38153Y298302D01*
X38387Y297920D01*
X38679Y297579D01*
X39020Y297287D01*
X39402Y297053D01*
X39817Y296881D01*
X40253Y296776D01*
X40700Y296741D01*
X41147Y296776D01*
X41583Y296881D01*
X41998Y297053D01*
X42380Y297287D01*
X42722Y297579D01*
X43013Y297920D01*
X43247Y298302D01*
X43419Y298717D01*
X43524Y299153D01*
X43559Y299600D01*
X43524Y300047D01*
X43419Y300483D01*
X43247Y300898D01*
X43013Y301280D01*
X42722Y301621D01*
X42380Y301913D01*
X41998Y302147D01*
X41583Y302319D01*
X41147Y302424D01*
X40700Y302459D01*
D02*
G37*
%LPD*%
D15*
Y299600D02*
D03*
X51200Y301900D02*
D03*
X57600Y302100D02*
D03*
X48900Y229200D02*
D03*
X44400D02*
D03*
X79500Y260300D02*
D03*
X84800Y267500D02*
D03*
X133900Y216400D02*
D03*
Y208700D02*
D03*
Y223900D02*
D03*
X84400Y214899D02*
D03*
X124900Y167000D02*
D03*
X124400Y185000D02*
D03*
X147900Y39550D02*
D03*
X35700Y235000D02*
D03*
X106900Y180900D02*
D03*
X80100Y228600D02*
D03*
X79900Y237500D02*
D03*
X108100Y288400D02*
D03*
X86000Y16300D02*
D03*
X25500Y9500D02*
D03*
X96300Y262750D02*
D03*
X83750Y248300D02*
D03*
X148550Y14850D02*
D03*
X148400Y8500D02*
D03*
X108800Y71300D02*
D03*
X92200Y78200D02*
D03*
X95800Y8000D02*
D03*
X54500Y32300D02*
D03*
X140200Y72800D02*
D03*
Y80800D02*
D03*
Y88800D02*
D03*
X134800Y102300D02*
D03*
X148200Y104700D02*
D03*
X52200Y88800D02*
D03*
X76100Y62100D02*
D03*
X65500Y149000D02*
D03*
X47500D02*
D03*
X40500D02*
D03*
X33500D02*
D03*
X38800Y80800D02*
D03*
X46400Y78600D02*
D03*
X60000Y78100D02*
D03*
X68100Y56900D02*
D03*
X60100Y62200D02*
D03*
X44200Y70300D02*
D03*
X84100Y46200D02*
D03*
X84100Y62100D02*
D03*
X92100Y62300D02*
D03*
X127300Y63400D02*
D03*
X33500Y23800D02*
D03*
X30700Y64800D02*
D03*
X46800Y56800D02*
D03*
X107900Y93900D02*
D03*
X76200Y94200D02*
D03*
X84100Y70100D02*
D03*
X76100Y78100D02*
D03*
X116200Y78200D02*
D03*
X65125Y159300D02*
D03*
X52100Y148700D02*
D03*
X78675Y166200D02*
D03*
X27200Y149500D02*
D03*
Y143100D02*
D03*
X105000Y149600D02*
D03*
X96000Y151000D02*
D03*
X70175Y191750D02*
D03*
X133300Y150900D02*
D03*
X102800Y62200D02*
D03*
X102900Y54200D02*
D03*
X115300Y156400D02*
D03*
X116200Y151700D02*
D03*
X110900Y62100D02*
D03*
X106000Y144200D02*
D03*
X60200Y88800D02*
D03*
X68200Y78200D02*
D03*
Y88800D02*
D03*
X37900Y31500D02*
D03*
X46500Y47500D02*
D03*
X110700Y24700D02*
D03*
X100900Y22800D02*
D03*
X30600Y31700D02*
D03*
X71375Y228100D02*
D03*
Y221075D02*
D03*
X35300Y223900D02*
D03*
X158100Y260600D02*
D03*
X83900Y224900D02*
D03*
X106900Y187000D02*
D03*
X94600Y48600D02*
D03*
X78700Y48800D02*
D03*
X116100Y70700D02*
D03*
X127100Y262700D02*
D03*
X68000Y48600D02*
D03*
X141300Y55800D02*
D03*
X148200Y96700D02*
D03*
X140200Y104700D02*
D03*
X116300Y86200D02*
D03*
Y94200D02*
D03*
X108300Y78200D02*
D03*
Y86200D02*
D03*
X100300D02*
D03*
X133800Y88100D02*
D03*
X124300Y86200D02*
D03*
X148200Y88700D02*
D03*
X116300Y102200D02*
D03*
X108300D02*
D03*
X100300D02*
D03*
Y94200D02*
D03*
X92300D02*
D03*
Y102200D02*
D03*
X84300Y94200D02*
D03*
X84200Y104700D02*
D03*
X86800Y110300D02*
D03*
X92300Y118200D02*
D03*
X100300D02*
D03*
X92300Y126200D02*
D03*
X107800Y127900D02*
D03*
X78800Y126300D02*
D03*
Y134300D02*
D03*
X76300Y102200D02*
D03*
Y110200D02*
D03*
X64100Y103100D02*
D03*
X44200Y104700D02*
D03*
X36200D02*
D03*
X30800Y102300D02*
D03*
X36200Y88700D02*
D03*
X60300Y118200D02*
D03*
X46800Y118300D02*
D03*
X54700Y120800D02*
D03*
X38700D02*
D03*
X62800Y134300D02*
D03*
X89500Y143200D02*
D03*
X103700Y135900D02*
D03*
X100100Y70500D02*
D03*
X59200Y103800D02*
D03*
X52350Y104550D02*
D03*
X30500Y119600D02*
D03*
X128600Y152000D02*
D03*
X133300Y155600D02*
D03*
X67275Y166500D02*
D03*
X88900Y210000D02*
D03*
X123100Y119900D02*
D03*
X122900Y127900D02*
D03*
X128100Y127100D02*
D03*
X129700Y143200D02*
D03*
X121700Y144300D02*
D03*
X138900Y119100D02*
D03*
Y127100D02*
D03*
Y135100D02*
D03*
Y143100D02*
D03*
X144100Y135100D02*
D03*
Y143100D02*
D03*
X128100Y135100D02*
D03*
X126800Y96800D02*
D03*
D33*
X0Y0D02*
Y510000D01*
X179000D01*
X0Y0D02*
X179000Y-0D01*
Y510000D01*
D34*
X13500Y14700D02*
D03*
Y40100D02*
D03*
Y65500D02*
D03*
Y90900D02*
D03*
X166000Y167100D02*
D03*
Y192500D02*
D03*
Y116300D02*
D03*
Y141700D02*
D03*
Y65500D02*
D03*
Y90900D02*
D03*
Y217900D02*
D03*
Y294100D02*
D03*
Y319500D02*
D03*
Y344900D02*
D03*
Y395700D02*
D03*
Y421100D02*
D03*
Y446500D02*
D03*
Y471900D02*
D03*
Y497300D02*
D03*
Y370300D02*
D03*
X13500Y471900D02*
D03*
Y446500D02*
D03*
Y421100D02*
D03*
Y395700D02*
D03*
Y370300D02*
D03*
Y344900D02*
D03*
Y319500D02*
D03*
Y294100D02*
D03*
Y268700D02*
D03*
Y243300D02*
D03*
Y217900D02*
D03*
Y116300D02*
D03*
Y141700D02*
D03*
Y192500D02*
D03*
Y167100D02*
D03*
X166000Y268700D02*
D03*
Y243300D02*
D03*
Y40100D02*
D03*
X140600Y344900D02*
D03*
Y319500D02*
D03*
X115200Y344900D02*
D03*
Y319500D02*
D03*
X89800Y344900D02*
D03*
Y319500D02*
D03*
X64400Y344900D02*
D03*
Y319500D02*
D03*
X39000Y344900D02*
D03*
X140600Y446500D02*
D03*
Y421100D02*
D03*
X115200Y446500D02*
D03*
Y421100D02*
D03*
X89800Y446500D02*
D03*
Y421100D02*
D03*
X64400Y446500D02*
D03*
Y421100D02*
D03*
X39000Y446500D02*
D03*
Y497300D02*
D03*
X64400Y471900D02*
D03*
Y497300D02*
D03*
X89800Y471900D02*
D03*
Y497300D02*
D03*
X115200Y471900D02*
D03*
Y497300D02*
D03*
X140600Y471900D02*
D03*
Y497300D02*
D03*
D35*
X13500D02*
D03*
X166000Y14700D02*
D03*
X39000Y471900D02*
D03*
D36*
Y319500D02*
D03*
Y421100D02*
D03*
M02*
