%FSLAX44Y44*%
%MOMM*%
G71*
G01*
G75*
G04 Layer_Color=16711935*
G04:AMPARAMS|DCode=10|XSize=0.6mm|YSize=0.5mm|CornerRadius=0.05mm|HoleSize=0mm|Usage=FLASHONLY|Rotation=270.000|XOffset=0mm|YOffset=0mm|HoleType=Round|Shape=RoundedRectangle|*
%AMROUNDEDRECTD10*
21,1,0.6000,0.4000,0,0,270.0*
21,1,0.5000,0.5000,0,0,270.0*
1,1,0.1000,-0.2000,-0.2500*
1,1,0.1000,-0.2000,0.2500*
1,1,0.1000,0.2000,0.2500*
1,1,0.1000,0.2000,-0.2500*
%
%ADD10ROUNDEDRECTD10*%
G04:AMPARAMS|DCode=11|XSize=0.4mm|YSize=0.37mm|CornerRadius=0.037mm|HoleSize=0mm|Usage=FLASHONLY|Rotation=90.000|XOffset=0mm|YOffset=0mm|HoleType=Round|Shape=RoundedRectangle|*
%AMROUNDEDRECTD11*
21,1,0.4000,0.2960,0,0,90.0*
21,1,0.3260,0.3700,0,0,90.0*
1,1,0.0740,0.1480,0.1630*
1,1,0.0740,0.1480,-0.1630*
1,1,0.0740,-0.1480,-0.1630*
1,1,0.0740,-0.1480,0.1630*
%
%ADD11ROUNDEDRECTD11*%
%ADD12R,0.5400X0.7400*%
%ADD13R,0.7400X0.5400*%
G04:AMPARAMS|DCode=14|XSize=0.8mm|YSize=0.8mm|CornerRadius=0.12mm|HoleSize=0mm|Usage=FLASHONLY|Rotation=0.000|XOffset=0mm|YOffset=0mm|HoleType=Round|Shape=RoundedRectangle|*
%AMROUNDEDRECTD14*
21,1,0.8000,0.5600,0,0,0.0*
21,1,0.5600,0.8000,0,0,0.0*
1,1,0.2400,0.2800,-0.2800*
1,1,0.2400,-0.2800,-0.2800*
1,1,0.2400,-0.2800,0.2800*
1,1,0.2400,0.2800,0.2800*
%
%ADD14ROUNDEDRECTD14*%
%ADD15C,0.3500*%
%ADD16O,1.4000X0.6000*%
G04:AMPARAMS|DCode=17|XSize=0.8mm|YSize=0.8mm|CornerRadius=0.12mm|HoleSize=0mm|Usage=FLASHONLY|Rotation=270.000|XOffset=0mm|YOffset=0mm|HoleType=Round|Shape=RoundedRectangle|*
%AMROUNDEDRECTD17*
21,1,0.8000,0.5600,0,0,270.0*
21,1,0.5600,0.8000,0,0,270.0*
1,1,0.2400,-0.2800,-0.2800*
1,1,0.2400,-0.2800,0.2800*
1,1,0.2400,0.2800,0.2800*
1,1,0.2400,0.2800,-0.2800*
%
%ADD17ROUNDEDRECTD17*%
G04:AMPARAMS|DCode=18|XSize=0.6mm|YSize=0.5mm|CornerRadius=0.05mm|HoleSize=0mm|Usage=FLASHONLY|Rotation=180.000|XOffset=0mm|YOffset=0mm|HoleType=Round|Shape=RoundedRectangle|*
%AMROUNDEDRECTD18*
21,1,0.6000,0.4000,0,0,180.0*
21,1,0.5000,0.5000,0,0,180.0*
1,1,0.1000,-0.2500,0.2000*
1,1,0.1000,0.2500,0.2000*
1,1,0.1000,0.2500,-0.2000*
1,1,0.1000,-0.2500,-0.2000*
%
%ADD18ROUNDEDRECTD18*%
%ADD19O,0.8000X1.4700*%
G04:AMPARAMS|DCode=20|XSize=0.95mm|YSize=0.85mm|CornerRadius=0.2125mm|HoleSize=0mm|Usage=FLASHONLY|Rotation=180.000|XOffset=0mm|YOffset=0mm|HoleType=Round|Shape=RoundedRectangle|*
%AMROUNDEDRECTD20*
21,1,0.9500,0.4250,0,0,180.0*
21,1,0.5250,0.8500,0,0,180.0*
1,1,0.4250,-0.2625,0.2125*
1,1,0.4250,0.2625,0.2125*
1,1,0.4250,0.2625,-0.2125*
1,1,0.4250,-0.2625,-0.2125*
%
%ADD20ROUNDEDRECTD20*%
G04:AMPARAMS|DCode=21|XSize=1mm|YSize=0.6mm|CornerRadius=0.15mm|HoleSize=0mm|Usage=FLASHONLY|Rotation=180.000|XOffset=0mm|YOffset=0mm|HoleType=Round|Shape=RoundedRectangle|*
%AMROUNDEDRECTD21*
21,1,1.0000,0.3000,0,0,180.0*
21,1,0.7000,0.6000,0,0,180.0*
1,1,0.3000,-0.3500,0.1500*
1,1,0.3000,0.3500,0.1500*
1,1,0.3000,0.3500,-0.1500*
1,1,0.3000,-0.3500,-0.1500*
%
%ADD21ROUNDEDRECTD21*%
G04:AMPARAMS|DCode=22|XSize=1.45mm|YSize=1.4mm|CornerRadius=0.35mm|HoleSize=0mm|Usage=FLASHONLY|Rotation=0.000|XOffset=0mm|YOffset=0mm|HoleType=Round|Shape=RoundedRectangle|*
%AMROUNDEDRECTD22*
21,1,1.4500,0.7000,0,0,0.0*
21,1,0.7500,1.4000,0,0,0.0*
1,1,0.7000,0.3750,-0.3500*
1,1,0.7000,-0.3750,-0.3500*
1,1,0.7000,-0.3750,0.3500*
1,1,0.7000,0.3750,0.3500*
%
%ADD22ROUNDEDRECTD22*%
G04:AMPARAMS|DCode=23|XSize=0.6mm|YSize=1.25mm|CornerRadius=0.15mm|HoleSize=0mm|Usage=FLASHONLY|Rotation=0.000|XOffset=0mm|YOffset=0mm|HoleType=Round|Shape=RoundedRectangle|*
%AMROUNDEDRECTD23*
21,1,0.6000,0.9500,0,0,0.0*
21,1,0.3000,1.2500,0,0,0.0*
1,1,0.3000,0.1500,-0.4750*
1,1,0.3000,-0.1500,-0.4750*
1,1,0.3000,-0.1500,0.4750*
1,1,0.3000,0.1500,0.4750*
%
%ADD23ROUNDEDRECTD23*%
G04:AMPARAMS|DCode=24|XSize=3.79mm|YSize=1.2mm|CornerRadius=0.3mm|HoleSize=0mm|Usage=FLASHONLY|Rotation=270.000|XOffset=0mm|YOffset=0mm|HoleType=Round|Shape=RoundedRectangle|*
%AMROUNDEDRECTD24*
21,1,3.7900,0.6000,0,0,270.0*
21,1,3.1900,1.2000,0,0,270.0*
1,1,0.6000,-0.3000,-1.5950*
1,1,0.6000,-0.3000,1.5950*
1,1,0.6000,0.3000,1.5950*
1,1,0.6000,0.3000,-1.5950*
%
%ADD24ROUNDEDRECTD24*%
G04:AMPARAMS|DCode=25|XSize=0.76mm|YSize=0.27mm|CornerRadius=0.027mm|HoleSize=0mm|Usage=FLASHONLY|Rotation=180.000|XOffset=0mm|YOffset=0mm|HoleType=Round|Shape=RoundedRectangle|*
%AMROUNDEDRECTD25*
21,1,0.7600,0.2160,0,0,180.0*
21,1,0.7060,0.2700,0,0,180.0*
1,1,0.0540,-0.3530,0.1080*
1,1,0.0540,0.3530,0.1080*
1,1,0.0540,0.3530,-0.1080*
1,1,0.0540,-0.3530,-0.1080*
%
%ADD25ROUNDEDRECTD25*%
G04:AMPARAMS|DCode=26|XSize=0.76mm|YSize=0.27mm|CornerRadius=0.027mm|HoleSize=0mm|Usage=FLASHONLY|Rotation=90.000|XOffset=0mm|YOffset=0mm|HoleType=Round|Shape=RoundedRectangle|*
%AMROUNDEDRECTD26*
21,1,0.7600,0.2160,0,0,90.0*
21,1,0.7060,0.2700,0,0,90.0*
1,1,0.0540,0.1080,0.3530*
1,1,0.0540,0.1080,-0.3530*
1,1,0.0540,-0.1080,-0.3530*
1,1,0.0540,-0.1080,0.3530*
%
%ADD26ROUNDEDRECTD26*%
G04:AMPARAMS|DCode=27|XSize=0.4mm|YSize=0.37mm|CornerRadius=0.037mm|HoleSize=0mm|Usage=FLASHONLY|Rotation=0.000|XOffset=0mm|YOffset=0mm|HoleType=Round|Shape=RoundedRectangle|*
%AMROUNDEDRECTD27*
21,1,0.4000,0.2960,0,0,0.0*
21,1,0.3260,0.3700,0,0,0.0*
1,1,0.0740,0.1630,-0.1480*
1,1,0.0740,-0.1630,-0.1480*
1,1,0.0740,-0.1630,0.1480*
1,1,0.0740,0.1630,0.1480*
%
%ADD27ROUNDEDRECTD27*%
%ADD28C,0.0750*%
%ADD29C,0.0751*%
%ADD30C,0.1000*%
%ADD31C,0.3000*%
%ADD32C,0.1500*%
%ADD33C,0.0100*%
%ADD34C,1.5000*%
%ADD35R,1.5000X1.5000*%
%ADD36R,1.5000X1.5000*%
%ADD37C,0.8000*%
G04:AMPARAMS|DCode=38|XSize=0.3mm|YSize=0.6mm|CornerRadius=0.0495mm|HoleSize=0mm|Usage=FLASHONLY|Rotation=270.000|XOffset=0mm|YOffset=0mm|HoleType=Round|Shape=RoundedRectangle|*
%AMROUNDEDRECTD38*
21,1,0.3000,0.5010,0,0,270.0*
21,1,0.2010,0.6000,0,0,270.0*
1,1,0.0990,-0.2505,-0.1005*
1,1,0.0990,-0.2505,0.1005*
1,1,0.0990,0.2505,0.1005*
1,1,0.0990,0.2505,-0.1005*
%
%ADD38ROUNDEDRECTD38*%
G04:AMPARAMS|DCode=39|XSize=0.3mm|YSize=0.6mm|CornerRadius=0.0495mm|HoleSize=0mm|Usage=FLASHONLY|Rotation=0.000|XOffset=0mm|YOffset=0mm|HoleType=Round|Shape=RoundedRectangle|*
%AMROUNDEDRECTD39*
21,1,0.3000,0.5010,0,0,0.0*
21,1,0.2010,0.6000,0,0,0.0*
1,1,0.0990,0.1005,-0.2505*
1,1,0.0990,-0.1005,-0.2505*
1,1,0.0990,-0.1005,0.2505*
1,1,0.0990,0.1005,0.2505*
%
%ADD39ROUNDEDRECTD39*%
%ADD40R,0.9000X2.2500*%
G04:AMPARAMS|DCode=41|XSize=1.38mm|YSize=1.05mm|CornerRadius=0.105mm|HoleSize=0mm|Usage=FLASHONLY|Rotation=0.000|XOffset=0mm|YOffset=0mm|HoleType=Round|Shape=RoundedRectangle|*
%AMROUNDEDRECTD41*
21,1,1.3800,0.8400,0,0,0.0*
21,1,1.1700,1.0500,0,0,0.0*
1,1,0.2100,0.5850,-0.4200*
1,1,0.2100,-0.5850,-0.4200*
1,1,0.2100,-0.5850,0.4200*
1,1,0.2100,0.5850,0.4200*
%
%ADD41ROUNDEDRECTD41*%
G04:AMPARAMS|DCode=42|XSize=1.38mm|YSize=1.05mm|CornerRadius=0.105mm|HoleSize=0mm|Usage=FLASHONLY|Rotation=270.000|XOffset=0mm|YOffset=0mm|HoleType=Round|Shape=RoundedRectangle|*
%AMROUNDEDRECTD42*
21,1,1.3800,0.8400,0,0,270.0*
21,1,1.1700,1.0500,0,0,270.0*
1,1,0.2100,-0.4200,-0.5850*
1,1,0.2100,-0.4200,0.5850*
1,1,0.2100,0.4200,0.5850*
1,1,0.2100,0.4200,-0.5850*
%
%ADD42ROUNDEDRECTD42*%
G04:AMPARAMS|DCode=43|XSize=0.9mm|YSize=0.8mm|CornerRadius=0.08mm|HoleSize=0mm|Usage=FLASHONLY|Rotation=180.000|XOffset=0mm|YOffset=0mm|HoleType=Round|Shape=RoundedRectangle|*
%AMROUNDEDRECTD43*
21,1,0.9000,0.6400,0,0,180.0*
21,1,0.7400,0.8000,0,0,180.0*
1,1,0.1600,-0.3700,0.3200*
1,1,0.1600,0.3700,0.3200*
1,1,0.1600,0.3700,-0.3200*
1,1,0.1600,-0.3700,-0.3200*
%
%ADD43ROUNDEDRECTD43*%
%ADD44O,1.6000X0.6000*%
%ADD45C,0.2000*%
%ADD46C,0.2540*%
%ADD47C,0.2500*%
%ADD48C,0.6000*%
%ADD49C,0.5000*%
%ADD50C,0.1200*%
%ADD51C,0.1500*%
D10*
X136100Y257800D02*
D03*
X127100D02*
D03*
X127100Y248800D02*
D03*
X136100D02*
D03*
X64900Y191800D02*
D03*
X55900D02*
D03*
X130900Y77200D02*
D03*
X121900D02*
D03*
X129300Y108200D02*
D03*
X120300D02*
D03*
X129000Y188600D02*
D03*
X138000D02*
D03*
X75500Y242500D02*
D03*
X84500D02*
D03*
D11*
X92650Y106000D02*
D03*
X98350D02*
D03*
X36950Y20800D02*
D03*
X42650D02*
D03*
X38850Y57100D02*
D03*
X33150D02*
D03*
X33250Y71500D02*
D03*
X38950D02*
D03*
X109100Y66200D02*
D03*
X103400D02*
D03*
X139150Y67800D02*
D03*
X133450D02*
D03*
X126550Y68400D02*
D03*
X120850D02*
D03*
X80350Y66100D02*
D03*
X74650D02*
D03*
D18*
X70600Y97700D02*
D03*
Y106700D02*
D03*
X82400Y75500D02*
D03*
Y84500D02*
D03*
D27*
X143000Y20350D02*
D03*
Y26050D02*
D03*
X62100Y144750D02*
D03*
Y139050D02*
D03*
X82900Y127550D02*
D03*
Y133250D02*
D03*
X62100Y129550D02*
D03*
Y123850D02*
D03*
X143000Y38550D02*
D03*
Y32850D02*
D03*
Y7850D02*
D03*
Y13550D02*
D03*
X41900Y36250D02*
D03*
Y41950D02*
D03*
X59600Y72650D02*
D03*
Y66950D02*
D03*
X121100Y92150D02*
D03*
Y97850D02*
D03*
X143000Y45250D02*
D03*
Y50950D02*
D03*
X101200Y75250D02*
D03*
Y80950D02*
D03*
X91400Y72850D02*
D03*
Y67150D02*
D03*
X91200Y89150D02*
D03*
Y83450D02*
D03*
X67700Y66950D02*
D03*
Y72650D02*
D03*
X73200Y84150D02*
D03*
Y89850D02*
D03*
D33*
X0Y0D02*
Y510000D01*
X179000D01*
X0Y0D02*
X179000Y-0D01*
Y510000D01*
D34*
X13500Y14700D02*
D03*
Y40100D02*
D03*
Y65500D02*
D03*
Y90900D02*
D03*
X166000Y167100D02*
D03*
Y192500D02*
D03*
Y116300D02*
D03*
Y141700D02*
D03*
Y65500D02*
D03*
Y90900D02*
D03*
Y217900D02*
D03*
Y294100D02*
D03*
Y319500D02*
D03*
Y344900D02*
D03*
Y395700D02*
D03*
Y421100D02*
D03*
Y446500D02*
D03*
Y471900D02*
D03*
Y497300D02*
D03*
Y370300D02*
D03*
X13500Y471900D02*
D03*
Y446500D02*
D03*
Y421100D02*
D03*
Y395700D02*
D03*
Y370300D02*
D03*
Y344900D02*
D03*
Y319500D02*
D03*
Y294100D02*
D03*
Y268700D02*
D03*
Y243300D02*
D03*
Y217900D02*
D03*
Y116300D02*
D03*
Y141700D02*
D03*
Y192500D02*
D03*
Y167100D02*
D03*
X166000Y268700D02*
D03*
Y243300D02*
D03*
Y40100D02*
D03*
X140600Y344900D02*
D03*
Y319500D02*
D03*
X115200Y344900D02*
D03*
Y319500D02*
D03*
X89800Y344900D02*
D03*
Y319500D02*
D03*
X64400Y344900D02*
D03*
Y319500D02*
D03*
X39000Y344900D02*
D03*
X140600Y446500D02*
D03*
Y421100D02*
D03*
X115200Y446500D02*
D03*
Y421100D02*
D03*
X89800Y446500D02*
D03*
Y421100D02*
D03*
X64400Y446500D02*
D03*
Y421100D02*
D03*
X39000Y446500D02*
D03*
Y497300D02*
D03*
X64400Y471900D02*
D03*
Y497300D02*
D03*
X89800Y471900D02*
D03*
Y497300D02*
D03*
X115200Y471900D02*
D03*
Y497300D02*
D03*
X140600Y471900D02*
D03*
Y497300D02*
D03*
D35*
X13500D02*
D03*
X166000Y14700D02*
D03*
X39000Y471900D02*
D03*
D36*
Y319500D02*
D03*
Y421100D02*
D03*
D37*
X46100Y205800D02*
D03*
X83900Y190100D02*
D03*
D38*
X91500Y262750D02*
D03*
Y282250D02*
D03*
Y275750D02*
D03*
Y269250D02*
D03*
X43500D02*
D03*
Y275750D02*
D03*
Y282250D02*
D03*
Y262750D02*
D03*
X143500Y209250D02*
D03*
Y228750D02*
D03*
Y222250D02*
D03*
Y215750D02*
D03*
X95500D02*
D03*
Y222250D02*
D03*
Y228750D02*
D03*
Y209250D02*
D03*
D39*
X83750Y291500D02*
D03*
X77250D02*
D03*
X70750D02*
D03*
X64250D02*
D03*
X57750D02*
D03*
X51250D02*
D03*
X51250Y253500D02*
D03*
X57750D02*
D03*
X64250D02*
D03*
X70750D02*
D03*
X77250D02*
D03*
X83750D02*
D03*
X135750Y238000D02*
D03*
X129250D02*
D03*
X122750D02*
D03*
X116250D02*
D03*
X109750D02*
D03*
X103250D02*
D03*
X103250Y200000D02*
D03*
X109750D02*
D03*
X116250D02*
D03*
X122750D02*
D03*
X129250D02*
D03*
X135750D02*
D03*
D40*
X82000Y269750D02*
D03*
X134000Y216250D02*
D03*
D41*
X106500Y262800D02*
D03*
Y280600D02*
D03*
D42*
X99600Y167000D02*
D03*
X117400D02*
D03*
X45975Y220500D02*
D03*
X63775D02*
D03*
X99600Y185000D02*
D03*
X117400D02*
D03*
X45975Y238500D02*
D03*
X63775D02*
D03*
D43*
X51100Y129400D02*
D03*
X36100D02*
D03*
Y141400D02*
D03*
X51100D02*
D03*
D44*
X128500Y51550D02*
D03*
Y38850D02*
D03*
Y26150D02*
D03*
Y13450D02*
D03*
X56500Y51550D02*
D03*
Y38850D02*
D03*
Y26150D02*
D03*
Y13450D02*
D03*
D51*
X40700Y299600D02*
D03*
X51200Y301900D02*
D03*
X57600Y302100D02*
D03*
X48900Y229200D02*
D03*
X44400D02*
D03*
X79500Y260300D02*
D03*
X84800Y267500D02*
D03*
X133900Y216400D02*
D03*
Y208700D02*
D03*
Y223900D02*
D03*
X84400Y214899D02*
D03*
X124900Y167000D02*
D03*
X124400Y185000D02*
D03*
X147900Y39550D02*
D03*
X35700Y235000D02*
D03*
X106900Y180900D02*
D03*
X80100Y228600D02*
D03*
X79900Y237500D02*
D03*
X108100Y288400D02*
D03*
X86000Y16300D02*
D03*
X25500Y9500D02*
D03*
X96300Y262750D02*
D03*
X83750Y248300D02*
D03*
X148550Y14850D02*
D03*
X148400Y8500D02*
D03*
X108800Y71300D02*
D03*
X92200Y78200D02*
D03*
X95800Y8000D02*
D03*
X54500Y32300D02*
D03*
X140200Y72800D02*
D03*
Y80800D02*
D03*
Y88800D02*
D03*
X134800Y102300D02*
D03*
X148200Y104700D02*
D03*
X52200Y88800D02*
D03*
X76100Y62100D02*
D03*
X65500Y149000D02*
D03*
X47500D02*
D03*
X40500D02*
D03*
X33500D02*
D03*
X38800Y80800D02*
D03*
X46400Y78600D02*
D03*
X60000Y78100D02*
D03*
X68100Y56900D02*
D03*
X60100Y62200D02*
D03*
X44200Y70300D02*
D03*
X84100Y46200D02*
D03*
X84100Y62100D02*
D03*
X92100Y62300D02*
D03*
X127300Y63400D02*
D03*
X33500Y23800D02*
D03*
X30700Y64800D02*
D03*
X46800Y56800D02*
D03*
X107900Y93900D02*
D03*
X76200Y94200D02*
D03*
X84100Y70100D02*
D03*
X76100Y78100D02*
D03*
X116200Y78200D02*
D03*
X65125Y159300D02*
D03*
X52100Y148700D02*
D03*
X78675Y166200D02*
D03*
X27200Y149500D02*
D03*
Y143100D02*
D03*
X105000Y149600D02*
D03*
X96000Y151000D02*
D03*
X70175Y191750D02*
D03*
X133300Y150900D02*
D03*
X102800Y62200D02*
D03*
X102900Y54200D02*
D03*
X115300Y156400D02*
D03*
X116200Y151700D02*
D03*
X110900Y62100D02*
D03*
X106000Y144200D02*
D03*
X60200Y88800D02*
D03*
X68200Y78200D02*
D03*
Y88800D02*
D03*
X37900Y31500D02*
D03*
X46500Y47500D02*
D03*
X110700Y24700D02*
D03*
X100900Y22800D02*
D03*
X30600Y31700D02*
D03*
X71375Y228100D02*
D03*
Y221075D02*
D03*
X35300Y223900D02*
D03*
X158100Y260600D02*
D03*
X83900Y224900D02*
D03*
X106900Y187000D02*
D03*
X94600Y48600D02*
D03*
X78700Y48800D02*
D03*
X116100Y70700D02*
D03*
X127100Y262700D02*
D03*
X68000Y48600D02*
D03*
X141300Y55800D02*
D03*
X148200Y96700D02*
D03*
X140200Y104700D02*
D03*
X116300Y86200D02*
D03*
Y94200D02*
D03*
X108300Y78200D02*
D03*
Y86200D02*
D03*
X100300D02*
D03*
X133800Y88100D02*
D03*
X124300Y86200D02*
D03*
X148200Y88700D02*
D03*
X116300Y102200D02*
D03*
X108300D02*
D03*
X100300D02*
D03*
Y94200D02*
D03*
X92300D02*
D03*
Y102200D02*
D03*
X84300Y94200D02*
D03*
X84200Y104700D02*
D03*
X86800Y110300D02*
D03*
X92300Y118200D02*
D03*
X100300D02*
D03*
X92300Y126200D02*
D03*
X107800Y127900D02*
D03*
X78800Y126300D02*
D03*
Y134300D02*
D03*
X76300Y102200D02*
D03*
Y110200D02*
D03*
X64100Y103100D02*
D03*
X44200Y104700D02*
D03*
X36200D02*
D03*
X30800Y102300D02*
D03*
X36200Y88700D02*
D03*
X60300Y118200D02*
D03*
X46800Y118300D02*
D03*
X54700Y120800D02*
D03*
X38700D02*
D03*
X62800Y134300D02*
D03*
X89500Y143200D02*
D03*
X103700Y135900D02*
D03*
X100100Y70500D02*
D03*
X59200Y103800D02*
D03*
X52350Y104550D02*
D03*
X30500Y119600D02*
D03*
X128600Y152000D02*
D03*
X133300Y155600D02*
D03*
X67275Y166500D02*
D03*
X88900Y210000D02*
D03*
X123100Y119900D02*
D03*
X122900Y127900D02*
D03*
X128100Y127100D02*
D03*
X129700Y143200D02*
D03*
X121700Y144300D02*
D03*
X138900Y119100D02*
D03*
Y127100D02*
D03*
Y135100D02*
D03*
Y143100D02*
D03*
X144100Y135100D02*
D03*
Y143100D02*
D03*
X128100Y135100D02*
D03*
X126800Y96800D02*
D03*
M02*
