%FSLAX44Y44*%
%MOMM*%
G71*
G01*
G75*
G04 Layer_Color=32896*
G04:AMPARAMS|DCode=10|XSize=0.6mm|YSize=0.5mm|CornerRadius=0.05mm|HoleSize=0mm|Usage=FLASHONLY|Rotation=270.000|XOffset=0mm|YOffset=0mm|HoleType=Round|Shape=RoundedRectangle|*
%AMROUNDEDRECTD10*
21,1,0.6000,0.4000,0,0,270.0*
21,1,0.5000,0.5000,0,0,270.0*
1,1,0.1000,-0.2000,-0.2500*
1,1,0.1000,-0.2000,0.2500*
1,1,0.1000,0.2000,0.2500*
1,1,0.1000,0.2000,-0.2500*
%
%ADD10ROUNDEDRECTD10*%
G04:AMPARAMS|DCode=11|XSize=0.4mm|YSize=0.37mm|CornerRadius=0.037mm|HoleSize=0mm|Usage=FLASHONLY|Rotation=90.000|XOffset=0mm|YOffset=0mm|HoleType=Round|Shape=RoundedRectangle|*
%AMROUNDEDRECTD11*
21,1,0.4000,0.2960,0,0,90.0*
21,1,0.3260,0.3700,0,0,90.0*
1,1,0.0740,0.1480,0.1630*
1,1,0.0740,0.1480,-0.1630*
1,1,0.0740,-0.1480,-0.1630*
1,1,0.0740,-0.1480,0.1630*
%
%ADD11ROUNDEDRECTD11*%
%ADD12R,0.5400X0.7400*%
%ADD13R,0.7400X0.5400*%
G04:AMPARAMS|DCode=14|XSize=0.8mm|YSize=0.8mm|CornerRadius=0.12mm|HoleSize=0mm|Usage=FLASHONLY|Rotation=0.000|XOffset=0mm|YOffset=0mm|HoleType=Round|Shape=RoundedRectangle|*
%AMROUNDEDRECTD14*
21,1,0.8000,0.5600,0,0,0.0*
21,1,0.5600,0.8000,0,0,0.0*
1,1,0.2400,0.2800,-0.2800*
1,1,0.2400,-0.2800,-0.2800*
1,1,0.2400,-0.2800,0.2800*
1,1,0.2400,0.2800,0.2800*
%
%ADD14ROUNDEDRECTD14*%
%ADD15C,0.3500*%
%ADD16O,1.4000X0.6000*%
G04:AMPARAMS|DCode=17|XSize=0.8mm|YSize=0.8mm|CornerRadius=0.12mm|HoleSize=0mm|Usage=FLASHONLY|Rotation=270.000|XOffset=0mm|YOffset=0mm|HoleType=Round|Shape=RoundedRectangle|*
%AMROUNDEDRECTD17*
21,1,0.8000,0.5600,0,0,270.0*
21,1,0.5600,0.8000,0,0,270.0*
1,1,0.2400,-0.2800,-0.2800*
1,1,0.2400,-0.2800,0.2800*
1,1,0.2400,0.2800,0.2800*
1,1,0.2400,0.2800,-0.2800*
%
%ADD17ROUNDEDRECTD17*%
G04:AMPARAMS|DCode=18|XSize=0.6mm|YSize=0.5mm|CornerRadius=0.05mm|HoleSize=0mm|Usage=FLASHONLY|Rotation=180.000|XOffset=0mm|YOffset=0mm|HoleType=Round|Shape=RoundedRectangle|*
%AMROUNDEDRECTD18*
21,1,0.6000,0.4000,0,0,180.0*
21,1,0.5000,0.5000,0,0,180.0*
1,1,0.1000,-0.2500,0.2000*
1,1,0.1000,0.2500,0.2000*
1,1,0.1000,0.2500,-0.2000*
1,1,0.1000,-0.2500,-0.2000*
%
%ADD18ROUNDEDRECTD18*%
%ADD19O,0.8000X1.4700*%
G04:AMPARAMS|DCode=20|XSize=0.95mm|YSize=0.85mm|CornerRadius=0.2125mm|HoleSize=0mm|Usage=FLASHONLY|Rotation=180.000|XOffset=0mm|YOffset=0mm|HoleType=Round|Shape=RoundedRectangle|*
%AMROUNDEDRECTD20*
21,1,0.9500,0.4250,0,0,180.0*
21,1,0.5250,0.8500,0,0,180.0*
1,1,0.4250,-0.2625,0.2125*
1,1,0.4250,0.2625,0.2125*
1,1,0.4250,0.2625,-0.2125*
1,1,0.4250,-0.2625,-0.2125*
%
%ADD20ROUNDEDRECTD20*%
G04:AMPARAMS|DCode=21|XSize=1mm|YSize=0.6mm|CornerRadius=0.15mm|HoleSize=0mm|Usage=FLASHONLY|Rotation=180.000|XOffset=0mm|YOffset=0mm|HoleType=Round|Shape=RoundedRectangle|*
%AMROUNDEDRECTD21*
21,1,1.0000,0.3000,0,0,180.0*
21,1,0.7000,0.6000,0,0,180.0*
1,1,0.3000,-0.3500,0.1500*
1,1,0.3000,0.3500,0.1500*
1,1,0.3000,0.3500,-0.1500*
1,1,0.3000,-0.3500,-0.1500*
%
%ADD21ROUNDEDRECTD21*%
G04:AMPARAMS|DCode=22|XSize=1.45mm|YSize=1.4mm|CornerRadius=0.35mm|HoleSize=0mm|Usage=FLASHONLY|Rotation=0.000|XOffset=0mm|YOffset=0mm|HoleType=Round|Shape=RoundedRectangle|*
%AMROUNDEDRECTD22*
21,1,1.4500,0.7000,0,0,0.0*
21,1,0.7500,1.4000,0,0,0.0*
1,1,0.7000,0.3750,-0.3500*
1,1,0.7000,-0.3750,-0.3500*
1,1,0.7000,-0.3750,0.3500*
1,1,0.7000,0.3750,0.3500*
%
%ADD22ROUNDEDRECTD22*%
G04:AMPARAMS|DCode=23|XSize=0.6mm|YSize=1.25mm|CornerRadius=0.15mm|HoleSize=0mm|Usage=FLASHONLY|Rotation=0.000|XOffset=0mm|YOffset=0mm|HoleType=Round|Shape=RoundedRectangle|*
%AMROUNDEDRECTD23*
21,1,0.6000,0.9500,0,0,0.0*
21,1,0.3000,1.2500,0,0,0.0*
1,1,0.3000,0.1500,-0.4750*
1,1,0.3000,-0.1500,-0.4750*
1,1,0.3000,-0.1500,0.4750*
1,1,0.3000,0.1500,0.4750*
%
%ADD23ROUNDEDRECTD23*%
G04:AMPARAMS|DCode=24|XSize=3.79mm|YSize=1.2mm|CornerRadius=0.3mm|HoleSize=0mm|Usage=FLASHONLY|Rotation=270.000|XOffset=0mm|YOffset=0mm|HoleType=Round|Shape=RoundedRectangle|*
%AMROUNDEDRECTD24*
21,1,3.7900,0.6000,0,0,270.0*
21,1,3.1900,1.2000,0,0,270.0*
1,1,0.6000,-0.3000,-1.5950*
1,1,0.6000,-0.3000,1.5950*
1,1,0.6000,0.3000,1.5950*
1,1,0.6000,0.3000,-1.5950*
%
%ADD24ROUNDEDRECTD24*%
G04:AMPARAMS|DCode=25|XSize=0.76mm|YSize=0.27mm|CornerRadius=0.027mm|HoleSize=0mm|Usage=FLASHONLY|Rotation=180.000|XOffset=0mm|YOffset=0mm|HoleType=Round|Shape=RoundedRectangle|*
%AMROUNDEDRECTD25*
21,1,0.7600,0.2160,0,0,180.0*
21,1,0.7060,0.2700,0,0,180.0*
1,1,0.0540,-0.3530,0.1080*
1,1,0.0540,0.3530,0.1080*
1,1,0.0540,0.3530,-0.1080*
1,1,0.0540,-0.3530,-0.1080*
%
%ADD25ROUNDEDRECTD25*%
G04:AMPARAMS|DCode=26|XSize=0.76mm|YSize=0.27mm|CornerRadius=0.027mm|HoleSize=0mm|Usage=FLASHONLY|Rotation=90.000|XOffset=0mm|YOffset=0mm|HoleType=Round|Shape=RoundedRectangle|*
%AMROUNDEDRECTD26*
21,1,0.7600,0.2160,0,0,90.0*
21,1,0.7060,0.2700,0,0,90.0*
1,1,0.0540,0.1080,0.3530*
1,1,0.0540,0.1080,-0.3530*
1,1,0.0540,-0.1080,-0.3530*
1,1,0.0540,-0.1080,0.3530*
%
%ADD26ROUNDEDRECTD26*%
G04:AMPARAMS|DCode=27|XSize=0.4mm|YSize=0.37mm|CornerRadius=0.037mm|HoleSize=0mm|Usage=FLASHONLY|Rotation=0.000|XOffset=0mm|YOffset=0mm|HoleType=Round|Shape=RoundedRectangle|*
%AMROUNDEDRECTD27*
21,1,0.4000,0.2960,0,0,0.0*
21,1,0.3260,0.3700,0,0,0.0*
1,1,0.0740,0.1630,-0.1480*
1,1,0.0740,-0.1630,-0.1480*
1,1,0.0740,-0.1630,0.1480*
1,1,0.0740,0.1630,0.1480*
%
%ADD27ROUNDEDRECTD27*%
%ADD28C,0.0750*%
%ADD29C,0.0751*%
%ADD30C,0.1000*%
%ADD31C,0.3000*%
%ADD32C,0.1500*%
%ADD33C,0.0100*%
%ADD34C,1.5000*%
%ADD35R,1.5000X1.5000*%
%ADD36R,1.5000X1.5000*%
%ADD37C,0.8000*%
G04:AMPARAMS|DCode=38|XSize=0.3mm|YSize=0.6mm|CornerRadius=0.0495mm|HoleSize=0mm|Usage=FLASHONLY|Rotation=270.000|XOffset=0mm|YOffset=0mm|HoleType=Round|Shape=RoundedRectangle|*
%AMROUNDEDRECTD38*
21,1,0.3000,0.5010,0,0,270.0*
21,1,0.2010,0.6000,0,0,270.0*
1,1,0.0990,-0.2505,-0.1005*
1,1,0.0990,-0.2505,0.1005*
1,1,0.0990,0.2505,0.1005*
1,1,0.0990,0.2505,-0.1005*
%
%ADD38ROUNDEDRECTD38*%
G04:AMPARAMS|DCode=39|XSize=0.3mm|YSize=0.6mm|CornerRadius=0.0495mm|HoleSize=0mm|Usage=FLASHONLY|Rotation=0.000|XOffset=0mm|YOffset=0mm|HoleType=Round|Shape=RoundedRectangle|*
%AMROUNDEDRECTD39*
21,1,0.3000,0.5010,0,0,0.0*
21,1,0.2010,0.6000,0,0,0.0*
1,1,0.0990,0.1005,-0.2505*
1,1,0.0990,-0.1005,-0.2505*
1,1,0.0990,-0.1005,0.2505*
1,1,0.0990,0.1005,0.2505*
%
%ADD39ROUNDEDRECTD39*%
%ADD40R,0.9000X2.2500*%
G04:AMPARAMS|DCode=41|XSize=1.38mm|YSize=1.05mm|CornerRadius=0.105mm|HoleSize=0mm|Usage=FLASHONLY|Rotation=0.000|XOffset=0mm|YOffset=0mm|HoleType=Round|Shape=RoundedRectangle|*
%AMROUNDEDRECTD41*
21,1,1.3800,0.8400,0,0,0.0*
21,1,1.1700,1.0500,0,0,0.0*
1,1,0.2100,0.5850,-0.4200*
1,1,0.2100,-0.5850,-0.4200*
1,1,0.2100,-0.5850,0.4200*
1,1,0.2100,0.5850,0.4200*
%
%ADD41ROUNDEDRECTD41*%
G04:AMPARAMS|DCode=42|XSize=1.38mm|YSize=1.05mm|CornerRadius=0.105mm|HoleSize=0mm|Usage=FLASHONLY|Rotation=270.000|XOffset=0mm|YOffset=0mm|HoleType=Round|Shape=RoundedRectangle|*
%AMROUNDEDRECTD42*
21,1,1.3800,0.8400,0,0,270.0*
21,1,1.1700,1.0500,0,0,270.0*
1,1,0.2100,-0.4200,-0.5850*
1,1,0.2100,-0.4200,0.5850*
1,1,0.2100,0.4200,0.5850*
1,1,0.2100,0.4200,-0.5850*
%
%ADD42ROUNDEDRECTD42*%
G04:AMPARAMS|DCode=43|XSize=0.9mm|YSize=0.8mm|CornerRadius=0.08mm|HoleSize=0mm|Usage=FLASHONLY|Rotation=180.000|XOffset=0mm|YOffset=0mm|HoleType=Round|Shape=RoundedRectangle|*
%AMROUNDEDRECTD43*
21,1,0.9000,0.6400,0,0,180.0*
21,1,0.7400,0.8000,0,0,180.0*
1,1,0.1600,-0.3700,0.3200*
1,1,0.1600,0.3700,0.3200*
1,1,0.1600,0.3700,-0.3200*
1,1,0.1600,-0.3700,-0.3200*
%
%ADD43ROUNDEDRECTD43*%
%ADD44O,1.6000X0.6000*%
%ADD45C,0.2000*%
%ADD46C,0.2540*%
%ADD47C,0.2500*%
%ADD48C,0.6000*%
%ADD49C,0.5000*%
%ADD50C,0.1200*%
%ADD51C,0.1500*%
%ADD52C,0.4000*%
D30*
X52100Y205800D02*
G03*
X52100Y205800I-6000J0D01*
G01*
X89900Y190100D02*
G03*
X89900Y190100I-6000J0D01*
G01*
X108780Y291617D02*
X109946Y290451D01*
Y288118D01*
X108780Y286952D01*
X104115D01*
X102949Y288118D01*
Y290451D01*
X104115Y291617D01*
X102949Y298615D02*
Y293950D01*
X107614Y298615D01*
X108780D01*
X109946Y297449D01*
Y295116D01*
X108780Y293950D01*
X109946Y305613D02*
Y300948D01*
X106447D01*
X107614Y303280D01*
Y304447D01*
X106447Y305613D01*
X104115D01*
X102949Y304447D01*
Y302114D01*
X104115Y300948D01*
X79840Y304268D02*
Y298437D01*
X78674Y297271D01*
X76341D01*
X75175Y298437D01*
Y304268D01*
X72842Y303102D02*
X71676Y304268D01*
X69343D01*
X68177Y303102D01*
Y301936D01*
X69343Y300770D01*
X70510D01*
X69343D01*
X68177Y299603D01*
Y298437D01*
X69343Y297271D01*
X71676D01*
X72842Y298437D01*
X136632Y272649D02*
Y279646D01*
X133133D01*
X131967Y278480D01*
Y276147D01*
X133133Y274981D01*
X136632D01*
X134299D02*
X131967Y272649D01*
X124969D02*
X129634D01*
X124969Y277314D01*
Y278480D01*
X126135Y279646D01*
X128468D01*
X129634Y278480D01*
X136764Y262707D02*
Y269704D01*
X133265D01*
X132099Y268538D01*
Y266206D01*
X133265Y265039D01*
X136764D01*
X134431D02*
X132099Y262707D01*
X129766D02*
X127434D01*
X128600D01*
Y269704D01*
X129766Y268538D01*
X48308Y154709D02*
Y148878D01*
X47142Y147711D01*
X44809D01*
X43643Y148878D01*
Y154709D01*
X41310Y153543D02*
X40144Y154709D01*
X37811D01*
X36645Y153543D01*
Y152377D01*
X37811Y151210D01*
X36645Y150044D01*
Y148878D01*
X37811Y147711D01*
X40144D01*
X41310Y148878D01*
Y150044D01*
X40144Y151210D01*
X41310Y152377D01*
Y153543D01*
X40144Y151210D02*
X37811D01*
X119488Y250105D02*
Y244273D01*
X118322Y243107D01*
X115989D01*
X114823Y244273D01*
Y250105D01*
X107825Y243107D02*
X112490D01*
X107825Y247772D01*
Y248938D01*
X108991Y250105D01*
X111324D01*
X112490Y248938D01*
X44820Y74822D02*
Y81820D01*
X41321D01*
X40155Y80654D01*
Y78321D01*
X41321Y77155D01*
X44820D01*
X42487D02*
X40155Y74822D01*
X37822D02*
X35490D01*
X36656D01*
Y81820D01*
X37822Y80654D01*
X28492Y74822D02*
Y81820D01*
X31991Y78321D01*
X27326D01*
X31470Y28972D02*
X38468D01*
Y32471D01*
X37302Y33637D01*
X34969D01*
X33803Y32471D01*
Y28972D01*
Y31305D02*
X31470Y33637D01*
Y35970D02*
Y38302D01*
Y37136D01*
X38468D01*
X37302Y35970D01*
Y41801D02*
X38468Y42968D01*
Y45300D01*
X37302Y46466D01*
X32637D01*
X31470Y45300D01*
Y42968D01*
X32637Y41801D01*
X37302D01*
X44530Y9593D02*
Y16590D01*
X41031D01*
X39865Y15424D01*
Y13092D01*
X41031Y11925D01*
X44530D01*
X42197D02*
X39865Y9593D01*
X37532Y10759D02*
X36366Y9593D01*
X34033D01*
X32867Y10759D01*
Y15424D01*
X34033Y16590D01*
X36366D01*
X37532Y15424D01*
Y14258D01*
X36366Y13092D01*
X32867D01*
X151098Y71299D02*
Y78297D01*
X147600D01*
X146433Y77131D01*
Y74798D01*
X147600Y73632D01*
X151098D01*
X148766D02*
X146433Y71299D01*
X140602D02*
Y78297D01*
X144101Y74798D01*
X139436D01*
X48940Y65194D02*
X55938D01*
Y68692D01*
X54772Y69859D01*
X52439D01*
X51273Y68692D01*
Y65194D01*
Y67526D02*
X48940Y69859D01*
X54772Y72191D02*
X55938Y73358D01*
Y75690D01*
X54772Y76856D01*
X53605D01*
X52439Y75690D01*
Y74524D01*
Y75690D01*
X51273Y76856D01*
X50107D01*
X48940Y75690D01*
Y73358D01*
X50107Y72191D01*
X66901Y149052D02*
X59903D01*
Y153717D01*
X66901Y160715D02*
Y156050D01*
X63402D01*
X64568Y158382D01*
Y159549D01*
X63402Y160715D01*
X61069D01*
X59903Y159549D01*
Y157216D01*
X61069Y156050D01*
X85296Y93633D02*
X86462Y92467D01*
Y90134D01*
X85296Y88968D01*
X80631D01*
X79465Y90134D01*
Y92467D01*
X80631Y93633D01*
X86462Y100631D02*
X85296Y98298D01*
X82963Y95966D01*
X80631D01*
X79465Y97132D01*
Y99465D01*
X80631Y100631D01*
X81797D01*
X82963Y99465D01*
Y95966D01*
X85296Y102964D02*
X86462Y104130D01*
Y106462D01*
X85296Y107629D01*
X84130D01*
X82963Y106462D01*
Y105296D01*
Y106462D01*
X81797Y107629D01*
X80631D01*
X79465Y106462D01*
Y104130D01*
X80631Y102964D01*
X37338Y236208D02*
X38505Y235042D01*
Y232709D01*
X37338Y231543D01*
X32673D01*
X31507Y232709D01*
Y235042D01*
X32673Y236208D01*
X31507Y243206D02*
Y238541D01*
X36172Y243206D01*
X37338D01*
X38505Y242040D01*
Y239707D01*
X37338Y238541D01*
X31507Y249037D02*
X38505D01*
X35006Y245539D01*
Y250204D01*
X86174Y233907D02*
X87340Y235074D01*
X89673D01*
X90839Y233907D01*
Y229242D01*
X89673Y228076D01*
X87340D01*
X86174Y229242D01*
X79176Y228076D02*
X83841D01*
X79176Y232741D01*
Y233907D01*
X80343Y235074D01*
X82675D01*
X83841Y233907D01*
X76844D02*
X75677Y235074D01*
X73345D01*
X72179Y233907D01*
Y232741D01*
X73345Y231575D01*
X74511D01*
X73345D01*
X72179Y230408D01*
Y229242D01*
X73345Y228076D01*
X75677D01*
X76844Y229242D01*
X112655Y146072D02*
X113821Y147239D01*
X116154D01*
X117320Y146072D01*
Y141407D01*
X116154Y140241D01*
X113821D01*
X112655Y141407D01*
X105657Y140241D02*
X110322D01*
X105657Y144906D01*
Y146072D01*
X106823Y147239D01*
X109156D01*
X110322Y146072D01*
X103324Y140241D02*
X100992D01*
X102158D01*
Y147239D01*
X103324Y146072D01*
X147055Y110994D02*
X148221Y112161D01*
X150554D01*
X151720Y110994D01*
Y106329D01*
X150554Y105163D01*
X148221D01*
X147055Y106329D01*
X140057Y105163D02*
X144722D01*
X140057Y109828D01*
Y110994D01*
X141223Y112161D01*
X143556D01*
X144722Y110994D01*
X137724D02*
X136558Y112161D01*
X134226D01*
X133059Y110994D01*
Y106329D01*
X134226Y105163D01*
X136558D01*
X137724Y106329D01*
Y110994D01*
X64769Y99603D02*
X65935Y98437D01*
Y96104D01*
X64769Y94938D01*
X60104D01*
X58938Y96104D01*
Y98437D01*
X60104Y99603D01*
X58938Y101936D02*
Y104268D01*
Y103102D01*
X65935D01*
X64769Y101936D01*
X60104Y107767D02*
X58938Y108933D01*
Y111266D01*
X60104Y112432D01*
X64769D01*
X65935Y111266D01*
Y108933D01*
X64769Y107767D01*
X63603D01*
X62436Y108933D01*
Y112432D01*
X131841Y86934D02*
X133007Y88100D01*
X135340D01*
X136506Y86934D01*
Y82269D01*
X135340Y81103D01*
X133007D01*
X131841Y82269D01*
X129508Y81103D02*
X127176D01*
X128342D01*
Y88100D01*
X129508Y86934D01*
X123677D02*
X122510Y88100D01*
X120178D01*
X119011Y86934D01*
Y85768D01*
X120178Y84601D01*
X119011Y83435D01*
Y82269D01*
X120178Y81103D01*
X122510D01*
X123677Y82269D01*
Y83435D01*
X122510Y84601D01*
X123677Y85768D01*
Y86934D01*
X122510Y84601D02*
X120178D01*
X68914Y210428D02*
X70080Y211595D01*
X72413D01*
X73579Y210428D01*
Y205763D01*
X72413Y204597D01*
X70080D01*
X68914Y205763D01*
X66581Y204597D02*
X64249D01*
X65415D01*
Y211595D01*
X66581Y210428D01*
X56085Y211595D02*
X58417Y210428D01*
X60750Y208096D01*
Y205763D01*
X59584Y204597D01*
X57251D01*
X56085Y205763D01*
Y206929D01*
X57251Y208096D01*
X60750D01*
X46769Y193968D02*
X47935Y195134D01*
X50268D01*
X51434Y193968D01*
Y189303D01*
X50268Y188137D01*
X47935D01*
X46769Y189303D01*
X44436Y188137D02*
X42104D01*
X43270D01*
Y195134D01*
X44436Y193968D01*
X33939Y195134D02*
X38605D01*
Y191635D01*
X36272Y192802D01*
X35106D01*
X33939Y191635D01*
Y189303D01*
X35106Y188137D01*
X37438D01*
X38605Y189303D01*
X85796Y141486D02*
X86962Y140320D01*
Y137987D01*
X85796Y136821D01*
X81131D01*
X79965Y137987D01*
Y140320D01*
X81131Y141486D01*
X79965Y143819D02*
Y146151D01*
Y144985D01*
X86962D01*
X85796Y143819D01*
X79965Y153149D02*
X86962D01*
X83463Y149650D01*
Y154316D01*
X70886Y122755D02*
X72052Y121589D01*
Y119256D01*
X70886Y118090D01*
X66221D01*
X65055Y119256D01*
Y121589D01*
X66221Y122755D01*
X65055Y125088D02*
Y127420D01*
Y126254D01*
X72052D01*
X70886Y125088D01*
Y130919D02*
X72052Y132086D01*
Y134418D01*
X70886Y135584D01*
X69720D01*
X68554Y134418D01*
Y133252D01*
Y134418D01*
X67387Y135584D01*
X66221D01*
X65055Y134418D01*
Y132086D01*
X66221Y130919D01*
X112273Y155804D02*
X113439Y156970D01*
X115772D01*
X116938Y155804D01*
Y151139D01*
X115772Y149972D01*
X113439D01*
X112273Y151139D01*
X109940Y149972D02*
X107608D01*
X108774D01*
Y156970D01*
X109940Y155804D01*
X99444Y149972D02*
X104109D01*
X99444Y154638D01*
Y155804D01*
X100610Y156970D01*
X102942D01*
X104109Y155804D01*
X138349Y181728D02*
X139515Y182894D01*
X141848D01*
X143014Y181728D01*
Y177063D01*
X141848Y175897D01*
X139515D01*
X138349Y177063D01*
X136016Y175897D02*
X133684D01*
X134850D01*
Y182894D01*
X136016Y181728D01*
X130185Y175897D02*
X127852D01*
X129018D01*
Y182894D01*
X130185Y181728D01*
X68426Y85317D02*
X69592Y84151D01*
Y81819D01*
X68426Y80652D01*
X63761D01*
X62594Y81819D01*
Y84151D01*
X63761Y85317D01*
Y87650D02*
X62594Y88816D01*
Y91149D01*
X63761Y92315D01*
X68426D01*
X69592Y91149D01*
Y88816D01*
X68426Y87650D01*
X67260D01*
X66093Y88816D01*
Y92315D01*
X130593Y95445D02*
X131759Y94278D01*
Y91946D01*
X130593Y90779D01*
X125927D01*
X124761Y91946D01*
Y94278D01*
X125927Y95445D01*
X130593Y97777D02*
X131759Y98944D01*
Y101276D01*
X130593Y102442D01*
X129426D01*
X128260Y101276D01*
X127094Y102442D01*
X125927D01*
X124761Y101276D01*
Y98944D01*
X125927Y97777D01*
X127094D01*
X128260Y98944D01*
X129426Y97777D01*
X130593D01*
X128260Y98944D02*
Y101276D01*
X96961Y115434D02*
X98127Y116600D01*
X100460D01*
X101626Y115434D01*
Y110769D01*
X100460Y109603D01*
X98127D01*
X96961Y110769D01*
X89963Y116600D02*
X92296Y115434D01*
X94628Y113102D01*
Y110769D01*
X93462Y109603D01*
X91129D01*
X89963Y110769D01*
Y111935D01*
X91129Y113102D01*
X94628D01*
X37175Y66004D02*
X38341Y67170D01*
X40674D01*
X41840Y66004D01*
Y61339D01*
X40674Y60173D01*
X38341D01*
X37175Y61339D01*
X30177Y67170D02*
X34842D01*
Y63671D01*
X32510Y64838D01*
X31343D01*
X30177Y63671D01*
Y61339D01*
X31343Y60173D01*
X33676D01*
X34842Y61339D01*
X110756Y83601D02*
X111923Y82435D01*
Y80102D01*
X110756Y78936D01*
X106091D01*
X104925Y80102D01*
Y82435D01*
X106091Y83601D01*
X104925Y89433D02*
X111923D01*
X108424Y85934D01*
Y90599D01*
X100636Y93129D02*
X101803Y91963D01*
Y89630D01*
X100636Y88464D01*
X95971D01*
X94805Y89630D01*
Y91963D01*
X95971Y93129D01*
X100636Y95462D02*
X101803Y96628D01*
Y98961D01*
X100636Y100127D01*
X99470D01*
X98304Y98961D01*
Y97794D01*
Y98961D01*
X97137Y100127D01*
X95971D01*
X94805Y98961D01*
Y96628D01*
X95971Y95462D01*
X140058Y64342D02*
Y58510D01*
X138892Y57344D01*
X136560D01*
X135393Y58510D01*
Y64342D01*
X128396D02*
X133061D01*
Y60843D01*
X130728Y62009D01*
X129562D01*
X128396Y60843D01*
Y58510D01*
X129562Y57344D01*
X131895D01*
X133061Y58510D01*
D31*
X92000Y247500D02*
G03*
X92000Y247500I-1500J0D01*
G01*
X144000Y194000D02*
G03*
X144000Y194000I-1500J0D01*
G01*
D33*
X0Y0D02*
Y510000D01*
X179000D01*
X0Y0D02*
X179000Y-0D01*
Y510000D01*
D45*
X52100Y122400D02*
G03*
X52100Y122400I-1000J0D01*
G01*
X87500Y252000D02*
X93000D01*
Y258500D01*
Y286500D02*
Y293000D01*
X87500D02*
X93000D01*
X42000Y252000D02*
Y258500D01*
Y252000D02*
X47500D01*
X42000Y286500D02*
Y293000D01*
X47500D01*
X139500Y198500D02*
X145000D01*
Y205000D01*
Y233000D02*
Y239500D01*
X139500D02*
X145000D01*
X94000Y198500D02*
Y205000D01*
Y198500D02*
X99500D01*
X94000Y233000D02*
Y239500D01*
X99500D01*
X42600Y143650D02*
X44600D01*
X42600Y127150D02*
X44600D01*
X67500Y59500D02*
X117500D01*
X67500Y5500D02*
X117500D01*
D52*
X58500Y4950D02*
G03*
X58500Y4950I-2000J0D01*
G01*
M02*
