%FSLAX44Y44*%
%MOMM*%
G71*
G01*
G75*
G04 Layer_Color=16711935*
G04:AMPARAMS|DCode=10|XSize=0.6mm|YSize=0.5mm|CornerRadius=0.05mm|HoleSize=0mm|Usage=FLASHONLY|Rotation=90.000|XOffset=0mm|YOffset=0mm|HoleType=Round|Shape=RoundedRectangle|*
%AMROUNDEDRECTD10*
21,1,0.6000,0.4000,0,0,90.0*
21,1,0.5000,0.5000,0,0,90.0*
1,1,0.1000,0.2000,0.2500*
1,1,0.1000,0.2000,-0.2500*
1,1,0.1000,-0.2000,-0.2500*
1,1,0.1000,-0.2000,0.2500*
%
%ADD10ROUNDEDRECTD10*%
G04:AMPARAMS|DCode=11|XSize=0.4mm|YSize=0.37mm|CornerRadius=0.037mm|HoleSize=0mm|Usage=FLASHONLY|Rotation=90.000|XOffset=0mm|YOffset=0mm|HoleType=Round|Shape=RoundedRectangle|*
%AMROUNDEDRECTD11*
21,1,0.4000,0.2960,0,0,90.0*
21,1,0.3260,0.3700,0,0,90.0*
1,1,0.0740,0.1480,0.1630*
1,1,0.0740,0.1480,-0.1630*
1,1,0.0740,-0.1480,-0.1630*
1,1,0.0740,-0.1480,0.1630*
%
%ADD11ROUNDEDRECTD11*%
G04:AMPARAMS|DCode=12|XSize=0.4mm|YSize=0.37mm|CornerRadius=0.037mm|HoleSize=0mm|Usage=FLASHONLY|Rotation=180.000|XOffset=0mm|YOffset=0mm|HoleType=Round|Shape=RoundedRectangle|*
%AMROUNDEDRECTD12*
21,1,0.4000,0.2960,0,0,180.0*
21,1,0.3260,0.3700,0,0,180.0*
1,1,0.0740,-0.1630,0.1480*
1,1,0.0740,0.1630,0.1480*
1,1,0.0740,0.1630,-0.1480*
1,1,0.0740,-0.1630,-0.1480*
%
%ADD12ROUNDEDRECTD12*%
G04:AMPARAMS|DCode=13|XSize=0.76mm|YSize=0.27mm|CornerRadius=0.027mm|HoleSize=0mm|Usage=FLASHONLY|Rotation=90.000|XOffset=0mm|YOffset=0mm|HoleType=Round|Shape=RoundedRectangle|*
%AMROUNDEDRECTD13*
21,1,0.7600,0.2160,0,0,90.0*
21,1,0.7060,0.2700,0,0,90.0*
1,1,0.0540,0.1080,0.3530*
1,1,0.0540,0.1080,-0.3530*
1,1,0.0540,-0.1080,-0.3530*
1,1,0.0540,-0.1080,0.3530*
%
%ADD13ROUNDEDRECTD13*%
G04:AMPARAMS|DCode=14|XSize=0.76mm|YSize=0.27mm|CornerRadius=0.027mm|HoleSize=0mm|Usage=FLASHONLY|Rotation=180.000|XOffset=0mm|YOffset=0mm|HoleType=Round|Shape=RoundedRectangle|*
%AMROUNDEDRECTD14*
21,1,0.7600,0.2160,0,0,180.0*
21,1,0.7060,0.2700,0,0,180.0*
1,1,0.0540,-0.3530,0.1080*
1,1,0.0540,0.3530,0.1080*
1,1,0.0540,0.3530,-0.1080*
1,1,0.0540,-0.3530,-0.1080*
%
%ADD14ROUNDEDRECTD14*%
G04:AMPARAMS|DCode=15|XSize=3.79mm|YSize=1.2mm|CornerRadius=0.3mm|HoleSize=0mm|Usage=FLASHONLY|Rotation=270.000|XOffset=0mm|YOffset=0mm|HoleType=Round|Shape=RoundedRectangle|*
%AMROUNDEDRECTD15*
21,1,3.7900,0.6000,0,0,270.0*
21,1,3.1900,1.2000,0,0,270.0*
1,1,0.6000,-0.3000,-1.5950*
1,1,0.6000,-0.3000,1.5950*
1,1,0.6000,0.3000,1.5950*
1,1,0.6000,0.3000,-1.5950*
%
%ADD15ROUNDEDRECTD15*%
G04:AMPARAMS|DCode=16|XSize=0.6mm|YSize=1.25mm|CornerRadius=0.15mm|HoleSize=0mm|Usage=FLASHONLY|Rotation=0.000|XOffset=0mm|YOffset=0mm|HoleType=Round|Shape=RoundedRectangle|*
%AMROUNDEDRECTD16*
21,1,0.6000,0.9500,0,0,0.0*
21,1,0.3000,1.2500,0,0,0.0*
1,1,0.3000,0.1500,-0.4750*
1,1,0.3000,-0.1500,-0.4750*
1,1,0.3000,-0.1500,0.4750*
1,1,0.3000,0.1500,0.4750*
%
%ADD16ROUNDEDRECTD16*%
G04:AMPARAMS|DCode=17|XSize=1.45mm|YSize=1.4mm|CornerRadius=0.35mm|HoleSize=0mm|Usage=FLASHONLY|Rotation=0.000|XOffset=0mm|YOffset=0mm|HoleType=Round|Shape=RoundedRectangle|*
%AMROUNDEDRECTD17*
21,1,1.4500,0.7000,0,0,0.0*
21,1,0.7500,1.4000,0,0,0.0*
1,1,0.7000,0.3750,-0.3500*
1,1,0.7000,-0.3750,-0.3500*
1,1,0.7000,-0.3750,0.3500*
1,1,0.7000,0.3750,0.3500*
%
%ADD17ROUNDEDRECTD17*%
G04:AMPARAMS|DCode=18|XSize=1mm|YSize=0.6mm|CornerRadius=0.15mm|HoleSize=0mm|Usage=FLASHONLY|Rotation=180.000|XOffset=0mm|YOffset=0mm|HoleType=Round|Shape=RoundedRectangle|*
%AMROUNDEDRECTD18*
21,1,1.0000,0.3000,0,0,180.0*
21,1,0.7000,0.6000,0,0,180.0*
1,1,0.3000,-0.3500,0.1500*
1,1,0.3000,0.3500,0.1500*
1,1,0.3000,0.3500,-0.1500*
1,1,0.3000,-0.3500,-0.1500*
%
%ADD18ROUNDEDRECTD18*%
G04:AMPARAMS|DCode=19|XSize=0.95mm|YSize=0.85mm|CornerRadius=0.2125mm|HoleSize=0mm|Usage=FLASHONLY|Rotation=180.000|XOffset=0mm|YOffset=0mm|HoleType=Round|Shape=RoundedRectangle|*
%AMROUNDEDRECTD19*
21,1,0.9500,0.4250,0,0,180.0*
21,1,0.5250,0.8500,0,0,180.0*
1,1,0.4250,-0.2625,0.2125*
1,1,0.4250,0.2625,0.2125*
1,1,0.4250,0.2625,-0.2125*
1,1,0.4250,-0.2625,-0.2125*
%
%ADD19ROUNDEDRECTD19*%
%ADD20O,0.8000X1.4700*%
G04:AMPARAMS|DCode=21|XSize=0.6mm|YSize=0.5mm|CornerRadius=0.05mm|HoleSize=0mm|Usage=FLASHONLY|Rotation=180.000|XOffset=0mm|YOffset=0mm|HoleType=Round|Shape=RoundedRectangle|*
%AMROUNDEDRECTD21*
21,1,0.6000,0.4000,0,0,180.0*
21,1,0.5000,0.5000,0,0,180.0*
1,1,0.1000,-0.2500,0.2000*
1,1,0.1000,0.2500,0.2000*
1,1,0.1000,0.2500,-0.2000*
1,1,0.1000,-0.2500,-0.2000*
%
%ADD21ROUNDEDRECTD21*%
G04:AMPARAMS|DCode=22|XSize=0.8mm|YSize=0.8mm|CornerRadius=0.12mm|HoleSize=0mm|Usage=FLASHONLY|Rotation=270.000|XOffset=0mm|YOffset=0mm|HoleType=Round|Shape=RoundedRectangle|*
%AMROUNDEDRECTD22*
21,1,0.8000,0.5600,0,0,270.0*
21,1,0.5600,0.8000,0,0,270.0*
1,1,0.2400,-0.2800,-0.2800*
1,1,0.2400,-0.2800,0.2800*
1,1,0.2400,0.2800,0.2800*
1,1,0.2400,0.2800,-0.2800*
%
%ADD22ROUNDEDRECTD22*%
%ADD23O,1.4000X0.6000*%
%ADD24C,0.3500*%
%ADD25R,0.5400X0.7400*%
G04:AMPARAMS|DCode=26|XSize=0.8mm|YSize=0.8mm|CornerRadius=0.12mm|HoleSize=0mm|Usage=FLASHONLY|Rotation=0.000|XOffset=0mm|YOffset=0mm|HoleType=Round|Shape=RoundedRectangle|*
%AMROUNDEDRECTD26*
21,1,0.8000,0.5600,0,0,0.0*
21,1,0.5600,0.8000,0,0,0.0*
1,1,0.2400,0.2800,-0.2800*
1,1,0.2400,-0.2800,-0.2800*
1,1,0.2400,-0.2800,0.2800*
1,1,0.2400,0.2800,0.2800*
%
%ADD26ROUNDEDRECTD26*%
%ADD27R,0.7400X0.5400*%
%ADD28C,0.1000*%
%ADD29C,0.0750*%
%ADD30C,0.1500*%
%ADD31C,0.0751*%
%ADD32C,0.3000*%
%ADD33C,1.5000*%
%ADD34R,1.5000X1.5000*%
%ADD35R,1.5000X1.5000*%
G04:AMPARAMS|DCode=36|XSize=1.38mm|YSize=1.05mm|CornerRadius=0.105mm|HoleSize=0mm|Usage=FLASHONLY|Rotation=270.000|XOffset=0mm|YOffset=0mm|HoleType=Round|Shape=RoundedRectangle|*
%AMROUNDEDRECTD36*
21,1,1.3800,0.8400,0,0,270.0*
21,1,1.1700,1.0500,0,0,270.0*
1,1,0.2100,-0.4200,-0.5850*
1,1,0.2100,-0.4200,0.5850*
1,1,0.2100,0.4200,0.5850*
1,1,0.2100,0.4200,-0.5850*
%
%ADD36ROUNDEDRECTD36*%
%ADD37O,1.6000X0.6000*%
G04:AMPARAMS|DCode=38|XSize=0.9mm|YSize=0.8mm|CornerRadius=0.08mm|HoleSize=0mm|Usage=FLASHONLY|Rotation=180.000|XOffset=0mm|YOffset=0mm|HoleType=Round|Shape=RoundedRectangle|*
%AMROUNDEDRECTD38*
21,1,0.9000,0.6400,0,0,180.0*
21,1,0.7400,0.8000,0,0,180.0*
1,1,0.1600,-0.3700,0.3200*
1,1,0.1600,0.3700,0.3200*
1,1,0.1600,0.3700,-0.3200*
1,1,0.1600,-0.3700,-0.3200*
%
%ADD38ROUNDEDRECTD38*%
%ADD39R,0.9000X2.2500*%
G04:AMPARAMS|DCode=40|XSize=0.3mm|YSize=0.6mm|CornerRadius=0.0495mm|HoleSize=0mm|Usage=FLASHONLY|Rotation=0.000|XOffset=0mm|YOffset=0mm|HoleType=Round|Shape=RoundedRectangle|*
%AMROUNDEDRECTD40*
21,1,0.3000,0.5010,0,0,0.0*
21,1,0.2010,0.6000,0,0,0.0*
1,1,0.0990,0.1005,-0.2505*
1,1,0.0990,-0.1005,-0.2505*
1,1,0.0990,-0.1005,0.2505*
1,1,0.0990,0.1005,0.2505*
%
%ADD40ROUNDEDRECTD40*%
G04:AMPARAMS|DCode=41|XSize=0.3mm|YSize=0.6mm|CornerRadius=0.0495mm|HoleSize=0mm|Usage=FLASHONLY|Rotation=270.000|XOffset=0mm|YOffset=0mm|HoleType=Round|Shape=RoundedRectangle|*
%AMROUNDEDRECTD41*
21,1,0.3000,0.5010,0,0,270.0*
21,1,0.2010,0.6000,0,0,270.0*
1,1,0.0990,-0.2505,-0.1005*
1,1,0.0990,-0.2505,0.1005*
1,1,0.0990,0.2505,0.1005*
1,1,0.0990,0.2505,-0.1005*
%
%ADD41ROUNDEDRECTD41*%
G04:AMPARAMS|DCode=42|XSize=1.38mm|YSize=1.05mm|CornerRadius=0.105mm|HoleSize=0mm|Usage=FLASHONLY|Rotation=0.000|XOffset=0mm|YOffset=0mm|HoleType=Round|Shape=RoundedRectangle|*
%AMROUNDEDRECTD42*
21,1,1.3800,0.8400,0,0,0.0*
21,1,1.1700,1.0500,0,0,0.0*
1,1,0.2100,0.5850,-0.4200*
1,1,0.2100,-0.5850,-0.4200*
1,1,0.2100,-0.5850,0.4200*
1,1,0.2100,0.5850,0.4200*
%
%ADD42ROUNDEDRECTD42*%
%ADD43C,0.8000*%
%ADD44C,0.2000*%
%ADD45C,0.1500*%
D10*
X84500Y242500D02*
D03*
X75500D02*
D03*
X138000Y188600D02*
D03*
X129000D02*
D03*
X120300Y108200D02*
D03*
X129300D02*
D03*
X121900Y77200D02*
D03*
X130900D02*
D03*
X55900Y191800D02*
D03*
X64900D02*
D03*
X136100Y248800D02*
D03*
X127100D02*
D03*
X127100Y257800D02*
D03*
X136100D02*
D03*
D11*
X74650Y66100D02*
D03*
X80350D02*
D03*
X120850Y68400D02*
D03*
X126550D02*
D03*
X133450Y67800D02*
D03*
X139150D02*
D03*
X103400Y66200D02*
D03*
X109100D02*
D03*
X38950Y71500D02*
D03*
X33250D02*
D03*
X33150Y57100D02*
D03*
X38850D02*
D03*
X42650Y20800D02*
D03*
X36950D02*
D03*
X98350Y106000D02*
D03*
X92650D02*
D03*
D12*
X73200Y89850D02*
D03*
Y84150D02*
D03*
X67700Y72650D02*
D03*
Y66950D02*
D03*
X91200Y83450D02*
D03*
Y89150D02*
D03*
X91400Y67150D02*
D03*
Y72850D02*
D03*
X101200Y80950D02*
D03*
Y75250D02*
D03*
X143000Y50950D02*
D03*
Y45250D02*
D03*
X121100Y97850D02*
D03*
Y92150D02*
D03*
X59600Y66950D02*
D03*
Y72650D02*
D03*
X41900Y41950D02*
D03*
Y36250D02*
D03*
X143000Y13550D02*
D03*
Y7850D02*
D03*
Y32850D02*
D03*
Y38550D02*
D03*
X62100Y123850D02*
D03*
Y129550D02*
D03*
X82900Y133250D02*
D03*
Y127550D02*
D03*
X62100Y139050D02*
D03*
Y144750D02*
D03*
X143000Y26050D02*
D03*
Y20350D02*
D03*
D21*
X82400Y84500D02*
D03*
Y75500D02*
D03*
X70600Y106700D02*
D03*
Y97700D02*
D03*
D28*
X-32540Y0D02*
X-2540D01*
X-32540Y510000D02*
X-2590D01*
X-30000Y0D02*
Y238337D01*
Y266663D02*
Y510000D01*
Y0D02*
X-25833Y12500D01*
X-34167D02*
X-30000Y0D01*
X-34167Y497500D02*
X-30000Y510000D01*
X-25833Y497500D01*
X179000Y-40040D02*
Y-2590D01*
X0Y-40040D02*
Y-2540D01*
X104662Y-37500D02*
X179000D01*
X0D02*
X69338D01*
X166500Y-33333D02*
X179000Y-37500D01*
X166500Y-41667D02*
X179000Y-37500D01*
X0D02*
X12500Y-41667D01*
X0Y-37500D02*
X12500Y-33333D01*
X166000Y-17540D02*
Y4660D01*
X13500Y-17540D02*
Y4660D01*
X99080Y-15000D02*
X166000D01*
X13500D02*
X75420D01*
X153500Y-10833D02*
X166000Y-15000D01*
X153500Y-19167D02*
X166000Y-15000D01*
X13500D02*
X26000Y-19167D01*
X13500Y-15000D02*
X26000Y-10833D01*
X-32499Y245502D02*
Y240837D01*
X-29000D01*
X-30166Y243170D01*
Y244336D01*
X-29000Y245502D01*
X-26667D01*
X-25501Y244336D01*
Y242003D01*
X-26667Y240837D01*
X-25501Y247835D02*
Y250167D01*
Y249001D01*
X-32499D01*
X-31333Y247835D01*
X-25501Y253666D02*
X-26667D01*
Y254832D01*
X-25501D01*
Y253666D01*
X-31333Y259498D02*
X-32499Y260664D01*
Y262997D01*
X-31333Y264163D01*
X-26667D01*
X-25501Y262997D01*
Y260664D01*
X-26667Y259498D01*
X-31333D01*
X71838Y-41999D02*
X74171D01*
X73004D01*
Y-35001D01*
X71838Y-36168D01*
X77670Y-35001D02*
X82335D01*
Y-36168D01*
X77670Y-40833D01*
Y-41999D01*
X84667D02*
Y-40833D01*
X85834D01*
Y-41999D01*
X84667D01*
X90499Y-40833D02*
X91665Y-41999D01*
X93998D01*
X95164Y-40833D01*
Y-36168D01*
X93998Y-35001D01*
X91665D01*
X90499Y-36168D01*
Y-37334D01*
X91665Y-38500D01*
X95164D01*
X97497Y-36168D02*
X98663Y-35001D01*
X100996D01*
X102162Y-36168D01*
Y-40833D01*
X100996Y-41999D01*
X98663D01*
X97497Y-40833D01*
Y-36168D01*
X82585Y-12501D02*
X80252Y-13668D01*
X77920Y-16000D01*
Y-18333D01*
X79086Y-19499D01*
X81418D01*
X82585Y-18333D01*
Y-17166D01*
X81418Y-16000D01*
X77920D01*
X84917Y-13668D02*
X86084Y-12501D01*
X88416D01*
X89582Y-13668D01*
Y-18333D01*
X88416Y-19499D01*
X86084D01*
X84917Y-18333D01*
Y-13668D01*
X91915D02*
X93081Y-12501D01*
X95414D01*
X96580Y-13668D01*
Y-18333D01*
X95414Y-19499D01*
X93081D01*
X91915Y-18333D01*
Y-13668D01*
D33*
X140600Y497300D02*
D03*
Y471900D02*
D03*
X115200Y497300D02*
D03*
Y471900D02*
D03*
X89800Y497300D02*
D03*
Y471900D02*
D03*
X64400Y497300D02*
D03*
Y471900D02*
D03*
X39000Y497300D02*
D03*
Y446500D02*
D03*
X64400Y421100D02*
D03*
Y446500D02*
D03*
X89800Y421100D02*
D03*
Y446500D02*
D03*
X115200Y421100D02*
D03*
Y446500D02*
D03*
X140600Y421100D02*
D03*
Y446500D02*
D03*
X39000Y344900D02*
D03*
X64400Y319500D02*
D03*
Y344900D02*
D03*
X89800Y319500D02*
D03*
Y344900D02*
D03*
X115200Y319500D02*
D03*
Y344900D02*
D03*
X140600Y319500D02*
D03*
Y344900D02*
D03*
X166000Y40100D02*
D03*
Y243300D02*
D03*
Y268700D02*
D03*
X13500Y167100D02*
D03*
Y192500D02*
D03*
Y141700D02*
D03*
Y116300D02*
D03*
Y217900D02*
D03*
Y243300D02*
D03*
Y268700D02*
D03*
Y294100D02*
D03*
Y319500D02*
D03*
Y344900D02*
D03*
Y370300D02*
D03*
Y395700D02*
D03*
Y421100D02*
D03*
Y446500D02*
D03*
Y471900D02*
D03*
X166000Y370300D02*
D03*
Y497300D02*
D03*
Y471900D02*
D03*
Y446500D02*
D03*
Y421100D02*
D03*
Y395700D02*
D03*
Y344900D02*
D03*
Y319500D02*
D03*
Y294100D02*
D03*
Y217900D02*
D03*
Y90900D02*
D03*
Y65500D02*
D03*
Y141700D02*
D03*
Y116300D02*
D03*
Y192500D02*
D03*
Y167100D02*
D03*
X13500Y90900D02*
D03*
Y65500D02*
D03*
Y40100D02*
D03*
Y14700D02*
D03*
D34*
X39000Y471900D02*
D03*
X166000Y14700D02*
D03*
X13500Y497300D02*
D03*
D35*
X39000Y421100D02*
D03*
Y319500D02*
D03*
D36*
X63775Y238500D02*
D03*
X45975D02*
D03*
X117400Y185000D02*
D03*
X99600D02*
D03*
X63775Y220500D02*
D03*
X45975D02*
D03*
X117400Y167000D02*
D03*
X99600D02*
D03*
D37*
X56500Y13450D02*
D03*
Y26150D02*
D03*
Y38850D02*
D03*
Y51550D02*
D03*
X128500Y13450D02*
D03*
Y26150D02*
D03*
Y38850D02*
D03*
Y51550D02*
D03*
D38*
X51100Y141400D02*
D03*
X36100D02*
D03*
Y129400D02*
D03*
X51100D02*
D03*
D39*
X134000Y216250D02*
D03*
X82000Y269750D02*
D03*
D40*
X135750Y200000D02*
D03*
X129250D02*
D03*
X122750D02*
D03*
X116250D02*
D03*
X109750D02*
D03*
X103250D02*
D03*
X103250Y238000D02*
D03*
X109750D02*
D03*
X116250D02*
D03*
X122750D02*
D03*
X129250D02*
D03*
X135750D02*
D03*
X83750Y253500D02*
D03*
X77250D02*
D03*
X70750D02*
D03*
X64250D02*
D03*
X57750D02*
D03*
X51250D02*
D03*
X51250Y291500D02*
D03*
X57750D02*
D03*
X64250D02*
D03*
X70750D02*
D03*
X77250D02*
D03*
X83750D02*
D03*
D41*
X95500Y209250D02*
D03*
Y228750D02*
D03*
Y222250D02*
D03*
Y215750D02*
D03*
X143500D02*
D03*
Y222250D02*
D03*
Y228750D02*
D03*
Y209250D02*
D03*
X43500Y262750D02*
D03*
Y282250D02*
D03*
Y275750D02*
D03*
Y269250D02*
D03*
X91500D02*
D03*
Y275750D02*
D03*
Y282250D02*
D03*
Y262750D02*
D03*
D42*
X106500Y280600D02*
D03*
Y262800D02*
D03*
D43*
X83900Y190100D02*
D03*
X46100Y205800D02*
D03*
D45*
X126800Y96800D02*
D03*
X128100Y135100D02*
D03*
X144100Y143100D02*
D03*
Y135100D02*
D03*
X138900Y143100D02*
D03*
Y135100D02*
D03*
Y127100D02*
D03*
Y119100D02*
D03*
X121700Y144300D02*
D03*
X129700Y143200D02*
D03*
X128100Y127100D02*
D03*
X122900Y127900D02*
D03*
X123100Y119900D02*
D03*
X88900Y210000D02*
D03*
X67275Y166500D02*
D03*
X133300Y155600D02*
D03*
X128600Y152000D02*
D03*
X30500Y119600D02*
D03*
X52350Y104550D02*
D03*
X59200Y103800D02*
D03*
X100100Y70500D02*
D03*
X103700Y135900D02*
D03*
X89500Y143200D02*
D03*
X62800Y134300D02*
D03*
X38700Y120800D02*
D03*
X54700D02*
D03*
X46800Y118300D02*
D03*
X60300Y118200D02*
D03*
X36200Y88700D02*
D03*
X30800Y102300D02*
D03*
X36200Y104700D02*
D03*
X44200D02*
D03*
X64100Y103100D02*
D03*
X76300Y110200D02*
D03*
Y102200D02*
D03*
X78800Y134300D02*
D03*
Y126300D02*
D03*
X107800Y127900D02*
D03*
X92300Y126200D02*
D03*
X100300Y118200D02*
D03*
X92300D02*
D03*
X86800Y110300D02*
D03*
X84200Y104700D02*
D03*
X84300Y94200D02*
D03*
X92300Y102200D02*
D03*
Y94200D02*
D03*
X100300D02*
D03*
Y102200D02*
D03*
X108300D02*
D03*
X116300D02*
D03*
X148200Y88700D02*
D03*
X124300Y86200D02*
D03*
X133800Y88100D02*
D03*
X100300Y86200D02*
D03*
X108300D02*
D03*
Y78200D02*
D03*
X116300Y94200D02*
D03*
Y86200D02*
D03*
X140200Y104700D02*
D03*
X148200Y96700D02*
D03*
X141300Y55800D02*
D03*
X68000Y48600D02*
D03*
X127100Y262700D02*
D03*
X116100Y70700D02*
D03*
X78700Y48800D02*
D03*
X94600Y48600D02*
D03*
X106900Y187000D02*
D03*
X83900Y224900D02*
D03*
X158100Y260600D02*
D03*
X35300Y223900D02*
D03*
X71375Y221075D02*
D03*
Y228100D02*
D03*
X30600Y31700D02*
D03*
X100900Y22800D02*
D03*
X110700Y24700D02*
D03*
X46500Y47500D02*
D03*
X37900Y31500D02*
D03*
X68200Y88800D02*
D03*
Y78200D02*
D03*
X60200Y88800D02*
D03*
X106000Y144200D02*
D03*
X110900Y62100D02*
D03*
X116200Y151700D02*
D03*
X115300Y156400D02*
D03*
X102900Y54200D02*
D03*
X102800Y62200D02*
D03*
X133300Y150900D02*
D03*
X70175Y191750D02*
D03*
X96000Y151000D02*
D03*
X105000Y149600D02*
D03*
X27200Y143100D02*
D03*
Y149500D02*
D03*
X78675Y166200D02*
D03*
X52100Y148700D02*
D03*
X65125Y159300D02*
D03*
X116200Y78200D02*
D03*
X76100Y78100D02*
D03*
X84100Y70100D02*
D03*
X76200Y94200D02*
D03*
X107900Y93900D02*
D03*
X46800Y56800D02*
D03*
X30700Y64800D02*
D03*
X33500Y23800D02*
D03*
X127300Y63400D02*
D03*
X92100Y62300D02*
D03*
X84100Y62100D02*
D03*
X84100Y46200D02*
D03*
X44200Y70300D02*
D03*
X60100Y62200D02*
D03*
X68100Y56900D02*
D03*
X60000Y78100D02*
D03*
X46400Y78600D02*
D03*
X38800Y80800D02*
D03*
X33500Y149000D02*
D03*
X40500D02*
D03*
X47500D02*
D03*
X65500D02*
D03*
X76100Y62100D02*
D03*
X52200Y88800D02*
D03*
X148200Y104700D02*
D03*
X134800Y102300D02*
D03*
X140200Y88800D02*
D03*
Y80800D02*
D03*
Y72800D02*
D03*
X54500Y32300D02*
D03*
X95800Y8000D02*
D03*
X92200Y78200D02*
D03*
X108800Y71300D02*
D03*
X148400Y8500D02*
D03*
X148550Y14850D02*
D03*
X83750Y248300D02*
D03*
X96300Y262750D02*
D03*
X25500Y9500D02*
D03*
X86000Y16300D02*
D03*
X108100Y288400D02*
D03*
X79900Y237500D02*
D03*
X80100Y228600D02*
D03*
X106900Y180900D02*
D03*
X35700Y235000D02*
D03*
X147900Y39550D02*
D03*
X124400Y185000D02*
D03*
X124900Y167000D02*
D03*
X84400Y214899D02*
D03*
X133900Y223900D02*
D03*
Y208700D02*
D03*
Y216400D02*
D03*
X84800Y267500D02*
D03*
X79500Y260300D02*
D03*
X44400Y229200D02*
D03*
X48900D02*
D03*
X57600Y302100D02*
D03*
X51200Y301900D02*
D03*
X40700Y299600D02*
D03*
M02*
