M48
;Layer_Color=9474304
;FILE_FORMAT=4:4
METRIC,LZ
;TYPE=PLATED
T1F00S00C0.1500
T2F00S00C1.0000
%
T01
X000255Y000095
X000335Y000238
X000306Y000317
X000379Y000315
X00086Y000163
X000958Y00008
X001009Y000228
X001107Y000247
X0014855Y0001485
X001484Y000085
X001479Y0003955
X001413Y000558
X001402Y000728
Y000808
Y000888
X001338Y000881
X001243Y000862
X001163
X001083
Y000782
X001088Y000713
X001161Y000707
X001162Y000782
X001163Y000942
Y001022
X001083
X001003
Y000942
X001079Y000939
X001003Y000862
X001001Y000705
X001028Y000622
X001029Y000542
X000946Y000486
X000841Y000462
X000787Y000488
X00068Y000486
X000681Y000569
X000761Y000621
X000841Y000621
X000841Y000701
X000921Y000623
X000922Y000782
X000923Y000942
X000843
X000762
X000763Y001022
Y001102
X000868Y001103
X000842Y001047
X000923Y001022
Y001182
X001003
X000923Y001262
X000788Y001263
Y001343
X000628Y001343
X000655Y00149
X00065125Y001593
X00067275Y001665
X00078675Y001662
X00096Y00151
X00105Y001496
X00106Y001442
X001037Y001359
X001078Y001279
X001229Y001279
X001281Y001271
Y001351
X001297Y001432
X001217Y001443
X001162Y001517
X001153Y001564
X001286Y00152
X001333Y001509
Y001556
X001389Y001431
X001441
Y001351
X001389
Y001271
Y001191
X001402Y001047
X001348Y001023
X001268Y000968
X001482Y000967
Y001047
Y000887
X001273Y000634
X001109Y000621
X000761Y000781
X000682Y000782
X0006Y000781
X000602Y000888
X000522
X0005235Y0010455
X000592Y001038
X000641Y001031
X000682Y000888
X000464Y000786
X000388Y000808
X000362Y000887
Y001047
X000308Y001023
X000442Y001047
X000468Y001183
X000547Y001208
X000603Y001182
X000387Y001208
X000305Y001196
X000272Y001431
Y001495
X000335Y00149
X000405
X000475
X000521Y001487
X000895Y001432
X001069Y001809
Y00187
X001244Y00185
X001249Y00167
X001231Y001199
X001339Y002087
Y002164
Y002239
X001271Y002627
X000963Y0026275
X000848Y002675
X000795Y002603
X0008375Y002483
X000799Y002375
X000801Y002286
X000839Y002249
X000844Y00214899
X000889Y0021
X00071375Y00221075
Y002281
X000489Y002292
X000444
X000353Y002239
X000357Y00235
X000407Y002996
X000512Y003019
X000576Y003021
X001081Y002884
X001581Y002606
X00070175Y0019175
X000601Y000622
X000468Y000568
X000465Y000475
X000545Y000323
X000442Y000703
X000307Y000648
T02
X000135Y000147
X00166
Y000401
Y000655
Y000909
Y001163
Y001417
Y001671
Y001925
Y002179
Y002433
Y002687
Y002941
Y003195
Y003449
Y003703
Y003957
Y004211
X001406
X001152
X000898
X000644
X00039
X000135
Y003957
Y003703
Y003449
Y003195
Y002941
Y002687
Y002433
Y002179
Y001925
Y001671
Y001417
Y001163
Y000909
Y000655
Y000401
X00039Y003195
X000644
X000898
X001152
X001406
Y003449
X001152
X000898
X000644
X00039
Y004465
X000644
X000898
X001152
X001406
Y004719
X001152
X000898
X000644
X00039
Y004973
X000644Y004973
X000898
X001152
X001406
X000135
Y004719
Y004465
X00166
Y004719
Y004973
M30
